<svg width="110" height="52" viewBox="0 0 110 52" fill="none" xmlns="http://www.w3.org/2000/svg">
<path d="M108.987 25.0119C108.404 18.974 107.711 12.9129 107.227 6.86443C106.886 2.57495 104.345 0.00105874 100.012 0.00105874H98.5498C98.0864 0.317919 97.5378 0.486709 96.977 0.485157H8.80098C8.23631 0.486692 7.68392 0.317907 7.21669 0.00105874H6.01754H6.01831C4.43862 -0.0288616 2.91275 0.576468 1.78264 1.67971C0.651778 2.78373 0.0103985 4.29426 0.00195312 5.87394V31.9408H109.659C109.45 29.6307 109.208 27.3208 108.988 25.0115L108.987 25.0119ZM80.6554 15.8606C80.6584 15.9849 80.6109 16.1053 80.5242 16.1943C80.4367 16.2833 80.3178 16.3339 80.1935 16.3339H7.30563C7.15142 16.3347 7.00643 16.258 6.9205 16.1298C6.83457 16.0017 6.81769 15.8383 6.87677 15.6956L10.5171 6.68789C10.5854 6.5099 10.7557 6.39175 10.946 6.39099H80.2377C80.362 6.39099 80.4817 6.44086 80.5684 6.52985C80.6551 6.61885 80.7026 6.7393 80.6996 6.86358L80.6554 15.8606ZM92.7543 27.9595H89.6409C89.2834 27.915 89.0149 27.6104 89.0149 27.2498C89.0149 26.8893 89.2834 26.5854 89.6409 26.5409H92.7205C93.0788 26.5854 93.3473 26.8892 93.3473 27.2498C93.3473 27.6104 93.0788 27.915 92.7205 27.9595H92.7543ZM100.96 27.5199L88.9152 17.3237C88.6681 17.0959 88.5385 16.7683 88.563 16.433L88.3873 7.43587C88.4533 6.93335 88.8814 6.55741 89.3885 6.55588H100.695C101.908 6.55511 102.924 7.47193 103.049 8.67882L104.819 25.43C104.917 26.3921 104.421 27.3173 103.566 27.7692C102.71 28.2211 101.666 28.1091 100.926 27.4861L100.96 27.5199Z" fill="#A0DDFF"/>
<path d="M109.99 36.3525C109.99 35.1978 109.847 34.0424 109.748 32.8877H0.00301316V36.1875C-0.0453202 37.6659 0.48943 39.1045 1.49139 40.1924C2.49337 41.2803 3.88203 41.9317 5.35959 42.0061H14.5653C14.4993 42.4058 14.4656 42.8109 14.4663 43.216C14.4656 45.8529 15.7499 48.3241 17.9073 49.8401C20.0639 51.3561 22.8243 51.7267 25.3055 50.8329C27.7859 49.9391 29.6755 47.8929 30.3706 45.3497C31.0174 47.9412 32.9017 50.0473 35.4058 50.977C37.91 51.9069 40.7119 51.5417 42.8938 50.0011C45.0756 48.4598 46.3578 45.9419 46.3187 43.2711C46.3149 42.9029 46.2857 42.5354 46.2305 42.171H78.6216C78.6216 45.0634 80.1644 47.7355 82.6685 49.1816C85.1735 50.6271 88.2592 50.6271 90.7641 49.1816C93.2683 47.7354 94.8111 45.0632 94.8111 42.171H104.709C108.142 41.8633 110.165 39.7404 109.989 36.3525L109.99 36.3525ZM22.6054 47.7915C21.4001 47.7884 20.2454 47.3066 19.3954 46.452C18.5461 45.5973 18.0704 44.4396 18.0742 43.2343C18.0781 42.029 18.5614 40.8742 19.4168 40.025C20.2715 39.1757 21.43 38.7016 22.6353 38.7062C23.8406 38.7115 24.9945 39.1949 25.843 40.0511C26.6915 40.9073 27.1649 42.0658 27.1595 43.2712C27.1534 44.4734 26.6708 45.6249 25.8169 46.4728C24.9638 47.3197 23.8083 47.7947 22.6053 47.7916L22.6054 47.7915ZM38.2235 47.7915H38.2243C37.0183 47.7915 35.8613 47.312 35.0097 46.4581C34.1574 45.6049 33.6794 44.4473 33.6817 43.2412C33.6832 42.0351 34.165 40.8798 35.0197 40.029C35.8744 39.1781 37.0329 38.7025 38.239 38.7063C39.4451 38.7101 40.5998 39.1935 41.449 40.0497C42.2983 40.9059 42.7725 42.0652 42.7663 43.2711C42.7579 44.471 42.2761 45.6187 41.4252 46.4658C40.5744 47.3121 39.4243 47.7885 38.2244 47.7916L38.2235 47.7915ZM86.7179 46.5701C85.5088 46.5647 84.3518 46.0783 83.5018 45.2183C82.6525 44.359 82.1791 43.1967 82.1868 41.9876C82.1944 40.7785 82.6831 39.6223 83.544 38.7738C84.4048 37.9254 85.5679 37.4542 86.777 37.4634C87.9853 37.4734 89.1407 37.9637 89.9886 38.826C90.8356 39.6883 91.3051 40.8521 91.2936 42.0614C91.279 43.2644 90.7903 44.4129 89.9334 45.2569C89.0764 46.1016 87.921 46.5734 86.718 46.5703L86.7179 46.5701Z" fill="#A0DDFF"/>
</svg>
