<svg xmlns="http://www.w3.org/2000/svg" width="25" height="28" viewBox="0 0 25 28" fill="none">
  <path fill-rule="evenodd" clip-rule="evenodd" d="M12.3574 0.532998C12.2589 0.593023 12.1543 0.705254 12.125 0.782389C12.0393 1.00784 12.0577 2.31509 12.1491 2.49177C12.293 2.77003 12.682 2.87559 12.9787 2.71684C13.2261 2.58438 13.2744 2.40742 13.2744 1.63241C13.2744 1.24198 13.2504 0.85947 13.2211 0.782389C13.1577 0.615545 12.8646 0.423828 12.6731 0.423828C12.5979 0.423828 12.4558 0.472974 12.3574 0.532998ZM4.41414 3.86326C4.28278 3.99468 4.25435 4.06886 4.25435 4.28064C4.25435 4.53167 4.2672 4.55135 4.76002 5.05692C5.03817 5.34222 5.34414 5.60916 5.43997 5.65022C5.67241 5.74966 5.90562 5.69548 6.09483 5.49797C6.21766 5.36972 6.2497 5.28575 6.2497 5.09196C6.2497 4.85394 6.23461 4.83262 5.67067 4.2755C5.09956 3.71129 5.08813 3.70347 4.83278 3.70347C4.61958 3.70347 4.54578 3.73162 4.41414 3.86326ZM19.6755 4.2755C19.1115 4.83262 19.0965 4.85394 19.0965 5.09196C19.0965 5.52765 19.5162 5.81706 19.9062 5.65022C20.002 5.60916 20.308 5.34222 20.5861 5.05692C21.079 4.55135 21.0918 4.53167 21.0918 4.28064C21.0918 4.06886 21.0634 3.99468 20.932 3.86326C20.8004 3.73162 20.7266 3.70347 20.5134 3.70347C20.258 3.70347 20.2466 3.71129 19.6755 4.2755ZM12.1537 4.31077C8.72841 4.56573 5.60452 7.0984 4.77434 10.2935C4.35395 11.9116 4.52714 13.722 5.26312 15.4022C5.89453 16.8437 7.1054 18.2288 8.30502 18.8817L8.57305 19.0276V22.0582C8.57305 24.7509 8.58289 25.1054 8.66139 25.2384C8.81036 25.4905 8.94079 25.537 9.56465 25.5603L10.1463 25.582L10.1821 25.8056C10.2835 26.44 10.8361 27.1635 11.4598 27.4783C12.409 27.9574 13.4759 27.7823 14.2344 27.0227C14.5885 26.6681 14.7881 26.3169 14.8878 25.8732L14.9497 25.5976L15.6564 25.5684C16.4119 25.5372 16.5308 25.499 16.6848 25.2384C16.7633 25.1054 16.7731 24.7502 16.7731 22.0495C16.7731 20.3779 16.7934 19.0102 16.8182 19.0102C16.9375 19.0102 17.9038 18.3105 18.3029 17.9352C19.5958 16.7188 20.4022 15.1455 20.6811 13.2951C20.7882 12.5848 20.7864 11.4563 20.6773 10.8061C20.2448 8.22935 18.3595 5.9253 15.83 4.88214C14.6984 4.41545 13.4188 4.21657 12.1537 4.31077ZM11.5554 5.59571C9.15842 6.0284 7.03936 7.72264 6.16546 9.90501C5.88113 10.6152 5.76967 11.2296 5.77322 12.0675C5.78399 14.5937 7.07189 16.8567 9.11688 17.9427C9.73631 18.2717 9.77572 18.3401 9.77572 19.087V19.6662H12.6731H15.5704V19.0691C15.5704 18.5068 15.5787 18.4622 15.7116 18.3042C15.7893 18.2119 16.0416 18.0382 16.2724 17.9181C17.78 17.1337 18.9692 15.4901 19.4003 13.5949C19.5495 12.9388 19.6014 11.7649 19.509 11.1333C19.1097 8.40237 16.7908 6.08504 13.964 5.59211C13.3606 5.48687 12.1482 5.48868 11.5554 5.59571ZM12.4271 7.47222C12.2348 7.55044 10.7995 9.07445 10.4401 9.58214C9.9892 10.219 9.59773 11.0286 9.41006 11.7122C9.27525 12.2033 9.26032 12.345 9.26349 13.1062C9.26666 13.8673 9.28383 14.0176 9.43214 14.5822C9.68355 15.5392 10.3397 16.9137 10.8275 17.5055C11.1162 17.8558 11.6334 17.7953 11.8263 17.3887C11.9468 17.1347 11.9157 17.0357 11.4944 16.3341C10.1721 14.132 10.0938 12.3011 11.2475 10.5591C11.4249 10.2913 11.6829 9.94103 11.8209 9.78069L12.0717 9.48927V14.1185V18.7478L12.2576 18.9337C12.5078 19.1839 12.8071 19.1937 13.0685 18.9601L13.2471 18.8006L13.2627 14.7097L13.2783 10.6189L13.7418 11.3295C14.59 12.6302 14.8757 13.3016 14.8694 13.9796C14.8636 14.5863 14.7093 14.8995 13.9575 15.8302C13.6521 16.2082 13.711 16.5979 14.1044 16.8014C14.3799 16.9439 14.6097 16.8637 14.9528 16.5054C15.7827 15.6388 16.1914 14.6152 16.0897 13.6583C15.9994 12.8083 15.6464 12.0319 14.6815 10.5611C13.9186 9.39797 13.5868 8.81134 13.4055 8.30452C13.323 8.07404 13.2358 7.83017 13.2117 7.7625C13.1224 7.51234 12.7066 7.35851 12.4271 7.47222ZM1.22902 11.6331C1.0132 11.8029 0.938467 12.1121 1.05425 12.3561C1.19775 12.6585 1.39658 12.7235 2.177 12.7235C2.95743 12.7235 3.15625 12.6585 3.29976 12.3561C3.41554 12.1121 3.34081 11.8029 3.12498 11.6331C2.9957 11.5314 2.90648 11.5209 2.177 11.5209C1.44753 11.5209 1.35831 11.5314 1.22902 11.6331ZM22.2212 11.6331C22.0053 11.8029 21.9306 12.1121 22.0464 12.3561C22.1899 12.6585 22.3887 12.7235 23.1691 12.7235C23.9496 12.7235 24.1484 12.6585 24.2919 12.3561C24.4077 12.1121 24.333 11.8029 24.1171 11.6331C23.9878 11.5314 23.8986 11.5209 23.1691 11.5209C22.4397 11.5209 22.3505 11.5314 22.2212 11.6331ZM5.42969 18.5707C5.36956 18.5958 5.08048 18.8614 4.78736 19.161C4.28256 19.6767 4.25435 19.7179 4.25435 19.9374C4.25435 20.1298 4.28715 20.202 4.44716 20.362C4.62488 20.5397 4.6596 20.5526 4.89106 20.5265C5.11946 20.5007 5.18642 20.4544 5.63152 20.0139C6.29125 19.3609 6.37314 19.1907 6.1941 18.8444C6.05618 18.5777 5.71019 18.4538 5.42969 18.5707ZM19.3842 18.6008C19.2194 18.6935 19.0691 18.941 19.0691 19.1196C19.0691 19.3188 19.2111 19.5156 19.7146 20.0139C20.1597 20.4544 20.2267 20.5007 20.4551 20.5265C20.6866 20.5526 20.7213 20.5397 20.899 20.362C21.0593 20.2017 21.0918 20.1299 21.0918 19.9364C21.0918 19.7144 21.0657 19.6771 20.5297 19.1347C20.0367 18.6356 19.941 18.5627 19.7507 18.5412C19.6152 18.5259 19.4776 18.5483 19.3842 18.6008ZM9.77572 22.5909V24.3129H12.6731H15.5704V22.5909V20.8689H12.6731H9.77572V22.5909ZM11.3611 25.5913C11.3611 25.6428 11.5074 25.9393 11.6013 26.0782C11.6581 26.1621 11.8179 26.2973 11.9565 26.3787C12.4086 26.6441 13.07 26.5466 13.4184 26.1633C13.5451 26.0238 13.7118 25.7196 13.7118 25.6277C13.7118 25.5894 13.3206 25.5703 12.5364 25.5703C11.89 25.5703 11.3611 25.5797 11.3611 25.5913Z" fill="#4F4281" stroke="#4F4281" stroke-width="0.25445"/>
</svg>