<svg xmlns="http://www.w3.org/2000/svg" width="21" height="24" viewBox="0 0 21 24" fill="none">
  <path d="M1.3927 17.0888C1.3927 18.084 1.83375 18.9774 2.52359 19.5994V21.6124C2.52359 22.2344 3.03249 22.7433 3.65448 22.7433H4.78537C5.40736 22.7433 5.91626 22.2344 5.91626 21.6124V20.4815H14.9634V21.6124C14.9634 22.2344 15.4723 22.7433 16.0943 22.7433H17.2252C17.8472 22.7433 18.3561 22.2344 18.3561 21.6124V19.5994C19.0459 18.9774 19.4869 18.084 19.4869 17.0888V5.77991C19.4869 1.82179 15.4384 1.25635 10.4398 1.25635C5.44129 1.25635 1.3927 1.82179 1.3927 5.77991V17.0888ZM5.35082 18.2197C4.41218 18.2197 3.65448 17.462 3.65448 16.5234C3.65448 15.5847 4.41218 14.827 5.35082 14.827C6.28945 14.827 7.04715 15.5847 7.04715 16.5234C7.04715 17.462 6.28945 18.2197 5.35082 18.2197ZM15.5288 18.2197C14.5902 18.2197 13.8325 17.462 13.8325 16.5234C13.8325 15.5847 14.5902 14.827 15.5288 14.827C16.4675 14.827 17.2252 15.5847 17.2252 16.5234C17.2252 17.462 16.4675 18.2197 15.5288 18.2197ZM17.2252 11.4344H3.65448V5.77991H17.2252V11.4344Z" stroke="#4F4281" stroke-width="1.69634"/>
</svg>