<svg fill="none" height="63" viewBox="0 0 59 63" width="59" xmlns="http://www.w3.org/2000/svg">
                            <path class="icon-3 path" d="M27.13 36.48a4.736 4.736 0 0 1-5.929 0l-10.438-8.904a3.2 3.2 0 0 1-1.24-2.521 3.18 3.18 0 0 1 1.24-2.522 4.736 4.736 0 0 1 5.929 0l7.41 6.371L42.266 13.63a4.735 4.735 0 0 1 5.929 0 3.22 3.22 0 0 1 1.226 2.522 3.201 3.201 0 0 1-1.226 2.521L27.13 36.48z" fill="#81A0EC" style="opacity: 1; visibility: inherit;">
                            </path>
                            <path class="icon-3 path" d="M27.8 14.648a2.868 2.868 0 0 1-3.608 0L17.84 9.189a1.958 1.958 0 0 1-.555-2.406c.13-.268.32-.503.555-.686a2.868 2.868 0 0 1 3.608 0l4.51 3.907L37.01.639a2.868 2.868 0 0 1 3.608 0 1.971 1.971 0 0 1 .55 2.404c-.13.268-.317.503-.55.688L27.8 14.648z" fill="url(#szek11z33a)" style="opacity: 1; visibility: inherit;">
                            </path>
                            <path class="icon-3 path" d="M23.974 61.403a4.735 4.735 0 0 1-5.93 0L1.24 47.167A3.2 3.2 0 0 1 0 44.645a3.18 3.18 0 0 1 1.24-2.521 4.756 4.756 0 0 1 5.95 0l13.694 11.725 30.75-25.962a4.672 4.672 0 0 1 5.93 0 3.179 3.179 0 0 1 1.239 2.511 3.16 3.16 0 0 1-1.24 2.511l-33.59 28.494z" fill="#1D4BDC" style="opacity: 1; visibility: inherit;">
                            </path>
                            <defs>
                                <linearGradient gradientUnits="userSpaceOnUse" id="szek11z33a" x1="40.999" x2="17.086" y1="12.569" y2="12.569">
                                    <stop offset=".328" stop-color="#88A9FF">
                                    </stop>
                                    <stop offset="1" stop-color="#86FFDB">
                                    </stop>
                                </linearGradient>
                            </defs>
                        </svg>