<svg width="111" height="94" viewBox="0 0 111 94" fill="none" xmlns="http://www.w3.org/2000/svg">
    <circle cx="46" cy="48" r="46" fill="#E9FFF4"/>
    <path d="M80.82 24.123H66.554a2.038 2.038 0 0 0-2.038 2.037v42.801a2.04 2.04 0 0 0 2.038 2.04H80.82a2.038 2.038 0 0 0 2.038-2.04v-42.8a2.039 2.039 0 0 0-2.038-2.038zm-2.038 42.8h-10.19V28.2h10.19v38.725zM53.305 39.408H39.04A2.039 2.039 0 0 0 37 41.446v27.515A2.038 2.038 0 0 0 39.039 71h14.266a2.036 2.036 0 0 0 2.038-2.039V41.446a2.036 2.036 0 0 0-2.038-2.038zm-2.038 27.515h-10.19V43.484h10.19v23.44z" fill="#1D4BDC"/>
    <path d="M108.334 6.798H94.067a2.037 2.037 0 0 0-2.038 2.038v60.125A2.038 2.038 0 0 0 94.067 71h14.267a2.036 2.036 0 0 0 2.039-2.039V8.836c0-.54-.215-1.059-.598-1.44a2.036 2.036 0 0 0-1.441-.598zm-2.038 60.125h-10.19V10.875h10.19v56.048z" fill="#81A0EC"/>
    <path d="M84.022.47 70.499 0a2.04 2.04 0 1 0-.143 4.076l8.153.275-16.306 13.31a2.038 2.038 0 1 0 2.578 3.159L81.087 7.51l-1.356 7.99a2.038 2.038 0 0 0 1.662 2.354c.115.01.23.01.346 0a2.038 2.038 0 0 0 2.038-1.702l2.273-13.34A2.037 2.037 0 0 0 84.103.44l-.081.03z" fill="url(#yp2poqjjja)"/>
    <defs>
        <linearGradient id="yp2poqjjja" x1="85.707" y1="17.496" x2="61.453" y2="17.496" gradientUnits="userSpaceOnUse">
            <stop offset=".328" stop-color="#88A9FF"/>
            <stop offset="1" stop-color="#86FFDB"/>
        </linearGradient>
    </defs>
</svg>
