<svg width="479" height="620" viewBox="0 0 479 620" fill="none" xmlns="http://www.w3.org/2000/svg">
<g opacity="0.8">
<path d="M367.205 208.266C469.097 93.991 573.946 75.416 580.685 225.879C587.424 376.342 333.058 756.54 246.331 568.871C159.604 381.203 -23.855 370.934 3.69801 289.544C51.41 188.838 226.534 366.035 367.205 208.266Z" fill="url(#paint0_linear_1_21)" fill-opacity="0.6"/>
<path style="mix-blend-mode:screen" d="M353.124 378.776C298.694 525.918 167.157 461.463 122.953 359.217C61.476 217.017 217.614 -94.578 342.555 28.725C493.244 177.438 502.899 67.03 560.634 147.656C586.991 254.201 428.268 175.632 353.124 378.776Z" fill="url(#paint1_linear_1_21)" fill-opacity="0.9"/>
</g>
<defs>
<linearGradient id="paint0_linear_1_21" x1="223.798" y1="354.195" x2="522.691" y2="264.807" gradientUnits="userSpaceOnUse">
<stop stop-color="#5DE29B"/>
<stop offset="1" stop-color="#2353FF"/>
</linearGradient>
<linearGradient id="paint1_linear_1_21" x1="151.998" y1="268.84" x2="581.596" y2="185.516" gradientUnits="userSpaceOnUse">
<stop stop-color="#01DC59"/>
<stop offset="1" stop-color="#2353FF"/>
</linearGradient>
</defs>
</svg>
