<svg width="72" height="70" viewBox="0 0 72 70" fill="none" xmlns="http://www.w3.org/2000/svg">
<mask id="mask0_4185_16" style="mask-type:alpha" maskUnits="userSpaceOnUse" x="0" y="0" width="72" height="70">
<path fill-rule="evenodd" clip-rule="evenodd" d="M9.64159 35.8087C9.64984 35.9125 9.65808 36.0345 9.67127 36.1549C9.69764 36.5769 9.73721 37.116 9.78996 37.6682L2.22806 43.8371C-1.48118 30.5267 3.05234 16.4547 13.9641 7.70584C28.9708 -4.31539 51.0614 -2.01401 63.2228 12.8098C63.6877 13.3884 64.141 13.967 64.5663 14.5589C64.7246 14.7699 64.8713 14.9792 65.0049 15.1903C66.25 17.0044 67.3182 18.9338 68.1948 20.9519L36.9053 46.0445L35.6821 47.0172V43.4316C35.6821 43.2502 35.6524 40.3274 35.9623 39.0349C36.3927 37.3951 37.3331 35.9345 38.6478 34.8641L57.466 19.4534C57.1622 19.0214 56.8433 18.6002 56.5099 18.1906C54.323 15.5112 51.6289 13.2897 48.5819 11.6535C45.5348 10.0172 42.1949 8.99839 38.7533 8.65541C37.8216 8.56118 36.8857 8.51276 35.9492 8.51033C29.9243 8.50366 24.0787 10.5596 19.3845 14.3363C16.1606 16.9052 13.5954 20.2056 11.9018 23.9638C10.2779 27.582 9.49607 31.5215 9.61522 35.4856V35.5515C9.62346 35.5795 9.63335 35.6784 9.64159 35.8087ZM62.4117 34.5904L70.4006 28.0786C72.8602 40.6933 68.1948 53.4383 58.0529 61.5805C43.0462 73.6149 20.9441 71.3135 8.79424 56.4634C7.39695 54.7549 6.16388 52.9186 5.11138 50.9786L5.68342 50.517C5.68342 50.5121 5.68013 50.5055 5.67683 50.4989C5.67353 50.4923 5.67024 50.4857 5.67024 50.4791L38.3148 24.3051V27.8907C38.3165 28.0753 38.3461 30.9966 38.0346 32.289C37.6042 33.9289 36.6638 35.3895 35.3491 36.4599L16.5177 51.8853L16.3199 52.0172C20.6918 56.8969 26.6596 59.9336 33.267 60.6177C34.1968 60.71 35.1397 60.7628 36.0695 60.7628C42.0917 60.7628 47.8863 58.7367 52.6325 54.9368C58.8805 49.9384 62.4282 42.5331 62.415 34.5888L62.4117 34.5904Z" fill="#4DE191"/>
</mask>
<g mask="url(#mask0_4185_16)">
<path d="M72.0196 64.5444C86.6042 46.776 83.9759 20.7617 66.1489 6.43989C48.322 -7.88193 22.0472 -5.08789 7.46256 12.6805C-7.12211 30.449 -4.49374 56.4633 13.3332 70.7851C31.1601 85.1069 57.4349 82.3129 72.0196 64.5444Z" fill="url(#paint0_linear_4185_16)"/>
<path d="M31.2993 32.2163C14.9127 14.8736 13.5115 -1.60532 37.0973 -0.568387C60.6847 0.4702 116.412 45.0767 85.8729 55.9011C55.3352 66.7254 51.1116 94.9668 38.7986 89.5776C23.7572 80.8041 53.9224 56.1615 31.2993 32.2163Z" fill="url(#paint1_linear_4185_16)" fill-opacity="0.6"/>
<path style="mix-blend-mode:screen" d="M57.7175 35.6505C79.9465 46.0908 67.9879 65.5222 51.3673 70.941C28.2529 78.4765 -18.2378 50.0539 2.82899 32.4523C28.2381 11.2239 11.113 8.20707 24.5453 0.401188C41.5831 -2.20022 27.0264 21.2372 57.7175 35.6505Z" fill="url(#paint2_linear_4185_16)" fill-opacity="0.9"/>
</g>
<defs>
<linearGradient id="paint0_linear_4185_16" x1="130.705" y1="58.3027" x2="72.8284" y2="10.0762" gradientUnits="userSpaceOnUse">
<stop stop-color="#11055F"/>
<stop offset="1" stop-color="#1238C0"/>
</linearGradient>
<linearGradient id="paint1_linear_4185_16" x1="52.0348" y1="56.4203" x2="42.427" y2="8.92561" gradientUnits="userSpaceOnUse">
<stop stop-color="#5DE29B"/>
<stop offset="1" stop-color="#2353FF"/>
</linearGradient>
<linearGradient id="paint2_linear_4185_16" x1="37.6513" y1="65.2057" x2="30.7917" y2="-2.31892" gradientUnits="userSpaceOnUse">
<stop stop-color="#01DC59"/>
<stop offset="1" stop-color="#2353FF"/>
</linearGradient>
</defs>
</svg>
