<svg width="36" height="41" viewBox="0 0 36 41" fill="none" xmlns="http://www.w3.org/2000/svg">
<path d="M35.0669 31.3857C34.8688 30.7313 34.4237 30.1809 33.8269 29.8523C33.2301 29.5236 32.529 29.4427 31.8737 29.627L25.1833 30.9332C24.6955 30.1155 23.7583 29.5598 22.6842 29.5598H19.354H19.298L19.2287 29.5724C19.1493 29.5808 18.1429 29.6765 16.4431 29.0545C15.3573 28.6574 14.674 28.3963 14.1762 28.2057C13.7435 28.0379 13.457 27.9304 13.1839 27.8389C12.6502 27.6601 10.3039 27.6181 8.64428 27.6114C8.59386 27.1879 8.39091 26.7977 8.07374 26.5143C7.75658 26.231 7.34716 26.0742 6.92281 26.0735H0.893066V27.7214H3.9994V37.089H0.893066V38.742H6.92281C7.27637 38.741 7.62121 38.6315 7.91122 38.4283C8.20123 38.225 8.42259 37.9376 8.54572 37.6045C9.73011 37.6607 10.3833 37.9999 10.4459 38.0318L10.5011 38.067L16.1625 40.1187C17.7336 40.6795 18.9096 40.8222 19.6981 40.8222C20.4214 40.8222 20.8199 40.7021 20.9 40.6753L20.956 40.6568L25.5683 38.339L33.393 34.6185C34.0352 34.4039 34.5689 33.9463 34.8808 33.3427C35.1927 32.7391 35.2583 32.0371 35.0635 31.3857H35.0669ZM7.01385 36.9975C7.01322 37.0216 7.00342 37.0445 6.98648 37.0615C6.96954 37.0786 6.94675 37.0884 6.92281 37.089H5.64319V27.7214H6.92281C6.9469 27.722 6.96981 27.732 6.98677 27.7492C7.00373 27.7664 7.01343 27.7895 7.01385 27.8137V36.9975ZM32.8518 33.0571L32.7933 33.0747L24.8542 36.8523L20.3488 39.1189C20.1082 39.1693 18.9071 39.3514 16.7146 38.569L11.2018 36.5711C10.9304 36.4267 10.0659 36.033 8.65346 35.9616V29.2618C10.415 29.271 12.3136 29.3256 12.6727 29.4087C12.91 29.4885 13.1806 29.5917 13.5865 29.7445C14.0877 29.9376 14.7784 30.2012 15.8768 30.6024C17.8288 31.316 19.0683 31.248 19.4016 31.2102H22.68C23.3373 31.2102 23.8928 31.6728 23.8928 32.2176C23.8928 32.7624 23.3373 33.225 22.68 33.225H19.3623L17.3343 33.1805C17.0612 33.1486 16.1257 33.0965 15.4416 33.7127C15.1142 34.009 14.735 34.5664 14.7859 35.536L16.4281 35.4521C16.4205 35.3085 16.4281 35.0516 16.5408 34.9484C16.6837 34.8158 17.0203 34.8099 17.1439 34.8275L17.1898 34.8359L19.3356 34.8838H22.6842C24.1409 34.8838 25.3445 33.8638 25.519 32.55L32.2237 31.2472L32.3072 31.227C32.4297 31.1797 32.5606 31.1584 32.6918 31.1643C32.8229 31.1703 32.9514 31.2034 33.0692 31.2616C33.187 31.3197 33.2915 31.4018 33.3763 31.5024C33.4611 31.6031 33.5243 31.7204 33.5619 31.8467C33.5995 31.9731 33.6107 32.1059 33.5949 32.2369C33.579 32.3678 33.5364 32.4941 33.4697 32.6077C33.4031 32.7213 33.3138 32.8199 33.2074 32.8972C33.1011 32.9746 32.98 33.029 32.8518 33.0571Z" fill="url(#paint0_linear_393_316)"/>
<path d="M14.5429 14.9615C14.735 15.8723 15.0891 16.465 15.4976 17.15L15.5034 17.1609C15.5661 17.2818 15.6337 17.3951 15.6997 17.5043C15.7365 17.5655 15.7749 17.6293 15.8125 17.6957L15.8292 17.7242C15.8776 17.8014 15.9219 17.8795 15.9653 17.955C16.0438 18.0927 16.1249 18.2338 16.2243 18.3748L16.2418 18.4042C16.743 19.2352 16.9718 19.6147 16.9718 20.4416V23.0439C16.9719 23.4523 17.0881 23.8522 17.3069 24.1964C17.5256 24.5406 17.8377 24.8147 18.2063 24.9865C18.6749 26.5689 19.8217 27.4696 21.4029 27.4696C22.984 27.4696 24.1592 26.5504 24.6061 24.9831C24.9737 24.8105 25.2847 24.536 25.5025 24.1919C25.7203 23.8478 25.8359 23.4484 25.8356 23.0406V20.4382C25.8356 19.6071 26.0536 19.2227 26.5923 18.3572L26.609 18.3286C26.7109 18.149 26.8471 17.9315 26.9782 17.72L26.9949 17.6923C27.0325 17.6251 27.0709 17.5622 27.1077 17.5009C27.1737 17.3909 27.2413 17.2776 27.304 17.1559L27.3098 17.1458C27.7183 16.4608 28.0724 15.8681 28.2645 14.9573C28.4115 14.4063 28.484 13.8379 28.48 13.2674C28.4598 11.3949 27.7055 9.60602 26.3808 8.28909C25.0562 6.97217 23.2682 6.23352 21.405 6.23352C19.5417 6.23352 17.7537 6.97217 16.4291 8.28909C15.1045 9.60602 14.3501 11.3949 14.3299 13.2674C14.3243 13.8392 14.396 14.4091 14.5429 14.9615ZM18.6164 20.7497H24.1885V21.3927H18.6164V20.7497ZM21.402 25.8176C21.1623 25.8176 20.576 25.8175 20.1391 25.2492H22.6775C22.3826 25.6228 21.9575 25.8134 21.402 25.8134V25.8176ZM23.7683 23.5241L23.4008 23.5887H19.4041L19.0366 23.5241C18.9201 23.5078 18.8136 23.4495 18.7367 23.3601C18.6599 23.2707 18.618 23.1562 18.6189 23.0381H24.191C24.1885 23.1553 24.1455 23.2679 24.0692 23.3567C23.993 23.4454 23.8884 23.5046 23.7733 23.5241H23.7683ZM21.402 7.80918C22.8413 7.81118 24.2211 8.38671 25.2389 9.40958C26.2566 10.4325 26.8292 11.8192 26.8312 13.2658C26.8361 13.6965 26.7821 14.1258 26.6709 14.5418L26.6575 14.5955C26.523 15.2477 26.2875 15.6415 25.8974 16.2954L25.8456 16.3869C25.8089 16.4608 25.7571 16.5473 25.6969 16.6463C25.6568 16.7143 25.6134 16.784 25.5725 16.8579C25.4388 17.0728 25.301 17.2944 25.1866 17.4942C24.8525 18.0356 24.5585 18.5108 24.3781 19.0934H18.4243C18.2523 18.5494 17.9775 18.091 17.6475 17.5445L17.6158 17.4908L17.5816 17.4396C17.5206 17.3557 17.4571 17.2432 17.3903 17.1265C17.3402 17.0383 17.2884 16.9485 17.2324 16.8587C17.1907 16.7848 17.1489 16.7143 17.1071 16.6472C17.0478 16.5473 16.996 16.4616 16.9593 16.3878L16.9075 16.2962C16.5174 15.6423 16.2819 15.2477 16.1474 14.5963L16.1349 14.5426C16.0225 14.1274 15.9677 13.6986 15.972 13.2683C15.974 11.8217 16.5466 10.435 17.5644 9.4121C18.5821 8.38923 19.9619 7.8137 21.4012 7.8117L21.402 7.80918Z" fill="url(#paint1_linear_393_316)"/>
<path d="M21.3568 5.04565C21.465 5.04565 21.5722 5.02418 21.6721 4.98246C21.772 4.94073 21.8628 4.87959 21.9392 4.80253C22.0155 4.72546 22.076 4.63401 22.1171 4.5334C22.1582 4.43279 22.1791 4.32501 22.1787 4.21625V1.64831C22.1787 1.42923 22.0921 1.21912 21.938 1.06421C21.7838 0.909295 21.5748 0.822266 21.3568 0.822266C21.1388 0.822266 20.9298 0.909295 20.7756 1.06421C20.6215 1.21912 20.5349 1.42923 20.5349 1.64831V4.21625C20.5345 4.32501 20.5554 4.43279 20.5965 4.5334C20.6376 4.63401 20.6981 4.72546 20.7745 4.80253C20.8508 4.87959 20.9416 4.94073 21.0415 4.98246C21.1414 5.02418 21.2486 5.04565 21.3568 5.04565Z" fill="url(#paint2_linear_393_316)"/>
<path d="M27.9028 7.74211C28.0114 7.74273 28.1189 7.72168 28.2193 7.68018C28.3197 7.63868 28.4108 7.57755 28.4875 7.50034L30.2583 5.72065C30.3346 5.64376 30.3951 5.55251 30.4364 5.45211C30.4776 5.3517 30.4988 5.24412 30.4987 5.13549C30.4986 5.02686 30.4772 4.91933 30.4357 4.81901C30.3942 4.7187 30.3335 4.62758 30.257 4.55085C30.1805 4.47412 30.0897 4.41329 29.9898 4.37183C29.8899 4.33037 29.7829 4.30909 29.6748 4.3092C29.5667 4.30932 29.4597 4.33083 29.3599 4.37251C29.2601 4.41419 29.1694 4.47522 29.0931 4.55211L27.3223 6.33179C27.2071 6.44752 27.1287 6.59504 27.0971 6.75564C27.0654 6.91624 27.082 7.08266 27.1446 7.23378C27.2073 7.3849 27.3132 7.5139 27.4489 7.60441C27.5847 7.69491 27.7441 7.74284 27.907 7.74211H27.9028Z" fill="url(#paint3_linear_393_316)"/>
<path d="M14.2613 19.457L12.4906 21.2367C12.3364 21.3916 12.2498 21.6018 12.2498 21.8209C12.2498 22.0401 12.3364 22.2503 12.4906 22.4052C12.6447 22.5602 12.8539 22.6472 13.0719 22.6472C13.2899 22.6472 13.4991 22.5602 13.6532 22.4052L15.424 20.6255C15.5782 20.4706 15.6648 20.2604 15.6648 20.0413C15.6648 19.8221 15.5782 19.6119 15.424 19.457C15.2698 19.302 15.0607 19.215 14.8426 19.215C14.6246 19.215 14.4155 19.302 14.2613 19.457Z" fill="url(#paint4_linear_393_316)"/>
<path d="M29.7612 13.4923C29.7612 13.7114 29.8478 13.9215 30.002 14.0764C30.1561 14.2313 30.3651 14.3183 30.5831 14.3183H33.1415C33.3595 14.3183 33.5686 14.2313 33.7227 14.0764C33.8768 13.9215 33.9634 13.7114 33.9634 13.4923C33.9634 13.2732 33.8768 13.0631 33.7227 12.9082C33.5686 12.7533 33.3595 12.6663 33.1415 12.6663H30.5831C30.3651 12.6663 30.1561 12.7533 30.002 12.9082C29.8478 13.0631 29.7612 13.2732 29.7612 13.4923Z" fill="url(#paint5_linear_393_316)"/>
<path d="M9.66322 14.3183H12.1297C12.3433 14.3115 12.5458 14.2214 12.6945 14.0672C12.8431 13.9129 12.9263 13.7066 12.9263 13.4919C12.9263 13.2771 12.8431 13.0708 12.6945 12.9166C12.5458 12.7623 12.3433 12.6722 12.1297 12.6654H9.66322C9.44966 12.6722 9.24713 12.7623 9.09848 12.9166C8.94982 13.0708 8.8667 13.2771 8.8667 13.4919C8.8667 13.7066 8.94982 13.9129 9.09848 14.0672C9.24713 14.2214 9.44966 14.3115 9.66322 14.3183Z" fill="url(#paint6_linear_393_316)"/>
<path d="M27.3215 19.4569C27.1675 19.6119 27.0809 19.822 27.0809 20.0411C27.0809 20.2602 27.1675 20.4704 27.3215 20.6254L29.0922 22.4051C29.1686 22.4818 29.2592 22.5427 29.359 22.5842C29.4587 22.6257 29.5656 22.6471 29.6736 22.6471C29.7815 22.6471 29.8885 22.6257 29.9882 22.5842C30.0879 22.5427 30.1786 22.4818 30.2549 22.4051C30.3313 22.3284 30.3918 22.2373 30.4331 22.137C30.4745 22.0368 30.4957 21.9293 30.4957 21.8208C30.4957 21.7123 30.4745 21.6049 30.4331 21.5046C30.3918 21.4044 30.3313 21.3133 30.2549 21.2365L28.4842 19.4569C28.3299 19.302 28.1208 19.2151 27.9028 19.2151C27.6848 19.2151 27.4757 19.302 27.3215 19.4569Z" fill="url(#paint7_linear_393_316)"/>
<path d="M14.2613 7.49934C14.4155 7.6543 14.6246 7.74135 14.8426 7.74135C15.0607 7.74135 15.2698 7.6543 15.424 7.49934C15.5782 7.34438 15.6648 7.13421 15.6648 6.91507C15.6648 6.69592 15.5782 6.48575 15.424 6.33079L13.6532 4.55195C13.5769 4.47522 13.4863 4.41436 13.3865 4.37283C13.2868 4.33131 13.1799 4.30994 13.0719 4.30994C12.9639 4.30994 12.857 4.33131 12.7573 4.37283C12.6575 4.41436 12.5669 4.47522 12.4906 4.55195C12.4142 4.62868 12.3537 4.71977 12.3123 4.82002C12.271 4.92027 12.2498 5.02771 12.2498 5.13622C12.2498 5.24473 12.271 5.35218 12.3123 5.45243C12.3537 5.55268 12.4142 5.64377 12.4906 5.7205L14.2613 7.49934Z" fill="url(#paint8_linear_393_316)"/>
<defs>
<linearGradient id="paint0_linear_393_316" x1="34.6571" y1="38.2002" x2="0.893066" y2="38.2002" gradientUnits="userSpaceOnUse">
<stop stop-color="#716EF8"/>
<stop offset="0.489583" stop-color="#40ABE7"/>
<stop offset="1" stop-color="#40C9E7"/>
</linearGradient>
<linearGradient id="paint1_linear_393_316" x1="28.267" y1="23.6943" x2="14.3296" y2="23.6943" gradientUnits="userSpaceOnUse">
<stop stop-color="#716EF8"/>
<stop offset="0.489583" stop-color="#40ABE7"/>
<stop offset="1" stop-color="#40C9E7"/>
</linearGradient>
<linearGradient id="paint2_linear_393_316" x1="22.154" y1="4.29483" x2="20.5349" y2="4.29483" gradientUnits="userSpaceOnUse">
<stop stop-color="#716EF8"/>
<stop offset="0.489583" stop-color="#40ABE7"/>
<stop offset="1" stop-color="#40C9E7"/>
</linearGradient>
<linearGradient id="paint3_linear_393_316" x1="30.4472" y1="7.13182" x2="27.0814" y2="7.13182" gradientUnits="userSpaceOnUse">
<stop stop-color="#716EF8"/>
<stop offset="0.489583" stop-color="#40ABE7"/>
<stop offset="1" stop-color="#40C9E7"/>
</linearGradient>
<linearGradient id="paint4_linear_393_316" x1="15.6133" y1="22.037" x2="12.2498" y2="22.037" gradientUnits="userSpaceOnUse">
<stop stop-color="#716EF8"/>
<stop offset="0.489583" stop-color="#40ABE7"/>
<stop offset="1" stop-color="#40C9E7"/>
</linearGradient>
<linearGradient id="paint5_linear_393_316" x1="33.9001" y1="14.0246" x2="29.7612" y2="14.0246" gradientUnits="userSpaceOnUse">
<stop stop-color="#716EF8"/>
<stop offset="0.489583" stop-color="#40ABE7"/>
<stop offset="1" stop-color="#40C9E7"/>
</linearGradient>
<linearGradient id="paint6_linear_393_316" x1="12.8651" y1="14.0245" x2="8.8667" y2="14.0245" gradientUnits="userSpaceOnUse">
<stop stop-color="#716EF8"/>
<stop offset="0.489583" stop-color="#40ABE7"/>
<stop offset="1" stop-color="#40C9E7"/>
</linearGradient>
<linearGradient id="paint7_linear_393_316" x1="30.4443" y1="22.037" x2="27.0809" y2="22.037" gradientUnits="userSpaceOnUse">
<stop stop-color="#716EF8"/>
<stop offset="0.489583" stop-color="#40ABE7"/>
<stop offset="1" stop-color="#40C9E7"/>
</linearGradient>
<linearGradient id="paint8_linear_393_316" x1="15.6133" y1="7.13132" x2="12.2498" y2="7.13132" gradientUnits="userSpaceOnUse">
<stop stop-color="#716EF8"/>
<stop offset="0.489583" stop-color="#40ABE7"/>
<stop offset="1" stop-color="#40C9E7"/>
</linearGradient>
</defs>
</svg>
