<svg fill="none" height="92" viewBox="0 0 67 92" width="67" xmlns="http://www.w3.org/2000/svg">
                            <path class="icon-2 path" d="M56.9 9.829A33.542 33.542 0 0 0 33.344 0a33.518 33.518 0 0 0-23.6 9.774A33.121 33.121 0 0 0 0 33.27c0 24.375 23.16 49.979 33.344 49.979 10.184 0 33.319-25.628 33.319-49.979a32.904 32.904 0 0 0-2.53-12.688A33.063 33.063 0 0 0 56.9 9.829zm-23.556 67.35c-5.76 0-27.19-22.335-27.19-43.934a26.948 26.948 0 0 1 7.964-19.112 27.27 27.27 0 0 1 19.226-7.916 27.271 27.271 0 0 1 19.225 7.916 26.948 26.948 0 0 1 7.964 19.112c.05 21.599-21.43 43.935-27.19 43.935z" fill="#81A0EC" style="opacity: 1; visibility: inherit;">
                            </path>
                            <path class="icon-2 path" d="M42.504 23.738a13.024 13.024 0 0 0-6.668-3.58 13.073 13.073 0 0 0-7.543.723 12.986 12.986 0 0 0-5.855 4.782 12.87 12.87 0 0 0-2.18 7.216 12.855 12.855 0 0 0 .822 5.116 12.915 12.915 0 0 0 2.776 4.385 13.003 13.003 0 0 0 4.285 2.948 13.068 13.068 0 0 0 10.212 0 13.003 13.003 0 0 0 4.286-2.948 12.913 12.913 0 0 0 2.776-4.385c.619-1.633.898-3.373.822-5.116a12.761 12.761 0 0 0-.947-4.942 12.821 12.821 0 0 0-2.786-4.199zm-4.3 13.981a6.91 6.91 0 0 1-3.547 1.874 6.935 6.935 0 0 1-3.995-.408 6.886 6.886 0 0 1-3.089-2.55 6.826 6.826 0 0 1-1.135-3.83 6.721 6.721 0 0 1 .507-2.663 6.753 6.753 0 0 1 1.52-2.251 6.908 6.908 0 0 1 9.739 0 6.753 6.753 0 0 1 1.519 2.25c.348.845.52 1.751.507 2.664a6.957 6.957 0 0 1-2.027 4.914z" fill="#1D4BDC" style="opacity: 1; visibility: inherit;">
                            </path>
                            <path class="icon-2 path" d="M41.256 86.32H25.935a2.87 2.87 0 0 0-2.465 1.42 2.75 2.75 0 0 0 0 2.84A2.87 2.87 0 0 0 25.934 92h15.321c.758 0 1.485-.3 2.02-.832a2.831 2.831 0 0 0 0-4.016 2.866 2.866 0 0 0-2.02-.832z" fill="url(#8thd5pne5a)" style="opacity: 1; visibility: inherit;">
                            </path>
                            <defs>
                                <linearGradient gradientUnits="userSpaceOnUse" id="8thd5pne5a" x1="43.796" x2="23.074" y1="90.99" y2="90.99">
                                    <stop offset=".328" stop-color="#88A9FF">
                                    </stop>
                                    <stop offset="1" stop-color="#86FFDB">
                                    </stop>
                                </linearGradient>
                            </defs>
                        </svg>