<svg fill="none" height="80" viewBox="0 0 88 80" width="88" xmlns="http://www.w3.org/2000/svg">
                            <path class="icon-1 path" d="M41.358 48.916a3.104 3.104 0 0 1-.924 2.188 3.14 3.14 0 0 1-2.207.904H2.873a3.138 3.138 0 0 1-2.045-.994 3.102 3.102 0 0 1 0-4.216 3.138 3.138 0 0 1 2.045-.994h35.376c.83 0 1.626.328 2.213.912.588.584.917 1.375.917 2.2h-.02z" fill="#81A0EC" style="opacity: 1; visibility: inherit;">
                            </path>
                            <path class="icon-1 path" d="M38.241 58.213H12.215a3.12 3.12 0 0 0-2.199.905 3.082 3.082 0 0 0 0 4.372c.583.58 1.374.905 2.199.905h26.026c.825 0 1.616-.325 2.199-.905a3.082 3.082 0 0 0 0-4.372 3.12 3.12 0 0 0-2.199-.905z" fill="#1D4BDC" style="opacity: 1; visibility: inherit;">
                            </path>
                            <path class="icon-1 path" d="M38.255 70.598H21.579a3.125 3.125 0 0 0-1.55.417c-.47.27-.862.66-1.134 1.129a2.993 2.993 0 0 0 0 3.09 3.1 3.1 0 0 0 1.134 1.13c.471.271 1.005.415 1.55.416h16.676a3.12 3.12 0 0 0 2.199-.905 3.082 3.082 0 0 0 0-4.371 3.12 3.12 0 0 0-2.2-.906z" fill="url(#7sgklgamja)" style="opacity: 1; visibility: inherit;">
                            </path>
                            <path class="icon-1 path" d="m54.77 48.093 12.523-12.45a3.107 3.107 0 0 0 .766-2.964 3.086 3.086 0 0 0-.796-1.38 3.113 3.113 0 0 0-2.983-.818 3.114 3.114 0 0 0-1.396.78L50.36 43.753a3.126 3.126 0 0 0-.959 2.117c.003.831.332 1.629.916 2.223.568.561 1.33.887 2.13.91a3.04 3.04 0 0 0 2.13-.952l.191.042z" fill="#1D4BDC" style="opacity: 1; visibility: inherit;">
                            </path>
                            <path class="icon-1 path" d="M55.678 11.994v-5.78h2.96a3.148 3.148 0 0 0 2.379-.812 3.114 3.114 0 0 0 1.01-2.29 3.098 3.098 0 0 0-1.01-2.29 3.135 3.135 0 0 0-2.379-.811H46.52a3.138 3.138 0 0 0-2.046.993 3.102 3.102 0 0 0 0 4.216c.533.575 1.263.93 2.046.994h2.939v5.78a34.18 34.18 0 0 0-19.488 8.279l-4.11-4.044a3.135 3.135 0 0 0-3.003-.805c-.504.15-.962.422-1.334.791a3.15 3.15 0 0 0-.796 1.326 3.094 3.094 0 0 0 .81 2.986l4.259 4.234a34.21 34.21 0 0 0-5.793 10.84 3.08 3.08 0 0 0 .207 2.362 3.111 3.111 0 0 0 1.827 1.523 3.132 3.132 0 0 0 2.375-.206 3.102 3.102 0 0 0 1.533-1.816A27.784 27.784 0 0 1 36.088 23.38a28.055 28.055 0 0 1 16.565-5.373c7.309.2 14.25 3.227 19.348 8.436a27.82 27.82 0 0 1 7.95 19.459A27.82 27.82 0 0 1 72 65.36a28.148 28.148 0 0 1-19.348 8.436h-1.725a3.141 3.141 0 0 0-2.21.821c-.6.55-.962 1.312-1.006 2.122a3.228 3.228 0 0 0 .83 2.245c.55.602 1.314.967 2.13 1.016h1.939a34.377 34.377 0 0 0 23.764-9.394A33.979 33.979 0 0 0 86.98 47.47a33.943 33.943 0 0 0-8.463-23.991 34.34 34.34 0 0 0-22.817-11.485h-.021z" fill="#81A0EC" style="opacity: 1; visibility: inherit;">
                            </path>
                            <defs>
                                <linearGradient gradientUnits="userSpaceOnUse" id="7sgklgamja" x1="41.019" x2="18.465" y1="75.681" y2="75.681">
                                    <stop offset=".328" stop-color="#88A9FF">
                                    </stop>
                                    <stop offset="1" stop-color="#86FFDB">
                                    </stop>
                                </linearGradient>
                            </defs>
                        </svg>