<svg xmlns="http://www.w3.org/2000/svg" width="37" height="33" viewBox="0 0 37 33" fill="none">
  <path fill-rule="evenodd" clip-rule="evenodd" d="M14.2641 13.1585C13.2253 10.8183 13.9027 8.63244 16.0755 7.31245C18.0618 6.10582 20.8089 6.63995 22.2942 8.52108C25.3044 12.3333 21.0388 17.3742 16.4968 15.3727C15.2307 14.8146 14.818 14.4055 14.2641 13.1585ZM19.4059 13.3596C16.8526 14.3268 14.8706 10.7206 17.2104 9.36461C18.2134 8.78314 19.3048 8.94818 20.1723 9.81272C21.4455 11.0807 21.0911 12.7214 19.4059 13.3596Z" fill="white"/>
  <path fill-rule="evenodd" clip-rule="evenodd" d="M2.47797 32.9996C3.52957 32.9999 4.62491 33 5.76579 33C31.1802 33 33.9952 32.9477 34.1783 32.4725C34.2901 32.1825 34.3814 28.4132 34.3814 24.0965C34.3814 17.2905 34.4457 16.3006 34.8651 16.6474C35.6074 17.2612 36.8748 16.9458 36.9937 16.1172C37.07 15.5835 36.4692 14.8746 34.5923 13.2832L32.0892 11.1614L32.0637 6.1435C32.0467 2.71567 31.9115 0.99892 31.637 0.725521C31.3893 0.478795 30.1744 0.325425 28.4692 0.325425C25.2495 0.325425 25.0102 0.532809 25.0102 3.32015V5.02523L22.0854 2.50862C20.4769 1.12462 18.8577 -0.00432194 18.4875 1.24393e-05C18.1077 0.00468024 15.2036 2.25689 11.8236 5.16793C9.26722 7.37001 7.05317 9.26136 6.17194 9.99841L1.38204 14.3L1.11866 14.3881C0.0701559 15.3636 -0.111008 15.742 0.0526995 16.2559C0.313755 17.0748 1.51227 17.2659 2.18465 16.596C2.49691 16.285 2.58627 17.8037 2.58627 23.431V30.6661H2.47797V32.9996ZM5.30928 13.8287L11.8547 8.25068C15.9366 4.77217 18.5528 2.76435 18.8058 2.91605C19.0287 3.05008 22.0975 5.62704 25.625 8.64277L32.0386 14.1261V30.6661H24.3409V24.3429C24.3409 18.4328 24.2987 17.9974 23.6936 17.6746C22.8512 17.2255 14.1165 17.2255 13.2741 17.6746C12.669 17.9974 12.6268 18.4328 12.6268 24.3429V30.6661H5.26376L5.30928 13.8287ZM28.4622 7.93593C27.7978 7.31412 27.6877 6.88401 27.6877 4.91287V2.61498L28.6081 2.72067C29.5255 2.8257 29.5288 2.8357 29.6252 5.7434C29.6784 7.34812 29.6128 8.66078 29.4793 8.66078C29.3461 8.66078 28.8882 8.3347 28.4622 7.93593ZM14.9697 30.6661V19.9969H21.9981V30.6661H14.9697Z" fill="white"/>
</svg>