<svg width="21" height="22" viewBox="0 0 21 22" fill="none" xmlns="http://www.w3.org/2000/svg">
<path fill-rule="evenodd" clip-rule="evenodd" d="M10.5 2.47754C5.66752 2.47754 1.75 6.39501 1.75 11.2275C1.75 16.06 5.66752 19.9775 10.5 19.9775C15.3325 19.9775 19.25 16.06 19.25 11.2275C19.25 6.39501 15.3325 2.47754 10.5 2.47754ZM10.5 18.2275C6.64021 18.2275 3.5 15.0873 3.5 11.2275C3.5 7.36775 6.64021 4.22754 10.5 4.22754C14.3598 4.22754 17.5 7.36775 17.5 11.2275C17.5 15.0873 14.3598 18.2275 10.5 18.2275ZM11.5957 7.72754C11.5957 8.36195 11.1338 8.82129 10.5089 8.82129C9.85874 8.82129 9.40817 8.36195 9.40817 7.7154C9.40817 7.094 9.87094 6.63379 10.5089 6.63379C11.1338 6.63379 11.5957 7.094 11.5957 7.72754ZM9.62692 10.3525H11.3769V15.6025H9.62692V10.3525Z" fill="#828282"/>
</svg>
