<svg width="64" height="65" viewBox="0 0 64 65" fill="none" xmlns="http://www.w3.org/2000/svg">
<path d="M44.9267 17.0598H36.4896V8.61943C36.4896 8.55281 36.4334 8.49707 36.368 8.49707C31.5802 8.49707 27.688 12.3914 27.688 17.1762C27.688 17.9462 27.8223 18.6796 28.0144 19.3909L32.9745 15.5334C33.3516 15.2359 33.9547 15.3076 34.255 15.6906C34.5696 16.0936 34.4978 16.6708 34.0957 16.9801L28.7012 21.1818C30.1498 23.9529 33.0312 25.8582 36.3682 25.8582C41.158 25.8582 45.0484 21.969 45.0484 17.1782C45.0483 17.1146 44.9967 17.0598 44.9267 17.0598Z" fill="white"/>
<path d="M45.0892 10.3011C45.0152 10.2151 44.9083 10.1645 44.7949 10.1617C44.6754 10.1589 44.5719 10.2045 44.494 10.2868L39.5966 15.4528C39.4862 15.5692 39.4559 15.7402 39.5191 15.8875C39.5824 16.0349 39.7274 16.1304 39.8879 16.1304H47.0287C47.0297 16.1304 47.0308 16.1306 47.0313 16.1304C47.253 16.1304 47.4327 15.9507 47.4327 15.729C47.4327 15.6983 47.4293 15.6685 47.4228 15.6398C47.2017 13.6627 46.3955 11.8175 45.0892 10.3011ZM40.8214 15.3276L44.7636 11.1691C45.7145 12.3869 46.3326 13.8093 46.571 15.3276H40.8214Z" fill="white"/>
<path d="M37.9673 14.7322C38.0155 14.7514 38.0659 14.7607 38.1158 14.7607C38.2239 14.7607 38.3299 14.717 38.4073 14.6353L43.1076 9.67533C43.1861 9.59237 43.2257 9.47974 43.2162 9.36593C43.2068 9.252 43.1489 9.14753 43.0577 9.0787C41.6192 7.99485 39.925 7.32292 38.1582 7.13563C38.0456 7.12332 37.932 7.16026 37.8475 7.23634C37.763 7.31243 37.7147 7.42091 37.7147 7.53472V14.3593C37.7145 14.5237 37.8146 14.6714 37.9673 14.7322ZM38.5172 7.99226C39.8323 8.19913 41.0934 8.69971 42.2082 9.45744L38.5172 13.3523V7.99226Z" fill="white"/>
<path d="M13.7742 8.88428C11.4888 8.88428 9.63624 10.7379 9.63611 13.0233C9.63611 15.3088 11.4888 17.1614 13.7742 17.1614C16.0607 17.1614 17.9133 15.3088 17.9133 13.0233C17.9133 10.7379 16.0607 8.88428 13.7742 8.88428Z" fill="white"/>
<path d="M61.7354 51.9878L58.8241 49.3096C58.3407 50.6628 57.3793 52.6804 55.4789 54.8136C53.8592 56.6343 51.8212 58.2323 49.4233 59.5854L52.4702 62.3871C55.292 64.9899 59.6638 64.763 62.2189 61.8992C64.7721 59.0299 64.553 54.5822 61.7354 51.9878Z" fill="white"/>
<path d="M54.2594 53.9294C55.8254 52.1741 56.9318 50.224 57.5466 48.1425L55.0329 45.8262C52.4779 43.4741 49.8196 44.5488 47.1928 46.8013C47.1928 46.8013 47.1402 46.841 47.0552 46.9153C47.0545 46.9148 47.0539 46.9143 47.0532 46.9138C45.9489 46.0792 44.6875 45.7043 43.351 45.4229C42.1937 45.1791 40.6245 44.9413 39.8761 43.9121C39.2855 43.0999 39.8821 41.9658 40.2691 41.2031C40.4117 40.9223 40.5619 40.645 40.7122 40.368L49.4213 40.3707C51.6514 40.3707 52.9475 38.7531 52.9475 36.755V3.61266C52.9556 1.61774 51.3776 0 49.4253 0H3.53515C1.58119 0 0 1.61774 0 3.61266V36.7513C0 38.7512 1.58106 40.365 3.53515 40.365H21.1431C21.1431 40.365 21.9052 47.5965 15.8021 47.5965V51.2142H21.1431H31.8101H37.152V47.5965C30.8182 47.5965 31.8101 40.365 31.8101 40.365L39.3665 40.3675C38.6957 41.6151 38.1542 42.8962 38.7254 44.2476C39.2467 45.4812 40.874 46.0281 42.053 46.3296C43.5466 46.7112 44.9833 46.8964 46.2679 47.781C46.0368 48.0806 45.8679 48.3298 45.8679 48.3298C44.0214 51.1873 42.8631 53.5475 45.3585 55.8439L48.2637 58.5224C49.7164 57.7739 52.16 56.2894 54.2594 53.9294ZM8.99665 31.7885H7.89621V22.4496H9.00067L8.99665 31.7885ZM26.714 38.1244C25.53 38.1244 24.5689 37.1452 24.5689 35.9434C24.5689 34.7418 25.5301 33.7665 26.714 33.7665C27.9 33.7665 28.8602 34.7415 28.8602 35.9434C28.8602 37.1433 27.8999 38.1244 26.714 38.1244ZM18.771 31.7885L18.7691 22.4069H19.8307V25.345C19.8307 25.345 19.8307 25.355 19.8307 25.3589C19.8307 27.5862 21.5973 27.2622 22.1947 26.8326C22.6959 26.4721 25.0105 24.9092 25.0105 24.9092L26.4939 23.9043C26.4939 23.9043 27.5573 23.1747 27.5616 23.1711C28.7302 22.3125 27.8043 21.1066 27.8043 21.1066L33.7235 16.4999C33.8566 16.3953 33.8807 16.2043 33.7772 16.072C33.6735 15.9417 33.4828 15.9149 33.3492 16.0182L27.4112 20.6379L27.4091 20.6359C27.1355 20.43 26.9662 20.3445 26.6399 20.3316C26.1871 20.3117 25.7123 20.4695 25.2302 20.803L25.0083 20.9662L23.087 22.2924V21.7264C23.0066 17.3465 17.8216 17.4839 17.8216 17.4839H15.6964L13.9055 20.4767L12.1076 17.4859H10.0661C4.88627 17.4859 4.84751 21.221 4.84751 22.6249H4.84544V31.7865H3.78388V3.84791H49.1752V31.7885H18.771ZM52.993 53.1409C52.7837 53.3786 52.4869 53.4977 52.1924 53.4875C51.9657 53.4795 51.7417 53.396 51.556 53.2342L47.3331 49.5187C46.9119 49.1454 46.8706 48.503 47.2439 48.078C47.6132 47.6569 48.2555 47.6176 48.6807 47.9888L52.904 51.702C53.3247 52.0733 53.3663 52.7178 52.993 53.1409Z" fill="white"/>
</svg>
