<svg width="49" height="69" viewBox="0 0 49 69" fill="none" xmlns="http://www.w3.org/2000/svg">
<path d="M6.60808 0H42.8714C46.1146 0 48.7793 2.66465 48.7793 5.90788V63.0921C48.7793 66.3354 46.1146 69 42.8714 69H6.60808C3.36317 69 0.700195 66.337 0.700195 63.0921V5.90788C0.700195 2.66298 3.36317 0 6.60808 0ZM16.6296 32.0962C15.143 33.7952 12.5553 31.531 14.0427 29.8321L22.1896 20.5488L21.479 20.5204C19.219 20.4326 19.3536 16.9954 21.6136 17.084L25.9262 17.2571C27.3442 17.314 28.1126 19.0096 27.1527 20.1074L16.6296 32.0962ZM30.9495 45.8852V21.3038C30.9495 19.0347 34.4 19.0347 34.4 21.3038V45.8852H38.8113V13.0239H10.6682V45.8852H15.0794V37.7775C15.0794 35.5092 18.53 35.5092 18.53 37.7775V45.8852H20.3694V31.8262C20.3694 29.5578 23.82 29.5578 23.82 31.8262V45.8852H25.6595V26.5646C25.6595 24.2962 29.1092 24.2962 29.1092 26.5646V45.8852H30.9495ZM38.8113 49.3349C29.4303 49.3349 20.0492 49.3349 10.6682 49.3349V55.9761H38.8113V49.3349ZM8.94331 9.57418H40.5362C41.4885 9.57418 42.2611 10.3467 42.2611 11.2991V57.7009C42.2611 58.6533 41.4885 59.4258 40.5362 59.4258H8.94331C7.99099 59.4258 7.21843 58.6533 7.21843 57.7009V11.2991C7.21843 10.3467 7.99099 9.57418 8.94331 9.57418ZM42.8714 3.44975H6.60808C5.25192 3.44975 4.14995 4.55173 4.14995 5.90788V63.0921C4.14995 64.4483 5.25192 65.5502 6.60808 65.5502H42.8714C44.2292 65.5502 45.3295 64.4491 45.3295 63.0921V5.90788C45.3295 4.55089 44.2292 3.44975 42.8714 3.44975Z" fill="white"/>
</svg>
