<svg width="54" height="54" viewBox="0 0 54 54" fill="none" xmlns="http://www.w3.org/2000/svg">
<path d="M44.0626 5.30077C44.5258 5.30279 44.9785 5.44005 45.366 5.69597C45.7552 5.9627 46.0599 6.33709 46.2434 6.77416L53.8078 24.5494C53.9411 24.8611 54.0065 25.198 53.9995 25.5373V25.5588C53.9995 28.2167 52.9526 30.7658 51.0891 32.6452C49.2255 34.5246 46.698 35.5805 44.0626 35.5805C41.4272 35.5805 38.8997 34.5246 37.0362 32.6452C35.1727 30.7658 34.1258 28.2167 34.1258 25.5588V25.5373C34.1188 25.198 34.1842 24.8611 34.3174 24.5494L40.4806 10.0646H29.4619V42.4448L46.1497 49.4209C46.6545 49.6313 47.0713 50.0118 47.329 50.4975C47.5867 50.9833 47.6693 51.5441 47.5627 52.0844C47.4562 52.6247 47.1671 53.111 46.7447 53.4603C46.3224 53.8097 45.7929 54.0004 45.2467 54H9.1196C8.57337 54.0004 8.04392 53.8097 7.62156 53.4603C7.19921 53.111 6.9101 52.6247 6.80355 52.0844C6.69701 51.5441 6.77963 50.9833 7.03732 50.4975C7.29501 50.0118 7.71182 49.6313 8.21663 49.4209L24.7426 42.5136V10.0646H13.5194L19.6826 24.5494C19.8159 24.8611 19.8812 25.198 19.8742 25.5373V25.5588C19.8742 28.2167 18.8273 30.7658 16.9638 32.6452C15.1003 34.5246 12.5728 35.5805 9.93738 35.5805C7.30195 35.5805 4.77447 34.5246 2.91095 32.6452C1.04742 30.7658 0.000503721 28.2167 0.000503721 25.5588V25.5373C-0.00646263 25.198 0.0588993 24.8611 0.192171 24.5494L7.75663 6.77416C7.93781 6.33684 8.24306 5.96324 8.63404 5.70026C9.0201 5.44077 9.47344 5.30182 9.93738 5.30077H24.7426V2.37976C24.7426 1.74861 24.9912 1.14331 25.4337 0.697017C25.8762 0.250725 26.4764 0 27.1022 0C27.728 0 28.3282 0.250725 28.7707 0.697017C29.2133 1.14331 29.4619 1.74861 29.4619 2.37976V5.30077H44.0626ZM14.9761 25.5631L9.93738 13.7201L4.90292 25.5588L14.9761 25.5631ZM49.1013 25.5631L44.0626 13.7244L39.0239 25.5631H49.1013Z" fill="white"/>
</svg>
