<svg width="72" height="72" viewBox="0 0 72 72" fill="none" xmlns="http://www.w3.org/2000/svg">
<g clip-path="url(#clip0_796_4356)">
<path d="M44.2032 41.7555V41.3521H42.1726C39.5906 41.3521 37.4255 43.5172 37.4255 46.0992V46.5026H39.4561C42.1726 46.3681 44.2032 44.3375 44.2032 41.7555Z" fill="white"/>
<path d="M35.9328 18.9883C26.573 18.9883 18.9884 26.5863 18.9884 35.9326C18.9884 45.2789 26.5865 52.877 35.9328 52.877C35.7983 52.7425 35.7983 52.608 35.7983 52.4735V39.7249H31.737C28.3482 39.7249 25.6317 37.0085 25.6317 33.6196V32.1269C25.6317 31.7234 26.0351 31.3066 26.4385 31.3066H31.3201C33.0818 31.3066 34.5745 31.9789 35.7983 33.2027V28.7246C35.7983 28.3211 36.2017 27.9042 36.6052 27.9042C37.0086 27.9042 37.412 28.3077 37.412 28.7246V41.7421C38.6358 40.5184 40.263 39.7115 42.1591 39.7115H45.1446C45.548 39.7115 45.9514 40.1149 45.9514 40.5318V41.7556C45.9514 45.2789 43.1005 48.1299 39.5771 48.1299H37.5465V52.339C37.5465 52.4735 37.5465 52.608 37.412 52.7425C45.9514 52.0701 52.8637 44.741 52.8637 35.9326C52.8637 26.5729 45.2656 18.9883 35.9193 18.9883H35.9328ZM28.0657 42.1724C29.0205 42.1724 29.8274 42.9793 29.8274 43.9341C29.8274 44.8889 29.0205 45.6958 28.0657 45.6958C27.1109 45.6958 26.3041 44.8755 26.3041 43.9341C26.4385 42.9793 27.2589 42.1724 28.0657 42.1724ZM29.8274 26.9898C28.8726 26.9898 28.0657 26.1695 28.0657 25.2281C28.0657 24.2868 28.8861 23.4664 29.8274 23.4664C30.7688 23.4664 31.5891 24.2868 31.5891 25.2281C31.4546 26.1829 30.7688 26.9898 29.8274 26.9898ZM43.3829 32.0058C42.4281 32.0058 41.6212 31.1855 41.6212 30.2442C41.6212 29.3028 42.4281 28.4825 43.3829 28.4825C44.3377 28.4825 45.1446 29.3028 45.1446 30.2442C45.0101 31.3334 44.3377 32.0058 43.3829 32.0058Z" fill="white"/>
<path d="M27.2589 32.813V33.4854C27.2589 35.9195 29.2895 37.9635 31.737 37.9635H35.7983V37.2911C35.7983 34.8571 33.7677 32.813 31.3201 32.813H27.2589Z" fill="white"/>
<path d="M61.4165 41.6212C61.551 41.3523 61.6855 41.0833 62.0889 40.9488L71.9866 38.7837V33.0818L62.0889 30.9167C61.8199 30.7822 61.551 30.6477 61.4165 30.2443C60.7441 27.3934 59.6548 24.5558 58.0276 21.9739C57.8932 21.7049 57.8932 21.3015 58.0276 21.0191L63.4471 12.4796L59.3859 8.40493L50.8465 13.8244C50.5775 13.9589 50.1741 13.9589 49.8917 13.8244C47.3097 12.1972 44.6067 11.108 41.6212 10.4356C41.3523 10.3011 41.0833 10.1666 40.9488 9.76317L38.7837 0H33.0953L30.9301 9.89765C30.7957 10.1666 30.6612 10.4356 30.2578 10.57C27.2723 11.2424 24.5693 12.3317 21.9873 13.9589C21.7183 14.0934 21.3149 14.0934 21.0325 13.9589L12.4931 8.53941L8.43183 12.6007L13.8513 21.1401C13.9858 21.409 13.9858 21.8125 13.8513 22.0949C12.2241 24.6769 11.1349 27.3799 10.4625 30.3653C10.328 30.6343 10.1935 30.9032 9.79006 31.0377L0.026896 33.0684V38.7703L9.92454 40.9354C10.1935 41.0699 10.4625 41.2043 10.5969 41.6078C11.2693 44.5932 12.3586 47.2962 13.9858 49.8782C14.1203 50.1472 14.1203 50.5506 13.9858 50.833L8.56631 59.3724L12.6276 63.4471L21.167 58.0276C21.4359 57.8932 21.8394 57.8932 22.1218 58.0276C24.7038 59.6548 27.4068 60.7441 30.3922 61.4165C30.6612 61.551 30.9301 61.6855 31.0646 62.0889L33.2297 71.9865H38.9182L41.0833 62.0889C41.2178 61.8199 41.3523 61.551 41.7557 61.4165C44.7411 60.7441 47.4442 59.6548 50.0262 58.0276C50.2951 57.8932 50.6985 57.8932 50.981 58.0276L59.5204 63.4471L63.5816 59.3724L58.1621 50.833C58.0276 50.5641 58.0276 50.1606 58.1621 49.8782C59.5204 47.2962 60.7441 44.4587 61.4165 41.6078V41.6212ZM35.9328 54.5043C25.6317 54.5043 17.3612 46.2338 17.3612 35.9328C17.3612 25.6317 25.7662 17.3612 35.9328 17.3612C46.0994 17.3612 54.5043 25.7662 54.5043 35.9328C54.5043 46.0994 46.2338 54.5043 35.9328 54.5043Z" fill="white"/>
</g>
<defs>
<clipPath id="clip0_796_4356">
<rect width="72" height="72" fill="white"/>
</clipPath>
</defs>
</svg>
