<svg width="204" height="531" viewBox="0 0 204 531" fill="none" xmlns="http://www.w3.org/2000/svg">
<path d="M12.1267 194.807C114.928 99.9182 130.248 3.83401 -7.3244 0.0446662C-144.896 -3.74468 -488.248 234.633 -315.427 310.915C-142.604 387.197 -130.336 554.649 -56.4095 528.195C34.8463 483.018 -129.801 325.809 12.1267 194.807Z" fill="url(#paint0_linear_295_260)" fill-opacity="0.6"/>
<path style="mix-blend-mode:screen" d="M-143.435 210.356C-277.01 262.399 -216.052 381.56 -121.943 420.337C8.94092 474.265 291.163 326.711 176.546 214.502C38.3063 79.1707 139.026 68.6123 64.4562 17.1331C-33.3011 -5.27037 40.979 138.505 -143.435 210.356Z" fill="url(#paint1_linear_295_260)"/>
<defs>
<linearGradient id="paint0_linear_295_260" x1="-118.941" y1="328.124" x2="-41.9767" y2="53.6419" gradientUnits="userSpaceOnUse">
<stop stop-color="#5DE29B"/>
<stop offset="1" stop-color="#003350"/>
</linearGradient>
<linearGradient id="paint1_linear_295_260" x1="-39.8298" y1="392.378" x2="29.5361" y2="-1.42257" gradientUnits="userSpaceOnUse">
<stop stop-color="#01DC59"/>
<stop offset="1" stop-color="#003350"/>
</linearGradient>
</defs>
</svg>
