<svg width="20" height="27" viewBox="0 0 20 27" fill="none" xmlns="http://www.w3.org/2000/svg">
<path d="M9.7998 24.1001C13.6658 24.1001 16.7998 20.9661 16.7998 17.1001C16.7998 13.2341 13.6658 10.1001 9.7998 10.1001C5.93381 10.1001 2.7998 13.2341 2.7998 17.1001C2.7998 20.9661 5.93381 24.1001 9.7998 24.1001Z" stroke="#828282" stroke-width="2"/>
<path d="M17.5 17.1001H19.6" stroke="#828282" stroke-width="2"/>
<path d="M15.2446 22.5447L16.7296 24.0296" stroke="#828282" stroke-width="2"/>
<path d="M9.7998 24.8V26.9" stroke="#828282" stroke-width="2"/>
<path d="M4.35504 22.5447L2.87012 24.0296" stroke="#828282" stroke-width="2"/>
<path d="M2.1 17.1001H0" stroke="#828282" stroke-width="2"/>
<path d="M4.35504 11.6553L2.87012 10.1704" stroke="#828282" stroke-width="2"/>
<path d="M9.7998 9.40005V7.30005" stroke="#828282" stroke-width="2"/>
<path d="M15.2446 11.6553L16.7296 10.1704" stroke="#828282" stroke-width="2"/>
<path d="M9.7998 6.30005V1.05005" stroke="#828282" stroke-width="2"/>
<path d="M8.0498 2.8H11.5498L9.7998 0L8.0498 2.8Z" fill="#828282"/>
</svg>
