<svg xmlns="http://www.w3.org/2000/svg" viewBox="0 0 359.22 114.83"><defs><style>.cls-1{fill:#25215f;}.cls-2{fill:#62a744;}.cls-3{fill:#8a8c8c;}</style></defs><title>Horizontal-Logo-Color</title><g id="Layer_2" data-name="Layer 2"><g id="Layer_1-2" data-name="Layer 1"><path class="cls-1" d="M12.94,58.66H1a1,1,0,0,0-1,1v2.09a1,1,0,0,0,1,1H4.86V83a1,1,0,0,0,1,1H8.05a1,1,0,0,0,1-1V62.82h3.83a1,1,0,0,0,1-1l0-2.1a1,1,0,0,0-.29-.74A1.08,1.08,0,0,0,12.94,58.66Z"/><path class="cls-1" d="M23.91,58.37c-1.82,0-7.78.65-7.78,9.08V75.2c0,8.43,6,9.08,7.78,9.08s7.82-.65,7.82-9.08V67.45C31.73,59,25.75,58.37,23.91,58.37ZM27.47,74.9c0,3.46-1.19,5.22-3.56,5.22-.87,0-3.52,0-3.52-5.22V67.71c0-5.22,2.65-5.22,3.52-5.22,2.37,0,3.56,1.76,3.56,5.22Z"/><path class="cls-1" d="M51.15,68.81l-.42-.1c-1.91-.49-3.5-1.07-3.54-3.19a2.79,2.79,0,0,1,3.09-3c.77,0,3.26.3,3.26,4.16a1,1,0,0,0,1,1h2.1a1,1,0,0,0,1-1c0-6.14-4-8.32-7.42-8.32s-7.35,1.9-7.35,7.25,4.34,6.55,6.74,7.21c3.06.88,4,1.83,4,3.9,0,2.31-1.19,3.43-3.63,3.43-.85,0-3.62-.3-3.62-4.13a1,1,0,0,0-1-1L43.36,75a1,1,0,0,0-.75.29,1,1,0,0,0-.31.74c0,6.14,4.23,8.31,7.82,8.31,5,0,7.85-2.82,7.85-7.75C58,72.55,55.8,70.08,51.15,68.81Z"/><path class="cls-1" d="M71.6,59.44a1,1,0,0,0-1-.78H67.91a1,1,0,0,0-1,.78l-6,23.29a1,1,0,0,0,1,1.28h2.16a1,1,0,0,0,1-.76l1.69-6.32h4.94l1.72,6.32a1,1,0,0,0,1,.76h2.16a1,1,0,0,0,1-1.28Zm-4,13.23,1.62-6.23,1.61,6.23Z"/><path class="cls-1" d="M93.92,58.66h-2.2a1,1,0,0,0-1,.78l-4.15,16-4.16-16a1,1,0,0,0-1-.78h-2.2a1,1,0,0,0-.81.4,1,1,0,0,0-.18.89l6,23.29a1,1,0,0,0,1,.77h2.73a1,1,0,0,0,1-.77l6-23.29a1,1,0,0,0-1-1.29Z"/><path class="cls-1" d="M110.08,58.66H100a1,1,0,0,0-1,1V83a1,1,0,0,0,1,1h10.08a1,1,0,0,0,1-1V80.89a1,1,0,0,0-1-1H103.2V73.14h6.55a1,1,0,0,0,1-1V70a1,1,0,0,0-1-1H103.2V62.85l6.89,0a1,1,0,0,0,1-1V59.7A1,1,0,0,0,110.08,58.66Z"/><path class="cls-1" d="M133.59,58.66H123.51a1,1,0,0,0-1,1V83a1,1,0,0,0,1,1h10.08a1,1,0,0,0,1-1V80.89a1,1,0,0,0-1-1h-6.88V73.14h6.55a1,1,0,0,0,1-1V70a1,1,0,0,0-1-1h-6.55V62.85l6.89,0a1,1,0,0,0,1-1V59.7A1,1,0,0,0,133.59,58.66Z"/><path class="cls-1" d="M152.75,58.66h-2.13a1,1,0,0,0-1,1V73.47l-6.68-14.21a1.05,1.05,0,0,0-.94-.6h-2.13a1,1,0,0,0-1,1V83a1,1,0,0,0,1,1H142a1,1,0,0,0,1-1V69.21l6.69,14.21a1,1,0,0,0,.93.59h2.13a1,1,0,0,0,1-1V59.7A1,1,0,0,0,152.75,58.66Z"/><path class="cls-1" d="M170.08,58.66H160a1,1,0,0,0-1,1V83a1,1,0,0,0,1,1h10.08a1,1,0,0,0,1-1V80.89a1,1,0,0,0-1-1h-6.89V73.14h6.56a1,1,0,0,0,1-1V70a1,1,0,0,0-1-1h-6.56V62.85l6.89,0a1,1,0,0,0,1-1V59.7A1,1,0,0,0,170.08,58.66Z"/><path class="cls-1" d="M185.91,72.69a6.18,6.18,0,0,0,3.89-6v-1c0-5.17-4.14-7-8-7h-5.39a1,1,0,0,0-1,1V83a1,1,0,0,0,1,1h2.17a1,1,0,0,0,1-1V73.74h2.26l3.93,9.63a1,1,0,0,0,1,.64H189a1,1,0,0,0,.86-.45,1,1,0,0,0,.1-1Zm-6.32-9.87h2.46c3.19,0,3.56,1.84,3.56,3.23v.3c0,.8,0,3.23-3.56,3.23h-2.46Z"/><path class="cls-1" d="M208.46,69.51H202a1,1,0,0,0-1,1v2.1a1,1,0,0,0,1,1h3.3V75c0,5.15-2.68,5.15-3.56,5.15s-3.53,0-3.53-5.22V67.71c0-5.22,2.66-5.22,3.53-5.22,2,0,3.18,1.3,3.48,3.82A.75.75,0,0,0,206,67h2.74a.74.74,0,0,0,.74-.78c-.56-7.28-6-7.88-7.7-7.88S194,59,194,67.41V75.2c0,8.43,5.93,9.08,7.75,9.08s7.75-.65,7.75-9.08V70.54A1,1,0,0,0,208.46,69.51Z"/><path class="cls-1" d="M228.21,59.13a1,1,0,0,0-.86-.47h-2.3a1,1,0,0,0-1,.64l-3.73,8.94-3.68-8.94a1,1,0,0,0-.95-.64h-2.3a1,1,0,0,0-.95,1.44l5.71,13.51V83a1,1,0,0,0,1,1h2.23a1,1,0,0,0,1-1V73.61L228.3,60.1A1,1,0,0,0,228.21,59.13Z"/><path class="cls-2" d="M241.07,2.09V16.22a1.46,1.46,0,0,0,2.49,1L257.69,3.12a1.46,1.46,0,0,0-1-2.5H242.53A1.47,1.47,0,0,0,241.07,2.09Z"/><path class="cls-2" d="M271.66,1.05,241.49,31.22a1.5,1.5,0,0,0-.43,1v15a1.46,1.46,0,0,0,2.5,1L288.71,3.12a1.46,1.46,0,0,0-1-2.5h-15A1.5,1.5,0,0,0,271.66,1.05Z"/><path class="cls-2" d="M302.68,1.05,241.49,62.24a1.5,1.5,0,0,0-.43,1v15a1.46,1.46,0,0,0,2.5,1L319.73,3.12a1.46,1.46,0,0,0-1-2.5h-15A1.5,1.5,0,0,0,302.68,1.05Z"/><path class="cls-2" d="M359.22,56.09v-15a1.46,1.46,0,0,0-2.5-1L315.24,81.56a1.46,1.46,0,0,0,1,2.49h15a1.47,1.47,0,0,0,1-.42l26.5-26.5A1.5,1.5,0,0,0,359.22,56.09Z"/><path class="cls-2" d="M359.22,25.07v-15a1.46,1.46,0,0,0-2.5-1l-72.5,72.5a1.46,1.46,0,0,0,1,2.49h15a1.47,1.47,0,0,0,1-.42l57.52-57.52A1.5,1.5,0,0,0,359.22,25.07Z"/><path class="cls-2" d="M356.72,71.1,346.26,81.56a1.46,1.46,0,0,0,1,2.49h10.46a1.46,1.46,0,0,0,1.47-1.46V72.13A1.46,1.46,0,0,0,356.72,71.1Z"/><path class="cls-2" d="M333.7,1.05,241.49,93.26a1.5,1.5,0,0,0-.43,1v15a1.46,1.46,0,0,0,2.5,1L350.75,3.12a1.46,1.46,0,0,0-1-2.5h-15A1.5,1.5,0,0,0,333.7,1.05Z"/><path class="cls-1" d="M58.27,43.25H44.92V1.62a1,1,0,0,0-1-1h-6.1a1,1,0,0,0-1,1V50.15a1,1,0,0,0,1,1H58.27a1,1,0,0,0,1-1v-5.9A1,1,0,0,0,58.27,43.25Z"/><path class="cls-1" d="M83.78,43.25H70.43V1.62a1,1,0,0,0-1-1h-6.1a1,1,0,0,0-1,1V50.15a1,1,0,0,0,1,1H83.78a1,1,0,0,0,1-1v-5.9A1,1,0,0,0,83.78,43.25Z"/><rect class="cls-1" x="88.6" y="0.62" width="8.31" height="50.52" rx="1"/><path class="cls-1" d="M165.3.62h-5.89a1,1,0,0,0-1,1v30l-14-30.45a1,1,0,0,0-.91-.59h-6a1,1,0,0,0-1,1V50.15a1,1,0,0,0,1,1h6a1,1,0,0,0,1-1V20.07l14,30.49a1,1,0,0,0,.91.59h6a1,1,0,0,0,1-1V1.62A1,1,0,0,0,165.3.62Z"/><path class="cls-1" d="M186.93,0c-9.48,0-15.14,6.64-15.14,17.77l-.07,16.16c0,11.13,5.66,17.77,15.14,17.77,4.35,0,14.5-1.65,14.94-16.94V33.58a1,1,0,0,0-1-1h-6.1a1,1,0,0,0-1,.94l-.07,1.24c-.39,6-2.67,9.05-6.77,9.05-4.58,0-6.9-3.51-6.9-10.44v-15C180,11.45,182.28,8,186.86,8c4.16,0,6.43,3.06,6.77,9.11l.07,1.11a1,1,0,0,0,1,.94h6.1a1,1,0,0,0,1-1V16.84C201.36,1.64,191.26,0,186.93,0Z"/><path class="cls-1" d="M227.35,8.52a1,1,0,0,0,1-1V1.62a1,1,0,0,0-1-1h-21a1,1,0,0,0-1,1V50.15a1,1,0,0,0,1,1h21a1,1,0,0,0,1-1v-5.9a1,1,0,0,0-1-1H213.44V29.38h9.35a1,1,0,0,0,1-1V22.49a1,1,0,0,0-1-1h-9.35V8.58Z"/><path class="cls-1" d="M21.32,1.39a1,1,0,0,0-1-.77H12.66a1,1,0,0,0-1,.77L.11,49.91a1,1,0,0,0,.18.86,1,1,0,0,0,.79.38h6.1a1,1,0,0,0,1-.78l1.34-5.91H19.1a.72.72,0,0,0,.71-.86L18.5,37.09a1.45,1.45,0,0,0-1.41-1.16H11.42l5.11-22.62,8.32,37.05a1,1,0,0,0,1,.79h6.09a1,1,0,0,0,.79-.38,1,1,0,0,0,.19-.86Z"/><path class="cls-1" d="M121.45,1.39a1,1,0,0,0-1-.77h-7.7a1,1,0,0,0-1,.77L100.24,49.91a1,1,0,0,0,.18.86,1,1,0,0,0,.79.38h6.1a1,1,0,0,0,1-.78l1.34-5.91h9.93a.72.72,0,0,0,.71-.86L119,37.09a1.45,1.45,0,0,0-1.41-1.16h-6l5.11-22.62L125,50.36a1,1,0,0,0,1,.79h6.1a1,1,0,0,0,.79-.38,1,1,0,0,0,.19-.86Z"/><path class="cls-3" d="M4.86,98.53a.37.37,0,0,1,.36-.36H5.7a.37.37,0,0,1,.37.36v7.22c0,1.72.6,2.93,3,2.93a4,4,0,0,0,3.08-1.63V98.53a.37.37,0,0,1,.36-.36H13a.37.37,0,0,1,.36.36v10.75a.37.37,0,0,1-.36.36h-.29a.37.37,0,0,1-.37-.33l-.09-.83h-.15a4.7,4.7,0,0,1-3.19,1.36c-2.86,0-4-1.67-4-3.9Z"/><path class="cls-3" d="M16.07,109a.37.37,0,0,1-.19-.31.47.47,0,0,1,0-.17l.27-.46a.33.33,0,0,1,.29-.2.67.67,0,0,1,.19.05,4.93,4.93,0,0,0,2.64.78c1.36,0,2.52-.59,2.52-2.09,0-1.06-1.23-1.67-2.47-2.27-1.5-.75-3.12-1.62-3.12-3.32a3,3,0,0,1,3.27-3,6.78,6.78,0,0,1,2.88.77.36.36,0,0,1,.22.32.49.49,0,0,1-.05.16l-.22.44a.37.37,0,0,1-.32.19.41.41,0,0,1-.17,0,5,5,0,0,0-2.25-.67,1.89,1.89,0,0,0-2.08,1.76c0,1.09,1.21,1.68,2.59,2.35,1.67.85,3,1.65,3,3.27,0,2.28-1.67,3.32-3.6,3.32A7.33,7.33,0,0,1,16.07,109Z"/><path class="cls-3" d="M26.63,96.09a.84.84,0,0,1-.92-.87.92.92,0,0,1,1.84,0A.84.84,0,0,1,26.63,96.09Zm.6,13.19a.37.37,0,0,1-.36.36h-.49a.37.37,0,0,1-.36-.36V98.53a.37.37,0,0,1,.36-.36h.49a.37.37,0,0,1,.36.36Z"/><path class="cls-3" d="M39.41,109.28a.37.37,0,0,1-.36.36h-.49a.37.37,0,0,1-.36-.36v-7.19c0-1.72-.61-3-3-3a4,4,0,0,0-3.07,1.62v8.52a.37.37,0,0,1-.36.36H31.3a.37.37,0,0,1-.36-.36V98.53a.37.37,0,0,1,.36-.36h.29a.35.35,0,0,1,.36.34l.1.85h.15A4.52,4.52,0,0,1,35.39,98c2.86,0,4,1.67,4,3.92Z"/><path class="cls-3" d="M51.57,98.17a.37.37,0,0,1,.36.36v12.62c0,2.42-1.91,3.68-4.45,3.68a13.45,13.45,0,0,1-3.85-.66.36.36,0,0,1-.25-.34.18.18,0,0,1,0-.12l.14-.46a.38.38,0,0,1,.34-.24.23.23,0,0,1,.12,0,11.15,11.15,0,0,0,3.32.63c2.4,0,3.39-1,3.39-2.47v-2.9h-.17a4.66,4.66,0,0,1-3.07,1.18c-3,0-5.11-2.1-5.11-5.56S44.5,98,47.48,98A5.4,5.4,0,0,1,50.84,99l.1-.56a.37.37,0,0,1,.36-.31Zm-.85,2.1a5.45,5.45,0,0,0-3.24-1.13c-2.28,0-3.83,1.93-3.83,4.77s1.55,4.4,3.83,4.4a4.21,4.21,0,0,0,3.24-1.52Z"/><path class="cls-3" d="M65.61,109.33a.38.38,0,0,1-.29.36,6.28,6.28,0,0,1-1.47.15A2.59,2.59,0,0,1,61,106.91V93.55a.37.37,0,0,1,.36-.37h.49a.37.37,0,0,1,.36.37v13.17c0,1.16.44,2,1.79,2a4.23,4.23,0,0,0,1-.15h.1a.34.34,0,0,1,.34.27Z"/><path class="cls-3" d="M75,107.92a.37.37,0,0,1,.34.27l.14.44s0,.05,0,.09a.38.38,0,0,1-.22.37,10.35,10.35,0,0,1-3.68.75c-3.12,0-5.23-2.47-5.23-5.93S68.42,98,71.55,98c2.61,0,4.38,1.86,4.38,4.81,0,.37,0,.71,0,1a.36.36,0,0,1-.36.34H67.62c.1,2.84,1.72,4.51,3.95,4.51a7.78,7.78,0,0,0,3.24-.71A.44.44,0,0,1,75,107.92Zm-.29-4.84v-.36c0-2.28-1.28-3.58-3.1-3.58-2.13,0-3.63,1.47-3.9,3.94Z"/><path class="cls-3" d="M77.87,109a.37.37,0,0,1-.19-.31.47.47,0,0,1,0-.17l.27-.46a.33.33,0,0,1,.29-.2.67.67,0,0,1,.19.05,4.93,4.93,0,0,0,2.64.78c1.36,0,2.52-.59,2.52-2.09,0-1.06-1.23-1.67-2.47-2.27C79.66,103.57,78,102.7,78,101a3,3,0,0,1,3.27-3,6.78,6.78,0,0,1,2.88.77.36.36,0,0,1,.22.32.49.49,0,0,1,0,.16l-.22.44a.37.37,0,0,1-.32.19.41.41,0,0,1-.17,0,5,5,0,0,0-2.25-.67,1.89,1.89,0,0,0-2.08,1.76c0,1.09,1.21,1.68,2.59,2.35,1.67.85,3,1.65,3,3.27,0,2.28-1.67,3.32-3.6,3.32A7.33,7.33,0,0,1,77.87,109Z"/><path class="cls-3" d="M86.85,109a.37.37,0,0,1-.19-.31.34.34,0,0,1,0-.17l.26-.46a.34.34,0,0,1,.29-.2.73.73,0,0,1,.2.05,4.88,4.88,0,0,0,2.64.78c1.35,0,2.51-.59,2.51-2.09,0-1.06-1.23-1.67-2.46-2.27C88.64,103.57,87,102.7,87,101a3,3,0,0,1,3.27-3,6.74,6.74,0,0,1,2.88.77.35.35,0,0,1,.22.32.33.33,0,0,1,0,.16l-.22.44a.34.34,0,0,1-.48.14,5.12,5.12,0,0,0-2.25-.67,1.89,1.89,0,0,0-2.09,1.76c0,1.09,1.22,1.68,2.6,2.35,1.67.85,3,1.65,3,3.27,0,2.28-1.67,3.32-3.61,3.32A7.36,7.36,0,0,1,86.85,109Z"/><path class="cls-3" d="M98,109.84a.92.92,0,0,1-1-1,1,1,0,0,1,2,0A.92.92,0,0,1,98,109.84Z"/><path class="cls-3" d="M117.26,109.06a.57.57,0,0,1-.6.58H116a.64.64,0,0,1-.58-.48l-.22-.94H115a4,4,0,0,1-3.42,1.62c-3,0-4.94-2.37-4.94-5.93s2.2-5.93,5.11-5.93a5.34,5.34,0,0,1,3,.79v-5a.61.61,0,0,1,.61-.61h1a.6.6,0,0,1,.6.61V105a25.65,25.65,0,0,0,.34,3.92Zm-2.54-8.42a4.31,4.31,0,0,0-2.61-1c-2,0-3.22,1.7-3.22,4.22s1.18,4.21,3,4.21a2.88,2.88,0,0,0,2.78-2.23Z"/><path class="cls-3" d="M131,103.91c0,3.89-2.5,5.93-5.62,5.93s-5.62-2-5.62-5.93,2.5-5.93,5.62-5.93S131,100,131,103.91Zm-2.28,0c0-2.62-1.33-4.22-3.34-4.22s-3.34,1.6-3.34,4.22,1.33,4.21,3.34,4.21S128.67,106.55,128.67,103.91Z"/><path class="cls-3" d="M134.85,96.35a1.15,1.15,0,0,1-1.31-1.21,1.3,1.3,0,0,1,2.59,0A1.15,1.15,0,0,1,134.85,96.35Zm-.53,13.29a.6.6,0,0,1-.61-.6V98.77a.6.6,0,0,1,.61-.6h1a.6.6,0,0,1,.6.6V109a.59.59,0,0,1-.6.6Z"/><path class="cls-3" d="M148.92,101.87V109a.6.6,0,0,1-.61.6h-1a.6.6,0,0,1-.61-.6v-7c0-1.43-.6-2.4-2.44-2.4a3.48,3.48,0,0,0-2.64,1.38v8a.6.6,0,0,1-.61.6h-1a.59.59,0,0,1-.6-.6V98.77a.6.6,0,0,1,.6-.6h.65a.62.62,0,0,1,.61.53l.07.63h.2A4.8,4.8,0,0,1,144.82,98C147.49,98,148.92,99.4,148.92,101.87Z"/><path class="cls-3" d="M161.41,98.17a.6.6,0,0,1,.61.6v12.09c0,2.44-2,4-4.8,4a16.11,16.11,0,0,1-3.92-.61.56.56,0,0,1-.43-.56s0-.09,0-.14a4.11,4.11,0,0,1,.17-.63.6.6,0,0,1,.56-.39.52.52,0,0,1,.17,0,12.12,12.12,0,0,0,3.14.56c2,0,2.88-.87,2.88-2.13v-2.44h-.14a4.47,4.47,0,0,1-2.76,1c-3.08,0-5.21-2-5.21-5.56S153.88,98,157,98a5.36,5.36,0,0,1,3.19,1l0-.32a.65.65,0,0,1,.63-.53Zm-1.6,2.47a4.4,4.4,0,0,0-2.61-1c-2,0-3.22,1.7-3.22,4.22s1.26,3.87,3.22,3.87a3.3,3.3,0,0,0,2.61-1.23Z"/><path class="cls-3" d="M187.42,109a.6.6,0,0,1-.61.6h-1a.6.6,0,0,1-.61-.6v-7c0-1.38-.53-2.38-2.39-2.38a3.23,3.23,0,0,0-2.57,1.38v8a.6.6,0,0,1-.6.6h-1a.59.59,0,0,1-.6-.6v-7c0-1.38-.51-2.38-2.42-2.38a3.33,3.33,0,0,0-2.57,1.38v8a.6.6,0,0,1-.61.6h-1a.59.59,0,0,1-.6-.6V98.77a.6.6,0,0,1,.6-.6h.61a.61.61,0,0,1,.6.53l.1.63H173A4.78,4.78,0,0,1,176.26,98a4,4,0,0,1,3.41,1.5h.19a5.17,5.17,0,0,1,3.51-1.5c2.47,0,4,1.25,4,3.87Z"/><path class="cls-3" d="M201.44,103.91c0,3.89-2.49,5.93-5.62,5.93s-5.61-2-5.61-5.93S192.7,98,195.82,98,201.44,100,201.44,103.91Zm-2.28,0c0-2.62-1.33-4.22-3.34-4.22s-3.34,1.6-3.34,4.22,1.33,4.21,3.34,4.21S199.16,106.55,199.16,103.91Z"/><path class="cls-3" d="M206.07,99.36h.24a4.42,4.42,0,0,1,3-1.38,7.14,7.14,0,0,1,1.87.29.57.57,0,0,1,.43.55.68.68,0,0,1,0,.2l-.24.79a.6.6,0,0,1-.56.44.69.69,0,0,1-.24,0,4.34,4.34,0,0,0-1.6-.36,3.43,3.43,0,0,0-2.52,1.45V109a.6.6,0,0,1-.6.6h-1a.59.59,0,0,1-.6-.6V98.77a.6.6,0,0,1,.6-.6h.58a.64.64,0,0,1,.61.6Z"/><path class="cls-3" d="M221.42,107.44a.6.6,0,0,1,.56.41l.14.49a.32.32,0,0,1,0,.17.62.62,0,0,1-.42.58,12.41,12.41,0,0,1-3.85.75c-3.12,0-5.61-2-5.61-5.93S214.74,98,217.86,98s4.74,1.93,4.74,5v.87a.59.59,0,0,1-.6.6h-7.51c.17,2.5,1.68,3.76,3.44,3.76a8.43,8.43,0,0,0,3.25-.68A1,1,0,0,1,221.42,107.44Zm-.9-4.86a2.68,2.68,0,0,0-2.68-3c-1.67,0-3,1.14-3.32,3.34h6Z"/><path class="cls-3" d="M227.09,109.84a1.38,1.38,0,1,1,1.47-1.38A1.33,1.33,0,0,1,227.09,109.84Z"/><path class="cls-1" d="M12.94,58.66H1a1,1,0,0,0-1,1v2.09a1,1,0,0,0,1,1H4.86V83a1,1,0,0,0,1,1H8.05a1,1,0,0,0,1-1V62.82h3.83a1,1,0,0,0,1-1l0-2.1a1,1,0,0,0-.29-.74A1.08,1.08,0,0,0,12.94,58.66Z"/><path class="cls-1" d="M23.91,58.37c-1.82,0-7.78.65-7.78,9.08V75.2c0,8.43,6,9.08,7.78,9.08s7.82-.65,7.82-9.08V67.45C31.73,59,25.75,58.37,23.91,58.37ZM27.47,74.9c0,3.46-1.19,5.22-3.56,5.22-.87,0-3.52,0-3.52-5.22V67.71c0-5.22,2.65-5.22,3.52-5.22,2.37,0,3.56,1.76,3.56,5.22Z"/><path class="cls-1" d="M51.15,68.81l-.42-.1c-1.91-.49-3.5-1.07-3.54-3.19a2.79,2.79,0,0,1,3.09-3c.77,0,3.26.3,3.26,4.16a1,1,0,0,0,1,1h2.1a1,1,0,0,0,1-1c0-6.14-4-8.32-7.42-8.32s-7.35,1.9-7.35,7.25,4.34,6.55,6.74,7.21c3.06.88,4,1.83,4,3.9,0,2.31-1.19,3.43-3.63,3.43-.85,0-3.62-.3-3.62-4.13a1,1,0,0,0-1-1L43.36,75a1,1,0,0,0-.75.29,1,1,0,0,0-.31.74c0,6.14,4.23,8.31,7.82,8.31,5,0,7.85-2.82,7.85-7.75C58,72.55,55.8,70.08,51.15,68.81Z"/><path class="cls-1" d="M71.6,59.44a1,1,0,0,0-1-.78H67.91a1,1,0,0,0-1,.78l-6,23.29a1,1,0,0,0,1,1.28h2.16a1,1,0,0,0,1-.76l1.69-6.32h4.94l1.72,6.32a1,1,0,0,0,1,.76h2.16a1,1,0,0,0,1-1.28Zm-4,13.23,1.62-6.23,1.61,6.23Z"/><path class="cls-1" d="M93.92,58.66h-2.2a1,1,0,0,0-1,.78l-4.15,16-4.16-16a1,1,0,0,0-1-.78h-2.2a1,1,0,0,0-.81.4,1,1,0,0,0-.18.89l6,23.29a1,1,0,0,0,1,.77h2.73a1,1,0,0,0,1-.77l6-23.29a1,1,0,0,0-1-1.29Z"/><path class="cls-1" d="M110.08,58.66H100a1,1,0,0,0-1,1V83a1,1,0,0,0,1,1h10.08a1,1,0,0,0,1-1V80.89a1,1,0,0,0-1-1H103.2V73.14h6.55a1,1,0,0,0,1-1V70a1,1,0,0,0-1-1H103.2V62.85l6.89,0a1,1,0,0,0,1-1V59.7A1,1,0,0,0,110.08,58.66Z"/><path class="cls-1" d="M133.59,58.66H123.51a1,1,0,0,0-1,1V83a1,1,0,0,0,1,1h10.08a1,1,0,0,0,1-1V80.89a1,1,0,0,0-1-1h-6.88V73.14h6.55a1,1,0,0,0,1-1V70a1,1,0,0,0-1-1h-6.55V62.85l6.89,0a1,1,0,0,0,1-1V59.7A1,1,0,0,0,133.59,58.66Z"/><path class="cls-1" d="M152.75,58.66h-2.13a1,1,0,0,0-1,1V73.47l-6.68-14.21a1.05,1.05,0,0,0-.94-.6h-2.13a1,1,0,0,0-1,1V83a1,1,0,0,0,1,1H142a1,1,0,0,0,1-1V69.21l6.69,14.21a1,1,0,0,0,.93.59h2.13a1,1,0,0,0,1-1V59.7A1,1,0,0,0,152.75,58.66Z"/><path class="cls-1" d="M170.08,58.66H160a1,1,0,0,0-1,1V83a1,1,0,0,0,1,1h10.08a1,1,0,0,0,1-1V80.89a1,1,0,0,0-1-1h-6.89V73.14h6.56a1,1,0,0,0,1-1V70a1,1,0,0,0-1-1h-6.56V62.85l6.89,0a1,1,0,0,0,1-1V59.7A1,1,0,0,0,170.08,58.66Z"/><path class="cls-1" d="M185.91,72.69a6.18,6.18,0,0,0,3.89-6v-1c0-5.17-4.14-7-8-7h-5.39a1,1,0,0,0-1,1V83a1,1,0,0,0,1,1h2.17a1,1,0,0,0,1-1V73.74h2.26l3.93,9.63a1,1,0,0,0,1,.64H189a1,1,0,0,0,.86-.45,1,1,0,0,0,.1-1Zm-6.32-9.87h2.46c3.19,0,3.56,1.84,3.56,3.23v.3c0,.8,0,3.23-3.56,3.23h-2.46Z"/><path class="cls-1" d="M208.46,69.51H202a1,1,0,0,0-1,1v2.1a1,1,0,0,0,1,1h3.3V75c0,5.15-2.68,5.15-3.56,5.15s-3.53,0-3.53-5.22V67.71c0-5.22,2.66-5.22,3.53-5.22,2,0,3.18,1.3,3.48,3.82A.75.75,0,0,0,206,67h2.74a.74.74,0,0,0,.74-.78c-.56-7.28-6-7.88-7.7-7.88S194,59,194,67.41V75.2c0,8.43,5.93,9.08,7.75,9.08s7.75-.65,7.75-9.08V70.54A1,1,0,0,0,208.46,69.51Z"/><path class="cls-1" d="M228.21,59.13a1,1,0,0,0-.86-.47h-2.3a1,1,0,0,0-1,.64l-3.73,8.94-3.68-8.94a1,1,0,0,0-.95-.64h-2.3a1,1,0,0,0-.95,1.44l5.71,13.51V83a1,1,0,0,0,1,1h2.23a1,1,0,0,0,1-1V73.61L228.3,60.1A1,1,0,0,0,228.21,59.13Z"/><path class="cls-1" d="M58.27,43.25H44.92V1.62a1,1,0,0,0-1-1h-6.1a1,1,0,0,0-1,1V50.15a1,1,0,0,0,1,1H58.27a1,1,0,0,0,1-1v-5.9A1,1,0,0,0,58.27,43.25Z"/><path class="cls-1" d="M83.78,43.25H70.43V1.62a1,1,0,0,0-1-1h-6.1a1,1,0,0,0-1,1V50.15a1,1,0,0,0,1,1H83.78a1,1,0,0,0,1-1v-5.9A1,1,0,0,0,83.78,43.25Z"/><rect class="cls-1" x="88.6" y="0.62" width="8.31" height="50.52" rx="1"/><path class="cls-1" d="M165.3.62h-5.89a1,1,0,0,0-1,1v30l-14-30.45a1,1,0,0,0-.91-.59h-6a1,1,0,0,0-1,1V50.15a1,1,0,0,0,1,1h6a1,1,0,0,0,1-1V20.07l14,30.49a1,1,0,0,0,.91.59h6a1,1,0,0,0,1-1V1.62A1,1,0,0,0,165.3.62Z"/><path class="cls-1" d="M186.93,0c-9.48,0-15.14,6.64-15.14,17.77l-.07,16.16c0,11.13,5.66,17.77,15.14,17.77,4.35,0,14.5-1.65,14.94-16.94V33.58a1,1,0,0,0-1-1h-6.1a1,1,0,0,0-1,.94l-.07,1.24c-.39,6-2.67,9.05-6.77,9.05-4.58,0-6.9-3.51-6.9-10.44v-15C180,11.45,182.28,8,186.86,8c4.16,0,6.43,3.06,6.77,9.11l.07,1.11a1,1,0,0,0,1,.94h6.1a1,1,0,0,0,1-1V16.84C201.36,1.64,191.26,0,186.93,0Z"/><path class="cls-1" d="M227.35,8.52a1,1,0,0,0,1-1V1.62a1,1,0,0,0-1-1h-21a1,1,0,0,0-1,1V50.15a1,1,0,0,0,1,1h21a1,1,0,0,0,1-1v-5.9a1,1,0,0,0-1-1H213.44V29.38h9.35a1,1,0,0,0,1-1V22.49a1,1,0,0,0-1-1h-9.35V8.58Z"/><path class="cls-1" d="M21.32,1.39a1,1,0,0,0-1-.77H12.66a1,1,0,0,0-1,.77L.11,49.91a1,1,0,0,0,.18.86,1,1,0,0,0,.79.38h6.1a1,1,0,0,0,1-.78l1.34-5.91H19.1a.72.72,0,0,0,.71-.86L18.5,37.09a1.45,1.45,0,0,0-1.41-1.16H11.42l5.11-22.62,8.32,37.05a1,1,0,0,0,1,.79h6.09a1,1,0,0,0,.79-.38,1,1,0,0,0,.19-.86Z"/><path class="cls-1" d="M121.45,1.39a1,1,0,0,0-1-.77h-7.7a1,1,0,0,0-1,.77L100.24,49.91a1,1,0,0,0,.18.86,1,1,0,0,0,.79.38h6.1a1,1,0,0,0,1-.78l1.34-5.91h9.93a.72.72,0,0,0,.71-.86L119,37.09a1.45,1.45,0,0,0-1.41-1.16h-6l5.11-22.62L125,50.36a1,1,0,0,0,1,.79h6.1a1,1,0,0,0,.79-.38,1,1,0,0,0,.19-.86Z"/><path class="cls-3" d="M4.86,98.53a.37.37,0,0,1,.36-.36H5.7a.37.37,0,0,1,.37.36v7.22c0,1.72.6,2.93,3,2.93a4,4,0,0,0,3.08-1.63V98.53a.37.37,0,0,1,.36-.36H13a.37.37,0,0,1,.36.36v10.75a.37.37,0,0,1-.36.36h-.29a.37.37,0,0,1-.37-.33l-.09-.83h-.15a4.7,4.7,0,0,1-3.19,1.36c-2.86,0-4-1.67-4-3.9Z"/><path class="cls-3" d="M16.07,109a.37.37,0,0,1-.19-.31.47.47,0,0,1,0-.17l.27-.46a.33.33,0,0,1,.29-.2.67.67,0,0,1,.19.05,4.93,4.93,0,0,0,2.64.78c1.36,0,2.52-.59,2.52-2.09,0-1.06-1.23-1.67-2.47-2.27-1.5-.75-3.12-1.62-3.12-3.32a3,3,0,0,1,3.27-3,6.78,6.78,0,0,1,2.88.77.36.36,0,0,1,.22.32.49.49,0,0,1-.05.16l-.22.44a.37.37,0,0,1-.32.19.41.41,0,0,1-.17,0,5,5,0,0,0-2.25-.67,1.89,1.89,0,0,0-2.08,1.76c0,1.09,1.21,1.68,2.59,2.35,1.67.85,3,1.65,3,3.27,0,2.28-1.67,3.32-3.6,3.32A7.33,7.33,0,0,1,16.07,109Z"/><path class="cls-3" d="M26.63,96.09a.84.84,0,0,1-.92-.87.92.92,0,0,1,1.84,0A.84.84,0,0,1,26.63,96.09Zm.6,13.19a.37.37,0,0,1-.36.36h-.49a.37.37,0,0,1-.36-.36V98.53a.37.37,0,0,1,.36-.36h.49a.37.37,0,0,1,.36.36Z"/><path class="cls-3" d="M39.41,109.28a.37.37,0,0,1-.36.36h-.49a.37.37,0,0,1-.36-.36v-7.19c0-1.72-.61-3-3-3a4,4,0,0,0-3.07,1.62v8.52a.37.37,0,0,1-.36.36H31.3a.37.37,0,0,1-.36-.36V98.53a.37.37,0,0,1,.36-.36h.29a.35.35,0,0,1,.36.34l.1.85h.15A4.52,4.52,0,0,1,35.39,98c2.86,0,4,1.67,4,3.92Z"/><path class="cls-3" d="M51.57,98.17a.37.37,0,0,1,.36.36v12.62c0,2.42-1.91,3.68-4.45,3.68a13.45,13.45,0,0,1-3.85-.66.36.36,0,0,1-.25-.34.18.18,0,0,1,0-.12l.14-.46a.38.38,0,0,1,.34-.24.23.23,0,0,1,.12,0,11.15,11.15,0,0,0,3.32.63c2.4,0,3.39-1,3.39-2.47v-2.9h-.17a4.66,4.66,0,0,1-3.07,1.18c-3,0-5.11-2.1-5.11-5.56S44.5,98,47.48,98A5.4,5.4,0,0,1,50.84,99l.1-.56a.37.37,0,0,1,.36-.31Zm-.85,2.1a5.45,5.45,0,0,0-3.24-1.13c-2.28,0-3.83,1.93-3.83,4.77s1.55,4.4,3.83,4.4a4.21,4.21,0,0,0,3.24-1.52Z"/><path class="cls-3" d="M65.61,109.33a.38.38,0,0,1-.29.36,6.28,6.28,0,0,1-1.47.15A2.59,2.59,0,0,1,61,106.91V93.55a.37.37,0,0,1,.36-.37h.49a.37.37,0,0,1,.36.37v13.17c0,1.16.44,2,1.79,2a4.23,4.23,0,0,0,1-.15h.1a.34.34,0,0,1,.34.27Z"/><path class="cls-3" d="M75,107.92a.37.37,0,0,1,.34.27l.14.44s0,.05,0,.09a.38.38,0,0,1-.22.37,10.35,10.35,0,0,1-3.68.75c-3.12,0-5.23-2.47-5.23-5.93S68.42,98,71.55,98c2.61,0,4.38,1.86,4.38,4.81,0,.37,0,.71,0,1a.36.36,0,0,1-.36.34H67.62c.1,2.84,1.72,4.51,3.95,4.51a7.78,7.78,0,0,0,3.24-.71A.44.44,0,0,1,75,107.92Zm-.29-4.84v-.36c0-2.28-1.28-3.58-3.1-3.58-2.13,0-3.63,1.47-3.9,3.94Z"/><path class="cls-3" d="M77.87,109a.37.37,0,0,1-.19-.31.47.47,0,0,1,0-.17l.27-.46a.33.33,0,0,1,.29-.2.67.67,0,0,1,.19.05,4.93,4.93,0,0,0,2.64.78c1.36,0,2.52-.59,2.52-2.09,0-1.06-1.23-1.67-2.47-2.27C79.66,103.57,78,102.7,78,101a3,3,0,0,1,3.27-3,6.78,6.78,0,0,1,2.88.77.36.36,0,0,1,.22.32.49.49,0,0,1,0,.16l-.22.44a.37.37,0,0,1-.32.19.41.41,0,0,1-.17,0,5,5,0,0,0-2.25-.67,1.89,1.89,0,0,0-2.08,1.76c0,1.09,1.21,1.68,2.59,2.35,1.67.85,3,1.65,3,3.27,0,2.28-1.67,3.32-3.6,3.32A7.33,7.33,0,0,1,77.87,109Z"/><path class="cls-3" d="M86.85,109a.37.37,0,0,1-.19-.31.34.34,0,0,1,0-.17l.26-.46a.34.34,0,0,1,.29-.2.73.73,0,0,1,.2.05,4.88,4.88,0,0,0,2.64.78c1.35,0,2.51-.59,2.51-2.09,0-1.06-1.23-1.67-2.46-2.27C88.64,103.57,87,102.7,87,101a3,3,0,0,1,3.27-3,6.74,6.74,0,0,1,2.88.77.35.35,0,0,1,.22.32.33.33,0,0,1,0,.16l-.22.44a.34.34,0,0,1-.48.14,5.12,5.12,0,0,0-2.25-.67,1.89,1.89,0,0,0-2.09,1.76c0,1.09,1.22,1.68,2.6,2.35,1.67.85,3,1.65,3,3.27,0,2.28-1.67,3.32-3.61,3.32A7.36,7.36,0,0,1,86.85,109Z"/><path class="cls-3" d="M98,109.84a.92.92,0,0,1-1-1,1,1,0,0,1,2,0A.92.92,0,0,1,98,109.84Z"/><path class="cls-3" d="M117.26,109.06a.57.57,0,0,1-.6.58H116a.64.64,0,0,1-.58-.48l-.22-.94H115a4,4,0,0,1-3.42,1.62c-3,0-4.94-2.37-4.94-5.93s2.2-5.93,5.11-5.93a5.34,5.34,0,0,1,3,.79v-5a.61.61,0,0,1,.61-.61h1a.6.6,0,0,1,.6.61V105a25.65,25.65,0,0,0,.34,3.92Zm-2.54-8.42a4.31,4.31,0,0,0-2.61-1c-2,0-3.22,1.7-3.22,4.22s1.18,4.21,3,4.21a2.88,2.88,0,0,0,2.78-2.23Z"/><path class="cls-3" d="M131,103.91c0,3.89-2.5,5.93-5.62,5.93s-5.62-2-5.62-5.93,2.5-5.93,5.62-5.93S131,100,131,103.91Zm-2.28,0c0-2.62-1.33-4.22-3.34-4.22s-3.34,1.6-3.34,4.22,1.33,4.21,3.34,4.21S128.67,106.55,128.67,103.91Z"/><path class="cls-3" d="M134.85,96.35a1.15,1.15,0,0,1-1.31-1.21,1.3,1.3,0,0,1,2.59,0A1.15,1.15,0,0,1,134.85,96.35Zm-.53,13.29a.6.6,0,0,1-.61-.6V98.77a.6.6,0,0,1,.61-.6h1a.6.6,0,0,1,.6.6V109a.59.59,0,0,1-.6.6Z"/><path class="cls-3" d="M148.92,101.87V109a.6.6,0,0,1-.61.6h-1a.6.6,0,0,1-.61-.6v-7c0-1.43-.6-2.4-2.44-2.4a3.48,3.48,0,0,0-2.64,1.38v8a.6.6,0,0,1-.61.6h-1a.59.59,0,0,1-.6-.6V98.77a.6.6,0,0,1,.6-.6h.65a.62.62,0,0,1,.61.53l.07.63h.2A4.8,4.8,0,0,1,144.82,98C147.49,98,148.92,99.4,148.92,101.87Z"/><path class="cls-3" d="M161.41,98.17a.6.6,0,0,1,.61.6v12.09c0,2.44-2,4-4.8,4a16.11,16.11,0,0,1-3.92-.61.56.56,0,0,1-.43-.56s0-.09,0-.14a4.11,4.11,0,0,1,.17-.63.6.6,0,0,1,.56-.39.52.52,0,0,1,.17,0,12.12,12.12,0,0,0,3.14.56c2,0,2.88-.87,2.88-2.13v-2.44h-.14a4.47,4.47,0,0,1-2.76,1c-3.08,0-5.21-2-5.21-5.56S153.88,98,157,98a5.36,5.36,0,0,1,3.19,1l0-.32a.65.65,0,0,1,.63-.53Zm-1.6,2.47a4.4,4.4,0,0,0-2.61-1c-2,0-3.22,1.7-3.22,4.22s1.26,3.87,3.22,3.87a3.3,3.3,0,0,0,2.61-1.23Z"/><path class="cls-3" d="M187.42,109a.6.6,0,0,1-.61.6h-1a.6.6,0,0,1-.61-.6v-7c0-1.38-.53-2.38-2.39-2.38a3.23,3.23,0,0,0-2.57,1.38v8a.6.6,0,0,1-.6.6h-1a.59.59,0,0,1-.6-.6v-7c0-1.38-.51-2.38-2.42-2.38a3.33,3.33,0,0,0-2.57,1.38v8a.6.6,0,0,1-.61.6h-1a.59.59,0,0,1-.6-.6V98.77a.6.6,0,0,1,.6-.6h.61a.61.61,0,0,1,.6.53l.1.63H173A4.78,4.78,0,0,1,176.26,98a4,4,0,0,1,3.41,1.5h.19a5.17,5.17,0,0,1,3.51-1.5c2.47,0,4,1.25,4,3.87Z"/><path class="cls-3" d="M201.44,103.91c0,3.89-2.49,5.93-5.62,5.93s-5.61-2-5.61-5.93S192.7,98,195.82,98,201.44,100,201.44,103.91Zm-2.28,0c0-2.62-1.33-4.22-3.34-4.22s-3.34,1.6-3.34,4.22,1.33,4.21,3.34,4.21S199.16,106.55,199.16,103.91Z"/><path class="cls-3" d="M206.07,99.36h.24a4.42,4.42,0,0,1,3-1.38,7.14,7.14,0,0,1,1.87.29.57.57,0,0,1,.43.55.68.68,0,0,1,0,.2l-.24.79a.6.6,0,0,1-.56.44.69.69,0,0,1-.24,0,4.34,4.34,0,0,0-1.6-.36,3.43,3.43,0,0,0-2.52,1.45V109a.6.6,0,0,1-.6.6h-1a.59.59,0,0,1-.6-.6V98.77a.6.6,0,0,1,.6-.6h.58a.64.64,0,0,1,.61.6Z"/><path class="cls-3" d="M221.42,107.44a.6.6,0,0,1,.56.41l.14.49a.32.32,0,0,1,0,.17.62.62,0,0,1-.42.58,12.41,12.41,0,0,1-3.85.75c-3.12,0-5.61-2-5.61-5.93S214.74,98,217.86,98s4.74,1.93,4.74,5v.87a.59.59,0,0,1-.6.6h-7.51c.17,2.5,1.68,3.76,3.44,3.76a8.43,8.43,0,0,0,3.25-.68A1,1,0,0,1,221.42,107.44Zm-.9-4.86a2.68,2.68,0,0,0-2.68-3c-1.67,0-3,1.14-3.32,3.34h6Z"/><path class="cls-3" d="M227.09,109.84a1.38,1.38,0,1,1,1.47-1.38A1.33,1.33,0,0,1,227.09,109.84Z"/></g></g></svg>