<svg width="125" height="159" viewBox="0 0 125 159" fill="none" xmlns="http://www.w3.org/2000/svg">
<path d="M73.8291 15.205C73.4491 15.205 73.0691 15.055 72.7791 14.765L61.6191 3.605L50.4591 14.765C49.8791 15.345 48.9291 15.345 48.3491 14.765C47.7691 14.185 47.7691 13.235 48.3491 12.655L60.5691 0.435C61.1491 -0.145 62.0991 -0.145 62.6791 0.435L74.8991 12.655C75.4791 13.235 75.4791 14.185 74.8991 14.765C74.6091 15.055 74.2291 15.205 73.8491 15.205H73.8291Z" fill="url(#paint0_linear_245_89)"/>
<path d="M61.6111 26.5954C60.7911 26.5954 60.1211 25.9254 60.1211 25.1054V1.5154C60.1211 0.695396 60.7911 0.0253906 61.6111 0.0253906C62.4311 0.0253906 63.1011 0.695396 63.1011 1.5154V25.1054C63.1011 25.9254 62.4311 26.5954 61.6111 26.5954Z" fill="url(#paint1_linear_245_89)"/>
<circle cx="62.5" cy="96.5" r="62.5" fill="url(#paint2_linear_245_89)"/>
<path d="M78.9267 82.0598H70.4896V73.6194C70.4896 73.5528 70.4334 73.4971 70.368 73.4971C65.5802 73.4971 61.688 77.3914 61.688 82.1762C61.688 82.9462 61.8223 83.6796 62.0144 84.3909L66.9745 80.5334C67.3516 80.2359 67.9547 80.3076 68.255 80.6906C68.5696 81.0936 68.4978 81.6708 68.0957 81.9801L62.7012 86.1818C64.1498 88.9529 67.0312 90.8582 70.3682 90.8582C75.158 90.8582 79.0484 86.969 79.0484 82.1782C79.0482 82.1146 78.9967 82.0598 78.9267 82.0598Z" fill="white"/>
<path d="M79.0892 75.3011C79.0152 75.2151 78.9083 75.1645 78.7949 75.1617C78.6754 75.1589 78.5719 75.2045 78.494 75.2868L73.5966 80.4528C73.4862 80.5692 73.4559 80.7402 73.5191 80.8875C73.5824 81.0349 73.7274 81.1304 73.8879 81.1304H81.0287C81.0297 81.1304 81.0308 81.1306 81.0313 81.1304C81.253 81.1304 81.4327 80.9507 81.4327 80.729C81.4327 80.6983 81.4293 80.6685 81.4228 80.6398C81.2017 78.6627 80.3955 76.8175 79.0892 75.3011ZM74.8214 80.3276L78.7636 76.1691C79.7145 77.3869 80.3326 78.8093 80.571 80.3276H74.8214Z" fill="white"/>
<path d="M71.9673 79.7322C72.0155 79.7514 72.0659 79.7607 72.1158 79.7607C72.2239 79.7607 72.3299 79.717 72.4073 79.6353L77.1076 74.6753C77.1861 74.5924 77.2257 74.4797 77.2162 74.3659C77.2068 74.252 77.1489 74.1475 77.0577 74.0787C75.6192 72.9949 73.925 72.3229 72.1582 72.1356C72.0456 72.1233 71.932 72.1603 71.8475 72.2363C71.763 72.3124 71.7147 72.4209 71.7147 72.5347V79.3593C71.7145 79.5237 71.8146 79.6714 71.9673 79.7322ZM72.5172 72.9923C73.8323 73.1991 75.0934 73.6997 76.2082 74.4574L72.5172 78.3523V72.9923Z" fill="white"/>
<path d="M47.7742 73.8843C45.4888 73.8843 43.6362 75.7379 43.6361 78.0233C43.6361 80.3088 45.4888 82.1614 47.7742 82.1614C50.0607 82.1614 51.9133 80.3088 51.9133 78.0233C51.9133 75.7379 50.0607 73.8843 47.7742 73.8843Z" fill="white"/>
<path d="M95.7354 116.988L92.8241 114.31C92.3406 115.663 91.3793 117.68 89.4788 119.814C87.8592 121.634 85.8212 123.232 83.4233 124.585L86.4702 127.387C89.2919 129.99 93.6638 129.763 96.2189 126.899C98.7721 124.03 98.553 119.582 95.7354 116.988Z" fill="white"/>
<path d="M88.2594 118.929C89.8254 117.174 90.9318 115.224 91.5466 113.143L89.0329 110.826C86.4779 108.474 83.8196 109.549 81.1928 111.801C81.1928 111.801 81.1402 111.841 81.0552 111.915C81.0545 111.915 81.0539 111.914 81.0532 111.914C79.9489 111.079 78.6875 110.704 77.351 110.423C76.1937 110.179 74.6245 109.941 73.8761 108.912C73.2855 108.1 73.8821 106.966 74.2691 106.203C74.4117 105.922 74.5619 105.645 74.7122 105.368L83.4213 105.371C85.6514 105.371 86.9475 103.753 86.9475 101.755V68.6127C86.9556 66.6177 85.3776 65 83.4253 65H37.5351C35.5812 65 34 66.6177 34 68.6127V101.751C34 103.751 35.5811 105.365 37.5351 105.365H55.1431C55.1431 105.365 55.9052 112.596 49.8021 112.596V116.214H55.1431H65.8101H71.152V112.596C64.8182 112.596 65.8101 105.365 65.8101 105.365L73.3665 105.368C72.6957 106.615 72.1542 107.896 72.7254 109.248C73.2467 110.481 74.874 111.028 76.053 111.33C77.5466 111.711 78.9833 111.896 80.2679 112.781C80.0368 113.081 79.8679 113.33 79.8679 113.33C78.0214 116.187 76.8631 118.548 79.3585 120.844L82.2637 123.522C83.7164 122.774 86.16 121.289 88.2594 118.929ZM42.9967 96.7885H41.8962V87.4496H43.0007L42.9967 96.7885ZM60.714 103.124C59.53 103.124 58.5689 102.145 58.5689 100.943C58.5689 99.7418 59.5301 98.7665 60.714 98.7665C61.9 98.7665 62.8602 99.7415 62.8602 100.943C62.8602 102.143 61.8999 103.124 60.714 103.124ZM52.771 96.7885L52.7691 87.4069H53.8307V90.345C53.8307 90.345 53.8307 90.355 53.8307 90.3589C53.8307 92.5862 55.5973 92.2622 56.1947 91.8326C56.6959 91.4721 59.0105 89.9092 59.0105 89.9092L60.4939 88.9043C60.4939 88.9043 61.5573 88.1747 61.5616 88.1711C62.7302 87.3125 61.8043 86.1066 61.8043 86.1066L67.7235 81.4999C67.8566 81.3953 67.8807 81.2043 67.7772 81.072C67.6735 80.9417 67.4828 80.9149 67.3492 81.0182L61.4112 85.6379L61.4091 85.6359C61.1355 85.43 60.9662 85.3445 60.6399 85.3316C60.1871 85.3117 59.7123 85.4695 59.2302 85.803L59.0083 85.9662L57.087 87.2924V86.7264C57.0066 82.3465 51.8216 82.4839 51.8216 82.4839H49.6964L47.9055 85.4767L46.1076 82.4859H44.0661C38.8863 82.4859 38.8475 86.221 38.8475 87.6249H38.8454V96.7865H37.7839V68.8479H83.1752V96.7885H52.771ZM86.993 118.141C86.7837 118.379 86.4869 118.498 86.1924 118.488C85.9657 118.479 85.7417 118.396 85.556 118.234L81.3331 114.519C80.9119 114.145 80.8706 113.503 81.2439 113.078C81.6132 112.657 82.2555 112.618 82.6807 112.989L86.904 116.702C87.3247 117.073 87.3663 117.718 86.993 118.141Z" fill="white"/>
<defs>
<linearGradient id="paint0_linear_245_89" x1="61.6241" y1="0" x2="61.6241" y2="15.205" gradientUnits="userSpaceOnUse">
<stop stop-color="#121F90"/>
<stop offset="1" stop-color="#5DE29B"/>
</linearGradient>
<linearGradient id="paint1_linear_245_89" x1="61.6111" y1="0.0253906" x2="61.6111" y2="26.5954" gradientUnits="userSpaceOnUse">
<stop stop-color="#121F90"/>
<stop offset="1" stop-color="#5DE29B"/>
</linearGradient>
<linearGradient id="paint2_linear_245_89" x1="62.5" y1="34" x2="62.5" y2="159" gradientUnits="userSpaceOnUse">
<stop stop-color="#48DBB2"/>
<stop offset="1" stop-color="#003350"/>
</linearGradient>
</defs>
</svg>
