<svg width="23" height="24" viewBox="0 0 23 24" fill="none" xmlns="http://www.w3.org/2000/svg">
<g clip-path="url(#clip0_2130_1040)">
<path fill-rule="evenodd" clip-rule="evenodd" d="M21.367 18.545L17.5882 22.3238V18.545H21.367ZM14.8824 14.4862V15.8391H4.05882V14.4862H14.8824ZM18.9425 10.4274V11.7803H4.05883V10.4274H18.9425V10.4274ZM7.44117 0.956787C8.56006 0.956787 9.47059 1.86732 9.47059 2.9862C9.47059 3.29874 9.39348 3.59096 9.26766 3.85613L11.9789 6.56609L11.021 7.52397L8.31111 4.81268C8.04593 4.93851 7.7537 5.01563 7.44116 5.01563C6.32228 5.01563 5.41176 4.10509 5.41176 2.98621C5.41177 1.86731 6.3223 0.956787 7.44117 0.956787ZM12.1765 3.66267V5.01562H21.6471V17.1921H16.2353V22.6038H1.35294V5.01562H4.05883V3.66267H0V23.9568H17.0281C17.5693 23.9568 18.0794 23.7457 18.4622 23.3628L22.4061 19.4204C22.7889 19.0361 23 18.5261 23 17.9849V3.66267H12.1765H12.1765Z" fill="#828282"/>
</g>
<defs>
<clipPath id="clip0_2130_1040">
<rect width="23" height="23" fill="white" transform="translate(0 0.956787)"/>
</clipPath>
</defs>
</svg>
