<svg xmlns="http://www.w3.org/2000/svg" width="25" height="25" viewBox="0 0 25 25" fill="none">
  <path fill-rule="evenodd" clip-rule="evenodd" d="M14.0921 1.03684C10.7246 1.57479 8.06551 3.98168 7.11538 7.35194C6.92041 8.04337 6.88262 8.43174 6.88262 9.74231L6.88251 11.3072L5.90921 11.2772L4.93591 11.2472L4.68718 10.2152L4.43855 9.18309H2.64346H0.848267L0.878547 9.95053L0.908827 10.718L2.09326 10.7709L3.2777 10.8238L4.36852 15.2167L5.45944 19.6096L11.4935 19.6369L17.5275 19.6642L17.642 19.0547C17.705 18.7195 17.7759 18.35 17.7995 18.2335C17.8297 18.0851 18.1325 17.8852 18.8125 17.5646C21.5658 16.2669 23.414 13.6211 23.7058 10.5592C23.9916 7.56184 22.8403 4.72074 20.5892 2.86863C19.7561 2.18313 18.324 1.45179 17.3217 1.20007C16.4678 0.985611 14.9069 0.906644 14.0921 1.03684ZM13.9567 3.24198C13.4497 3.78416 12.8482 4.7941 12.9831 4.87656C13.0266 4.90324 13.3983 4.95902 13.8089 5.00062L14.5556 5.07631V3.90112C14.5556 3.25489 14.5294 2.72605 14.4974 2.72605C14.4654 2.72605 14.2221 2.95829 13.9567 3.24198ZM16.1005 3.95405V5.07631L16.8472 5.00073C17.258 4.95923 17.6087 4.91149 17.6266 4.89466C17.7847 4.747 16.4512 2.8319 16.1904 2.8319C16.141 2.8319 16.1005 3.33693 16.1005 3.95405ZM11.3113 3.79241C10.7888 4.19762 10.7699 4.26526 11.1421 4.39853C11.4386 4.5048 11.4506 4.49517 11.656 3.98718C11.7717 3.70106 11.8342 3.4684 11.7948 3.46998C11.7555 3.47157 11.5379 3.6167 11.3113 3.79241ZM18.9288 3.98803C19.1814 4.50046 19.1908 4.50703 19.497 4.38826C19.6683 4.32178 19.8082 4.24218 19.8081 4.21127C19.8079 4.13929 18.8509 3.46702 18.7488 3.46702C18.7065 3.46702 18.7875 3.70148 18.9288 3.98803ZM9.36695 5.92324C8.84868 6.83304 8.37593 8.18849 8.37593 8.76486C8.37593 8.82203 8.83972 8.86553 9.44996 8.86553H10.524L10.5906 8.25688C10.6705 7.52617 10.838 6.44943 10.9118 6.1921C10.952 6.05174 10.8561 5.95827 10.5202 5.8105C9.6441 5.42499 9.65131 5.42424 9.36695 5.92324ZM20.2203 5.7453C19.9087 5.88206 19.6651 6.04338 19.6788 6.10393C19.7778 6.54195 20.0136 8.24216 20.0139 8.52151L20.0143 8.86553H21.0958C22.3423 8.86553 22.3014 8.91433 22.0139 7.76932C21.8237 7.01268 21.0754 5.474 20.9041 5.48744C20.8395 5.49252 20.5319 5.60854 20.2203 5.7453ZM12.3051 6.93265C12.2449 7.22089 12.1642 7.77376 12.1256 8.16118L12.0553 8.86553H13.3055H14.5556V7.76339V6.66124L14.1694 6.60228C13.957 6.56989 13.4752 6.51305 13.0987 6.476L12.4145 6.40868L12.3051 6.93265ZM17.1305 6.4994C16.9322 6.5211 16.6193 6.56439 16.4353 6.59551L16.1005 6.65225V7.75884V8.86553H17.285H18.4694L18.4646 8.36273C18.462 8.08624 18.4039 7.55031 18.3356 7.17188C18.2115 6.48415 18.2112 6.48383 17.8512 6.47198C17.6531 6.46542 17.3287 6.4778 17.1305 6.4994ZM8.41456 10.7841C8.44999 10.9661 8.47893 11.1566 8.47893 11.2075C8.47893 11.3201 10.5079 11.333 10.572 11.2208C10.5969 11.1772 10.5943 10.9865 10.5663 10.7974L10.5154 10.4533H9.43286H8.35018L8.41456 10.7841ZM12.1033 10.8503L12.1352 11.2472L13.3454 11.2771L14.5556 11.3068V10.8801V10.4533H13.3135H12.0713L12.1033 10.8503ZM16.1005 10.8767V11.3002H17.285H18.4694V10.8767V10.4533H17.285H16.1005V10.8767ZM19.9738 11.2208C19.936 11.6428 19.844 12.2898 19.7694 12.6582L19.6339 13.3283L20.2103 13.5919C20.5958 13.7681 20.838 13.8242 20.9413 13.7611C21.186 13.6118 21.8393 12.2633 22.016 11.543C22.2962 10.4015 22.3392 10.4533 21.11 10.4533H20.0427L19.9738 11.2208ZM5.39022 12.9144C5.39084 12.9872 5.66893 14.1624 6.00819 15.526C6.34746 16.8896 6.62503 18.021 6.62503 18.04C6.62503 18.0591 8.80336 18.0748 11.4658 18.0748C14.1282 18.0748 16.3069 18.039 16.3074 17.9954C16.3079 17.9518 16.5164 16.7975 16.7709 15.4304C17.0253 14.0634 17.2335 12.9084 17.2335 12.8635C17.2335 12.8187 14.5685 12.7821 11.3113 12.7821C6.64161 12.7821 5.3893 12.81 5.39022 12.9144ZM18.9032 15.3755C18.7794 15.6375 18.7157 15.8518 18.7616 15.8518C18.8075 15.8518 19.0704 15.6872 19.3456 15.4861L19.8461 15.1204L19.563 15.0098C19.1549 14.8504 19.1503 14.8529 18.9032 15.3755ZM6.7032 20.2366C5.77182 20.5782 5.27127 21.2339 5.20319 22.2013C5.10009 23.6663 5.99151 24.6754 7.39749 24.6854C8.16407 24.6909 8.8597 24.312 9.2794 23.6607C9.52113 23.2856 9.56037 23.1164 9.56037 22.4495V21.6743L11.5006 21.674L13.4408 21.6738L13.3743 22.0787C13.2071 23.0955 13.9027 24.2564 14.8789 24.5896C15.752 24.8877 16.5561 24.6817 17.2122 23.9918C18.3391 22.8073 17.8601 20.7871 16.3248 20.2495C15.6828 20.0247 7.31159 20.0135 6.7032 20.2366ZM6.83853 21.9527C6.72112 22.1061 6.62503 22.314 6.62503 22.4147C6.62503 22.5155 6.72112 22.7234 6.83853 22.8768C7.25401 23.4197 8.10125 23.1097 8.10125 22.4147C8.10125 21.7198 7.25401 21.4098 6.83853 21.9527ZM15.0885 21.9187C14.7981 22.2366 14.8037 22.6366 15.1029 22.9256C15.5777 23.3839 16.3065 23.0745 16.3065 22.4147C16.3065 21.7454 15.5344 21.4309 15.0885 21.9187Z" fill="#4F4281"/>
</svg>