<svg width="141" height="170" viewBox="0 0 141 170" fill="none" xmlns="http://www.w3.org/2000/svg">
<path d="M69.3886 33.6594C68.3772 33.6594 67.5508 32.8329 67.5508 31.8215V2.72456C67.5508 1.71313 68.3772 0.886719 69.3886 0.886719C70.4 0.886719 71.2264 1.71313 71.2264 2.72456V31.8215C71.2264 32.8329 70.4 33.6594 69.3886 33.6594Z" fill="url(#paint0_linear_251_71)"/>
<path d="M70.6202 169.842C32.1244 169.842 0.794922 138.525 0.794922 100.017C0.794922 61.5086 32.1244 30.1914 70.6202 30.1914C109.116 30.1914 140.446 61.5086 140.446 100.017C140.446 138.525 109.128 169.842 70.6202 169.842ZM70.6202 33.8671C34.1473 33.8671 4.47058 63.5438 4.47058 100.017C4.47058 136.49 34.1473 166.166 70.6202 166.166C107.093 166.166 136.77 136.49 136.77 100.017C136.77 63.5438 107.093 33.8671 70.6202 33.8671Z" fill="url(#paint1_linear_251_71)"/>
<path d="M84.4608 19.61C83.9921 19.61 83.5234 19.425 83.1657 19.0673L69.4005 5.30203L55.6352 19.0673C54.9198 19.7827 53.748 19.7827 53.0326 19.0673C52.3172 18.3519 52.3172 17.1801 53.0326 16.4647L68.1053 1.39202C68.8207 0.676619 69.9925 0.676619 70.7079 1.39202L85.7806 16.4647C86.496 17.1801 86.496 18.3519 85.7806 19.0673C85.4229 19.425 84.9542 19.61 84.4855 19.61H84.4608Z" fill="url(#paint2_linear_251_71)"/>
<g clip-path="url(#clip0_251_71)">
<path d="M121.431 99.1217L110.615 88.2618C110.269 87.9143 109.577 87.9143 109.04 88.2618L98.225 99.2954C97.8789 99.6429 97.8789 99.9905 98.052 100.529C98.225 100.877 98.5711 101.224 99.1076 101.224H105.562V102.267C105.562 121.536 90.0399 137.123 70.849 137.123C51.6581 137.123 36.1185 121.536 36.1185 102.267C36.1185 82.9969 51.6408 67.4108 70.8317 67.4108C81.8202 67.4108 91.7704 72.4845 98.3981 81.0682C98.5711 81.242 98.7442 81.4157 98.9172 81.4157C99.2633 81.5895 99.6094 81.4157 99.9728 81.242C100.492 80.8944 100.492 80.182 100.146 79.6608C93.1721 70.3821 82.3566 65.1172 70.8317 65.1172C50.4295 65.1346 33.8516 81.7806 33.8516 102.267C33.8516 122.753 50.4295 139.399 70.8317 139.399C91.2339 139.399 107.829 122.753 107.829 102.267V101.224H113.055V102.267C113.055 125.741 94.0373 145.011 70.4856 145.011C46.934 145.011 28.0892 125.568 28.0892 102.093C28.0892 78.6182 47.107 59.3484 70.6587 59.3484C84.0871 59.3484 96.4773 65.6558 104.68 76.342C105.026 76.8632 105.735 76.8632 106.254 76.5157C106.774 76.1682 106.774 75.4732 106.427 74.9345C102.413 69.4959 97.0137 64.9434 90.9052 61.7984C84.6236 58.4623 77.8228 56.8984 70.6587 56.8984C45.8784 57.246 25.8223 77.4019 25.8223 102.093C25.8223 126.784 45.8784 146.94 70.4856 146.94C95.0929 146.94 115.149 126.801 115.149 102.093V101.05H120.548C121.067 101.05 121.604 100.529 121.604 99.9905C121.777 99.6429 121.604 99.2954 121.431 99.1217Z" fill="url(#paint3_linear_251_71)"/>
<path d="M70.4853 129.425C81.4737 129.425 91.4239 122.77 95.6117 112.605C95.7847 112.084 95.6117 111.372 95.0925 111.198C94.5734 111.024 93.8639 111.198 93.6908 111.719C89.8492 121.172 80.6085 127.132 70.4853 127.132C69.9661 127.132 69.4297 127.653 69.4297 128.174C69.4297 128.695 69.9488 129.408 70.4853 129.408V129.425Z" fill="url(#paint4_linear_251_71)"/>
<path d="M70.4859 76.8642C71.005 76.8642 71.5242 76.3429 71.5242 75.8216C71.5242 75.3004 71.005 74.7617 70.4859 74.7617C55.4827 74.7617 43.2656 87.029 43.2656 102.094C43.2656 108.401 45.5325 114.709 49.5472 119.609C49.7203 119.782 50.0664 119.956 50.4125 119.956C50.5855 119.956 50.9316 119.956 51.1046 119.782C51.6238 119.435 51.6238 118.723 51.2777 118.201C47.6091 113.649 45.5152 108.036 45.5152 102.076C45.5152 88.2453 56.6767 76.8468 70.4686 76.8468L70.4859 76.8642Z" fill="url(#paint5_linear_251_71)"/>
<path d="M92.2904 86.6797C93.5363 86.6797 94.5573 87.7049 94.5573 88.9559C94.5573 90.207 93.5363 91.2322 92.2904 91.2322C91.0444 91.2322 90.0234 90.207 90.0234 88.9559C90.0234 87.7049 91.0444 86.6797 92.2904 86.6797Z" fill="url(#paint6_linear_251_71)"/>
<path d="M55.3099 93.3359C56.5558 93.3359 57.5768 94.3611 57.5768 95.6122C57.5768 96.8632 56.5558 97.8884 55.3099 97.8884C54.0639 97.8884 53.043 96.8632 53.043 95.6122C53.043 94.3611 54.0639 93.3359 55.3099 93.3359Z" fill="url(#paint7_linear_251_71)"/>
<path d="M57.4036 112.953C58.6496 112.953 59.6705 113.978 59.6705 115.229C59.6705 116.48 58.6496 117.506 57.4036 117.506C56.1577 117.506 55.1367 116.48 55.1367 115.229C55.1367 113.978 56.1577 112.953 57.4036 112.953Z" fill="url(#paint8_linear_251_71)"/>
</g>
<path d="M81.7359 110.203C80.6772 109.787 80.2235 109.56 80.2235 109.069C80.2235 108.653 80.6016 108.274 81.3956 108.274C82.1897 108.274 82.7947 108.501 83.0972 108.653L83.5131 107.178C83.135 107.027 82.6812 106.875 82.0762 106.8V105.59H79.9588V106.989C78.9001 107.367 78.2951 108.199 78.2951 109.22C78.2951 110.392 79.1647 111.148 80.526 111.64C81.5091 111.98 81.8872 112.283 81.8872 112.774C81.8872 113.303 81.4334 113.644 80.6016 113.644C79.8075 113.644 79.0513 113.379 78.5598 113.152L78.1816 114.665C78.5598 114.854 79.2026 115.043 79.921 115.118V116.291H82.0384V114.929C83.2106 114.513 83.7778 113.644 83.7778 112.623C83.8534 111.488 83.1728 110.732 81.7359 110.203Z" fill="url(#paint9_linear_251_71)"/>
<path d="M83.9673 91.6755H83.6648L72.5103 80.5589C72.2079 80.2564 71.7541 80.2564 71.4516 80.5589L59.3519 92.6586C59.3141 92.6965 59.2762 92.7721 59.2384 92.8099C59.2384 92.8099 59.2384 92.8477 59.2006 92.8477C59.1628 92.9233 59.1628 92.9611 59.125 93.0368C59.125 93.0746 59.125 93.1124 59.125 93.188V108.313C59.125 108.729 59.4653 109.069 59.8812 109.069H73.4935V118.9H88.5047V96.213C88.5047 93.7174 86.4629 91.6755 83.9673 91.6755ZM71.981 82.147L81.5095 91.6755H72.0566C72.0188 91.6755 71.981 91.6755 71.981 91.6755C71.0735 91.6755 70.2038 91.978 69.5232 92.4318H61.6962L71.981 82.147ZM68.0486 93.9442C67.6704 94.6249 67.4436 95.3811 67.4436 96.213V100.599L60.7887 93.9442H68.0486ZM60.6375 95.9483L66.3848 101.696L60.6375 106.725V95.9483ZM73.4935 107.556H61.8096L71.981 98.6707L73.4935 99.9941V107.556ZM86.9922 117.388H75.0059V96.213C75.0059 94.587 73.6069 93.2258 71.981 93.188H83.9673C85.631 93.188 86.9922 94.5492 86.9922 96.213V117.388Z" fill="url(#paint10_linear_251_71)"/>
<path d="M85.5162 96.2148H76.4414V97.7273H85.5162V96.2148Z" fill="url(#paint11_linear_251_71)"/>
<path d="M85.5162 99.2383H76.4414V100.751H85.5162V99.2383Z" fill="url(#paint12_linear_251_71)"/>
<path d="M85.5162 102.262H76.4414V103.774H85.5162V102.262Z" fill="url(#paint13_linear_251_71)"/>
<defs>
<linearGradient id="paint0_linear_251_71" x1="69.3886" y1="0.886719" x2="69.3886" y2="33.6594" gradientUnits="userSpaceOnUse">
<stop stop-color="#A0DDFF"/>
<stop offset="1" stop-color="#5DE29B"/>
</linearGradient>
<linearGradient id="paint1_linear_251_71" x1="70.6202" y1="30.1914" x2="70.6202" y2="169.842" gradientUnits="userSpaceOnUse">
<stop stop-color="#A0DDFF"/>
<stop offset="1" stop-color="#5DE29B"/>
</linearGradient>
<linearGradient id="paint2_linear_251_71" x1="69.4066" y1="0.855469" x2="69.4066" y2="19.61" gradientUnits="userSpaceOnUse">
<stop stop-color="#A0DDFF"/>
<stop offset="1" stop-color="#5DE29B"/>
</linearGradient>
<linearGradient id="paint3_linear_251_71" x1="73.7488" y1="56.8984" x2="73.7488" y2="146.94" gradientUnits="userSpaceOnUse">
<stop stop-color="#A0DDFF"/>
<stop offset="1" stop-color="#5DE29B"/>
</linearGradient>
<linearGradient id="paint4_linear_251_71" x1="82.5531" y1="111.133" x2="82.5531" y2="129.425" gradientUnits="userSpaceOnUse">
<stop stop-color="#A0DDFF"/>
<stop offset="1" stop-color="#5DE29B"/>
</linearGradient>
<linearGradient id="paint5_linear_251_71" x1="57.3949" y1="74.7617" x2="57.3949" y2="119.956" gradientUnits="userSpaceOnUse">
<stop stop-color="#A0DDFF"/>
<stop offset="1" stop-color="#5DE29B"/>
</linearGradient>
<linearGradient id="paint6_linear_251_71" x1="92.2904" y1="86.6797" x2="92.2904" y2="91.2322" gradientUnits="userSpaceOnUse">
<stop stop-color="#A0DDFF"/>
<stop offset="1" stop-color="#5DE29B"/>
</linearGradient>
<linearGradient id="paint7_linear_251_71" x1="55.3099" y1="93.3359" x2="55.3099" y2="97.8884" gradientUnits="userSpaceOnUse">
<stop stop-color="#A0DDFF"/>
<stop offset="1" stop-color="#5DE29B"/>
</linearGradient>
<linearGradient id="paint8_linear_251_71" x1="57.4036" y1="112.953" x2="57.4036" y2="117.506" gradientUnits="userSpaceOnUse">
<stop stop-color="#A0DDFF"/>
<stop offset="1" stop-color="#5DE29B"/>
</linearGradient>
<linearGradient id="paint9_linear_251_71" x1="80.9825" y1="105.59" x2="80.9825" y2="116.291" gradientUnits="userSpaceOnUse">
<stop stop-color="#A0DDFF"/>
<stop offset="1" stop-color="#5DE29B"/>
</linearGradient>
<linearGradient id="paint10_linear_251_71" x1="73.8148" y1="80.332" x2="73.8148" y2="118.9" gradientUnits="userSpaceOnUse">
<stop stop-color="#A0DDFF"/>
<stop offset="1" stop-color="#5DE29B"/>
</linearGradient>
<linearGradient id="paint11_linear_251_71" x1="80.9788" y1="96.2148" x2="80.9788" y2="97.7273" gradientUnits="userSpaceOnUse">
<stop stop-color="#A0DDFF"/>
<stop offset="1" stop-color="#5DE29B"/>
</linearGradient>
<linearGradient id="paint12_linear_251_71" x1="80.9788" y1="99.2383" x2="80.9788" y2="100.751" gradientUnits="userSpaceOnUse">
<stop stop-color="#A0DDFF"/>
<stop offset="1" stop-color="#5DE29B"/>
</linearGradient>
<linearGradient id="paint13_linear_251_71" x1="80.9788" y1="102.262" x2="80.9788" y2="103.774" gradientUnits="userSpaceOnUse">
<stop stop-color="#A0DDFF"/>
<stop offset="1" stop-color="#5DE29B"/>
</linearGradient>
<clipPath id="clip0_251_71">
<rect width="95.8506" height="90.0415" fill="white" transform="translate(25.8223 56.8984)"/>
</clipPath>
</defs>
</svg>
