<svg width="164" height="403" viewBox="0 0 164 403" fill="none" xmlns="http://www.w3.org/2000/svg">
<g opacity="0.6">
<path d="M-253.545 216.452C-367.768 111.02 -384.791 4.26001 -231.932 0.0496292C-79.0753 -4.16075 302.428 260.703 110.404 345.461C-81.6217 430.219 -95.2529 616.276 -177.393 586.884C-278.789 536.687 -95.8478 362.011 -253.545 216.452Z" fill="url(#paint0_linear_3237_3676)" fill-opacity="0.6"/>
<path style="mix-blend-mode:screen" d="M-80.6978 233.728C67.7184 291.554 -0.012146 423.955 -104.578 467.041C-250.004 526.961 -563.585 363.012 -436.232 238.336C-282.633 87.9671 -394.543 76.2355 -311.688 19.0364C-203.069 -5.85631 -285.602 153.895 -80.6978 233.728Z" fill="url(#paint1_linear_3237_3676)"/>
</g>
<defs>
<linearGradient id="paint0_linear_3237_3676" x1="-107.915" y1="364.582" x2="-193.43" y2="59.6021" gradientUnits="userSpaceOnUse">
<stop stop-color="#5DE29B"/>
<stop offset="1" stop-color="#003350"/>
</linearGradient>
<linearGradient id="paint1_linear_3237_3676" x1="-195.815" y1="435.975" x2="-272.888" y2="-1.58097" gradientUnits="userSpaceOnUse">
<stop stop-color="#01DC59"/>
<stop offset="1" stop-color="#2353FF"/>
</linearGradient>
</defs>
</svg>
