<svg width="322" height="550" viewBox="0 0 322 550" fill="none" xmlns="http://www.w3.org/2000/svg">
<g opacity="0.6">
<path d="M416.808 176.452C531.032 71.0202 548.054 -35.74 395.196 -39.9504C242.339 -44.1608 -139.164 220.703 52.8597 305.461C244.885 390.219 258.517 576.276 340.657 546.884C442.052 496.687 259.112 322.011 416.808 176.452Z" fill="url(#paint0_linear_3237_3673)" fill-opacity="0.6"/>
<path style="mix-blend-mode:screen" d="M243.961 193.728C95.5452 251.554 163.276 383.955 267.842 427.041C413.268 486.961 726.849 323.011 599.496 198.336C445.896 47.9671 557.807 36.2355 474.952 -20.9636C366.333 -45.8563 448.866 113.895 243.961 193.728Z" fill="url(#paint1_linear_3237_3673)"/>
</g>
<defs>
<linearGradient id="paint0_linear_3237_3673" x1="271.178" y1="324.582" x2="356.694" y2="19.6021" gradientUnits="userSpaceOnUse">
<stop stop-color="#5DE29B"/>
<stop offset="1" stop-color="#003350"/>
</linearGradient>
<linearGradient id="paint1_linear_3237_3673" x1="359.078" y1="395.975" x2="436.152" y2="-41.581" gradientUnits="userSpaceOnUse">
<stop stop-color="#01DC59"/>
<stop offset="1" stop-color="#2353FF"/>
</linearGradient>
</defs>
</svg>
