<svg fill="none" height="88" viewBox="0 0 61 88" width="61" xmlns="http://www.w3.org/2000/svg">
                            <path class="icon-6 path" d="M48.506 70.978a2.699 2.699 0 0 1-.807 1.925 2.73 2.73 0 0 1-1.944.787h-31.17a2.763 2.763 0 0 1-1.357-.363 2.743 2.743 0 0 1-1-.982 2.721 2.721 0 0 1 .99-3.726 2.762 2.762 0 0 1 1.367-.375h31.17c.73 0 1.43.288 1.945.8.516.513.806 1.209.806 1.934z" fill="#1D4BDC" style="opacity: 1; visibility: inherit;">
                            </path>
                            <path class="icon-6" d="M48.503 84.506c0 .725-.29 1.42-.806 1.933-.516.513-1.215.801-1.945.801h-31.17c-.73 0-1.429-.288-1.945-.8a2.726 2.726 0 0 1 0-3.867 2.759 2.759 0 0 1 1.945-.801h31.17c.73 0 1.43.288 1.945.8.516.513.806 1.209.806 1.934z" fill="url(#3qi90hm2da)">
                            </path>
                            <path class="icon-6 path" d="M30.166 59.976c-5.967 0-11.8-1.759-16.762-5.055a30.028 30.028 0 0 1-11.11-13.462A29.824 29.824 0 0 1 .581 24.13 29.934 29.934 0 0 1 8.843 8.777 30.222 30.222 0 0 1 24.294.574a30.333 30.333 0 0 1 17.431 1.715A30.128 30.128 0 0 1 55.26 13.344a29.862 29.862 0 0 1 5.073 16.666 29.92 29.92 0 0 1-8.85 21.184 30.278 30.278 0 0 1-21.316 8.782zm0-54.247a24.55 24.55 0 0 0-13.582 4.095A24.335 24.335 0 0 0 7.58 20.731a24.17 24.17 0 0 0-1.391 14.042 24.26 24.26 0 0 0 6.69 12.443 24.492 24.492 0 0 0 12.518 6.652c4.742.937 9.657.456 14.125-1.383a24.416 24.416 0 0 0 10.971-8.951 24.2 24.2 0 0 0 4.12-13.502c.012-3.2-.612-6.37-1.835-9.33a24.312 24.312 0 0 0-5.293-7.919 24.478 24.478 0 0 0-7.942-5.297 24.595 24.595 0 0 0-9.377-1.866v.109z" fill="#81A0EC" style="opacity: 1; visibility: inherit;">
                            </path>
                            <path class="icon-6 path" d="M38.899 31.182a6.524 6.524 0 0 0-2.382-2.58 6.575 6.575 0 0 0-3.38-.979H27.22a2.409 2.409 0 0 1-1.698-.699 2.38 2.38 0 0 1 0-3.375c.45-.448 1.061-.7 1.698-.7h8.862a2.407 2.407 0 0 0 1.548-.77 2.38 2.38 0 0 0 0-3.211 2.406 2.406 0 0 0-1.548-.77h-3.689v-.804c0-.575-.23-1.127-.64-1.534a2.19 2.19 0 0 0-3.086 0c-.41.407-.64.959-.64 1.534v.803h-.741c-1.2.01-2.374.347-3.394.974a6.524 6.524 0 0 0-2.39 2.585 7.688 7.688 0 0 0 0 7.16 6.524 6.524 0 0 0 2.39 2.585 6.575 6.575 0 0 0 3.393.974h5.916c.637 0 1.247.252 1.698.7a2.38 2.38 0 0 1 0 3.375c-.45.448-1.061.7-1.698.7h-8.884a2.406 2.406 0 0 0-1.548.77 2.38 2.38 0 0 0 0 3.21c.402.44.953.715 1.548.771h3.71v.803c0 .575.23 1.127.64 1.534a2.189 2.189 0 0 0 3.087 0c.41-.407.64-.959.64-1.534v-.803h.741a6.575 6.575 0 0 0 3.381-.98 6.524 6.524 0 0 0 2.382-2.578 7.58 7.58 0 0 0 0-7.161z" fill="#1D4BDC" style="opacity: 1; visibility: inherit;">
                            </path>
                            <defs>
                                <linearGradient gradientUnits="userSpaceOnUse" id="3qi90hm2da" x1="47.95" x2="11.832" y1="86.268" y2="86.268">
                                    <stop offset=".328" stop-color="#88A9FF">
                                    </stop>
                                    <stop offset="1" stop-color="#86FFDB">
                                    </stop>
                                </linearGradient>
                            </defs>
                        </svg>