<svg width="18" height="17" viewBox="0 0 18 17" fill="none" xmlns="http://www.w3.org/2000/svg">
<path fill-rule="evenodd" clip-rule="evenodd" d="M6.42878 4.4445C7.13888 4.4445 7.71449 3.86553 7.71449 3.15133C7.71449 2.43712 7.13888 1.85815 6.42878 1.85815C5.7187 1.85815 5.14307 2.43712 5.14307 3.15133C5.14307 3.86553 5.7187 4.4445 6.42878 4.4445ZM6.42878 3.60394C6.67731 3.60394 6.87878 3.40129 6.87878 3.15133C6.87878 2.90136 6.67731 2.69872 6.42878 2.69872C6.18025 2.69872 5.97878 2.90136 5.97878 3.15133C5.97878 3.40129 6.18025 3.60394 6.42878 3.60394Z" fill="#828282"/>
<path fill-rule="evenodd" clip-rule="evenodd" d="M3.31092 2.98968C3.31092 1.31415 4.74059 0.0153809 6.42878 0.0153809C8.11699 0.0153809 9.54664 1.31415 9.54664 2.98968C9.54664 3.26832 9.52182 3.57378 9.4675 3.89552L11.5716 4.42461L16.5586 3.17064C16.7506 3.12235 16.9541 3.16575 17.1101 3.28828C17.2661 3.41081 17.3574 3.59881 17.3574 3.79792V14.7899C17.3574 15.0866 17.1566 15.3452 16.8704 15.4172L11.7275 16.7104C11.6252 16.7361 11.5181 16.7361 11.4157 16.7104L6.42878 15.4564L1.44184 16.7104C1.24979 16.7587 1.04633 16.7153 0.890303 16.5927C0.734269 16.4702 0.643066 16.2822 0.643066 16.0831V5.09109C0.643066 4.79439 0.843831 4.53577 1.13 4.46381L3.39006 3.89552C3.33576 3.57378 3.31092 3.26832 3.31092 2.98968ZM6.42878 1.11458C5.27665 1.11458 4.40378 1.98697 4.40378 2.98968C4.40378 4.01193 4.82967 5.52651 6.04936 6.67634C6.26319 6.87794 6.59438 6.87794 6.8082 6.67634C8.02789 5.52651 8.45378 4.01193 8.45378 2.98968C8.45378 1.98697 7.58091 1.11458 6.42878 1.11458ZM3.73459 5.14186L2.07461 5.55927C1.98888 5.58082 1.92878 5.6579 1.92878 5.7463V15.0076C1.92878 15.1331 2.04688 15.2253 2.16867 15.1946L5.6401 14.3217C5.72582 14.3002 5.78592 14.2231 5.78592 14.1347V7.89077C4.75962 7.10224 4.10958 6.10915 3.73459 5.14186ZM7.07164 7.89077V14.1347C7.07164 14.2231 7.13174 14.3002 7.21744 14.3217L10.6889 15.1946C10.8107 15.2253 10.9288 15.1331 10.9288 15.0076V5.7463C10.9288 5.65791 10.8687 5.58082 10.783 5.55927L9.12299 5.14186C8.74795 6.10915 8.09796 7.10224 7.07164 7.89077ZM16.0716 14.1347C16.0716 14.2231 16.0115 14.3002 15.9258 14.3217L12.4544 15.1946C12.3326 15.2253 12.2145 15.1331 12.2145 15.0076V5.7463C12.2145 5.65791 12.2746 5.58083 12.3603 5.55927L15.8317 4.68637C15.9535 4.65575 16.0716 4.74783 16.0716 4.87341V14.1347Z" fill="#828282"/>
</svg>
