<svg width="316" height="576" viewBox="0 0 316 576" fill="none" xmlns="http://www.w3.org/2000/svg">
<g opacity="0.9">
<path d="M-95.5002 223C-182.836 83.8417 -170.653 -29.7713 -13.5642 8.23874C143.524 46.2477 459.377 422.006 240.044 455.32C20.7098 488.634 -44.6862 674.65 -120.339 621.93C-209.877 542.67 25.0748 415.121 -95.5002 223Z" fill="url(#paint0_linear_9_3)" fill-opacity="0.6"/>
<path style="mix-blend-mode:screen" d="M76.0258 288.458C211.416 388.518 105.684 504.83 -12.9042 519.84C-177.829 540.715 -452.325 286.693 -287.913 194.763C-89.6192 83.8872 -200.527 40.9492 -100.179 5.5332C17.5068 10.2022 -110.893 150.315 76.0258 288.458Z" fill="url(#paint1_linear_9_3)" fill-opacity="0.9"/>
</g>
<defs>
<linearGradient id="paint0_linear_9_3" x1="12.0548" y1="414.404" x2="9.22881" y2="79.6417" gradientUnits="userSpaceOnUse">
<stop stop-color="#5DE29B"/>
<stop offset="1" stop-color="#2353FF"/>
</linearGradient>
<linearGradient id="paint1_linear_9_3" x1="-97.3722" y1="462.901" x2="-54.8962" y2="-4.7598" gradientUnits="userSpaceOnUse">
<stop stop-color="#01DC59"/>
<stop offset="1" stop-color="#2353FF"/>
</linearGradient>
</defs>
</svg>
