<svg width="20" height="20" viewBox="0 0 20 20" fill="none" xmlns="http://www.w3.org/2000/svg">
<path d="M10 9.99984C10 9.53959 10.3731 9.1665 10.8333 9.1665H15.8333C16.2936 9.1665 16.6667 9.53959 16.6667 9.99984V15.8332C16.6667 16.2934 16.2936 16.6665 15.8333 16.6665H10.8333C10.3731 16.6665 10 16.2934 10 15.8332V9.99984Z" stroke="#263AAD" stroke-linecap="round"/>
<path d="M3.33301 4.16683C3.33301 3.7066 3.70611 3.3335 4.16634 3.3335H6.66634C7.12657 3.3335 7.49967 3.7066 7.49967 4.16683V15.8335C7.49967 16.2937 7.12657 16.6668 6.66634 16.6668H4.16634C3.70611 16.6668 3.33301 16.2937 3.33301 15.8335V4.16683Z" stroke="#263AAD" stroke-linecap="round"/>
<path d="M10 4.16683C10 3.7066 10.3731 3.3335 10.8333 3.3335H15.8333C16.2936 3.3335 16.6667 3.7066 16.6667 4.16683V5.8335C16.6667 6.29373 16.2936 6.66683 15.8333 6.66683H10.8333C10.3731 6.66683 10 6.29373 10 5.8335V4.16683Z" stroke="#263AAD" stroke-linecap="round"/>
</svg>
