<svg width="72" height="68" viewBox="0 0 72 68" fill="none" xmlns="http://www.w3.org/2000/svg">
<g clip-path="url(#clip0_14_408)">
<path d="M71.818 31.7168L63.6938 23.5592C63.4338 23.2981 62.9139 23.2981 62.5109 23.5592L54.3867 31.8473C54.1267 32.1083 54.1267 32.3694 54.2567 32.774C54.3867 33.035 54.6467 33.2961 55.0497 33.2961H59.8982V34.0792C59.8982 48.5541 48.2383 60.2619 33.8227 60.2619C19.4071 60.2619 7.73425 48.5541 7.73425 34.0792C7.73425 19.6044 19.3941 7.89656 33.8097 7.89656C42.0639 7.89656 49.5382 11.7078 54.5167 18.1556C54.6467 18.2861 54.7767 18.4166 54.9067 18.4166C55.1666 18.5471 55.4266 18.4166 55.6996 18.2861C56.0896 18.0251 56.0896 17.4899 55.8296 17.0983C50.5911 10.1285 42.4669 6.17368 33.8097 6.17368C18.4842 6.18673 6.03141 18.6907 6.03141 34.0792C6.03141 49.4677 18.4842 61.9717 33.8097 61.9717C49.1352 61.9717 61.601 49.4677 61.601 34.0792V33.2961H65.5266V34.0792C65.5266 51.7127 51.241 66.1876 33.5497 66.1876C15.8585 66.1876 1.70283 51.5822 1.70283 33.9487C1.70283 16.3152 15.9884 1.84036 33.6797 1.84036C43.7668 1.84036 53.0738 6.57829 59.2352 14.6054C59.4952 14.9969 60.0282 14.9969 60.4181 14.7359C60.8081 14.4749 60.8081 13.9528 60.5481 13.5482C57.5324 9.46283 53.4768 6.04316 48.8883 3.68071C44.1697 1.1747 39.0612 0 33.6797 0C15.0655 0.261043 0 15.4016 0 33.9487C0 52.4958 15.0655 67.6364 33.5497 67.6364C52.0339 67.6364 67.0995 52.5089 67.0995 33.9487V33.1656H71.1551C71.5451 33.1656 71.948 32.774 71.948 32.3694C72.078 32.1083 71.948 31.8473 71.818 31.7168Z" fill="#5DE29B"/>
<path d="M33.5495 54.4797C41.8036 54.4797 49.2779 49.4807 52.4236 41.8452C52.5536 41.4536 52.4236 40.9185 52.0337 40.788C51.6437 40.6574 51.1107 40.788 50.9808 41.1795C48.095 48.2799 41.1537 52.7568 33.5495 52.7568C33.1595 52.7568 32.7565 53.1484 32.7565 53.5399C32.7565 53.9315 33.1465 54.4666 33.5495 54.4666V54.4797Z" fill="#5DE29B"/>
<path d="M33.5496 14.997C33.9396 14.997 34.3295 14.6055 34.3295 14.2139C34.3295 13.8223 33.9396 13.4177 33.5496 13.4177C22.2797 13.4177 13.1026 22.6326 13.1026 33.9488C13.1026 38.6867 14.8054 43.4247 17.8211 47.1054C17.9511 47.2359 18.2111 47.3664 18.4711 47.3664C18.6011 47.3664 18.861 47.3664 18.991 47.2359C19.381 46.9749 19.381 46.4397 19.121 46.0482C16.3653 42.6285 14.7924 38.4126 14.7924 33.9357C14.7924 23.5462 23.1766 14.984 33.5366 14.984L33.5496 14.997Z" fill="#5DE29B"/>
<path d="M49.9282 22.3713C50.8641 22.3713 51.631 23.1414 51.631 24.0812C51.631 25.0209 50.8641 25.791 49.9282 25.791C48.9923 25.791 48.2253 25.0209 48.2253 24.0812C48.2253 23.1414 48.9923 22.3713 49.9282 22.3713Z" fill="#5DE29B"/>
<path d="M40.1009 43.8162C41.0368 43.8162 41.8037 44.5862 41.8037 45.526C41.8037 46.4658 41.0368 47.2358 40.1009 47.2358C39.165 47.2358 38.3981 46.4658 38.3981 45.526C38.3981 44.5862 39.165 43.8162 40.1009 43.8162Z" fill="#5DE29B"/>
<path d="M22.1499 27.3706C23.0858 27.3706 23.8528 28.1407 23.8528 29.0804C23.8528 30.0202 23.0858 30.7903 22.1499 30.7903C21.214 30.7903 20.4471 30.0202 20.4471 29.0804C20.4471 28.1407 21.214 27.3706 22.1499 27.3706Z" fill="#5DE29B"/>
<path d="M23.7229 42.1062C24.6588 42.1062 25.4257 42.8763 25.4257 43.816C25.4257 44.7558 24.6588 45.5259 23.7229 45.5259C22.7869 45.5259 22.02 44.7558 22.02 43.816C22.02 42.8763 22.7869 42.1062 23.7229 42.1062Z" fill="#5DE29B"/>
<path d="M36.1429 31.645H43L30.4286 46.595L33.8571 35.095H27L32.7143 23.595H40.7143L36.1429 31.645Z" fill="#48DBB2"/>
</g>
<defs>
<clipPath id="clip0_14_408">
<rect width="72" height="67.6364" fill="white"/>
</clipPath>
</defs>
</svg>
