<svg xmlns="http://www.w3.org/2000/svg" width="15" height="24" viewBox="0 0 15 24" fill="none">
  <path d="M9.56378 8.46919L9.59199 9.07576H10.1992H12.6204H13.2821L13.256 8.41458C13.1749 6.3582 12.0142 4.42937 9.7398 3.65587V3.29762C9.7398 2.03872 8.71925 1.01817 7.46035 1.01817C6.20144 1.01817 5.1809 2.03872 5.1809 3.29762V3.60579C3.10242 4.2265 1.34647 5.77474 1.34647 8.17953C1.34647 9.68711 1.96355 10.8414 3.00623 11.7011C4.01972 12.5368 5.41538 13.08 6.97863 13.4675L6.97871 13.4676C8.30339 13.7957 8.99763 14.1787 9.3591 14.5294C9.68832 14.8489 9.78221 15.1807 9.78221 15.5756C9.78221 15.8263 9.69644 16.1504 9.41278 16.4157C9.12929 16.6808 8.56587 16.9637 7.46035 16.9637C6.42283 16.9637 5.79902 16.7243 5.43096 16.4215C5.07238 16.1266 4.87784 15.7068 4.82916 15.1678L4.77688 14.5889H4.19561H1.7854H1.11461L1.15017 15.2587C1.2905 17.9024 3.10034 19.4379 5.1809 20.0494V20.367C5.1809 21.6259 6.20144 22.6464 7.46035 22.6464C8.71925 22.6464 9.7398 21.6259 9.7398 20.367V20.0849C10.695 19.831 11.5789 19.3969 12.2617 18.7437C13.0796 17.9613 13.5742 16.8958 13.5742 15.5642C13.5742 13.7462 12.805 12.4894 11.6866 11.6199C10.6034 10.7777 9.20979 10.3109 7.95385 9.97393C6.72655 9.64465 6.00644 9.3308 5.59923 9.01976C5.24067 8.74589 5.13849 8.48923 5.13849 8.15692C5.13849 7.75378 5.30972 7.41829 5.66084 7.16331C6.02915 6.89585 6.62455 6.70089 7.46035 6.70089C8.33742 6.70089 8.82142 6.91651 9.09501 7.18015C9.36933 7.44451 9.53529 7.85648 9.56378 8.46919Z" stroke="#4F4281" stroke-width="1.27225"/>
</svg>