<svg width="28" height="28" viewBox="0 0 28 28" fill="none" xmlns="http://www.w3.org/2000/svg">
<path d="M13.9002 27.4099C13.0802 27.4099 12.4102 26.7398 12.4102 25.9198V2.32985C12.4102 1.50985 13.0802 0.839844 13.9002 0.839844C14.7202 0.839844 15.3902 1.50985 15.3902 2.32985V25.9198C15.3902 26.7398 14.7202 27.4099 13.9002 27.4099Z" fill="url(#paint0_linear_796_4337)"/>
<path d="M13.8998 27.9901C13.4998 27.9901 13.1298 27.8302 12.8498 27.5502L0.629824 15.3301C0.0498242 14.7501 0.0498242 13.8002 0.629824 13.2202C1.20982 12.6402 2.15982 12.6402 2.73982 13.2202L13.8998 24.3802L25.0598 13.2202C25.6398 12.6402 26.5898 12.6402 27.1698 13.2202C27.7498 13.8002 27.7498 14.7501 27.1698 15.3301L14.9498 27.5502C14.6698 27.8302 14.2898 27.9901 13.8998 27.9901Z" fill="url(#paint1_linear_796_4337)"/>
<defs>
<linearGradient id="paint0_linear_796_4337" x1="13.9002" y1="0.839844" x2="13.9002" y2="27.4099" gradientUnits="userSpaceOnUse">
<stop stop-color="#121F90"/>
<stop offset="1" stop-color="#9FBCFF"/>
</linearGradient>
<linearGradient id="paint1_linear_796_4337" x1="13.8998" y1="12.7852" x2="13.8998" y2="27.9901" gradientUnits="userSpaceOnUse">
<stop stop-color="#121F90"/>
<stop offset="1" stop-color="#9FBCFF"/>
</linearGradient>
</defs>
</svg>
