<?xml version="1.0" encoding="UTF-8"?>
<svg id="Layer_1" xmlns="http://www.w3.org/2000/svg" version="1.1" viewBox="0 0 564.7 282.1">
  <!-- Generator: Adobe Illustrator 29.0.1, SVG Export Plug-In . SVG Version: 2.1.0 Build 192)  -->
  <defs>
    <style>
      .st0 {
        fill: #d1c688;
      }

      .st1 {
        fill: #a69700;
      }

      .st2 {
        fill: #282970;
      }

      .st3 {
        fill: #83a4de;
      }
    </style>
  </defs>
  <polygon class="st2" points="127.1 141 176.1 169.4 176.1 112.7 127.1 141"/>
  <polygon class="st2" points="29 141 78 169.4 78 112.7 29 141"/>
  <polygon class="st2" points="127.1 84.4 176.1 112.7 176.1 56.1 127.1 84.4"/>
  <polygon class="st3" points="29 84.4 78 112.7 78 56.1 29 84.4"/>
  <polygon class="st2" points="127.1 141 127.1 84.4 78 112.7 127.1 141"/>
  <polygon class="st0" points="127.1 141 78 169.4 78 112.7 127.1 141"/>
  <polygon class="st0" points="225.2 141 176.1 169.4 176.1 112.7 225.2 141"/>
  <polygon class="st1" points="29 141 78 112.7 29 84.4 29 141"/>
  <polygon class="st3" points="176.1 169.4 225.2 197.7 225.2 141 176.1 169.4"/>
  <polygon class="st1" points="225.2 197.7 176.1 226 176.1 169.4 225.2 197.7"/>
  <polygon class="st3" points="29 197.7 78 226 78 169.4 29 197.7"/>
  <polygon class="st1" points="29 197.7 78 169.4 29 141 29 197.7"/>
  <polygon class="st3" points="176.1 112.7 225.2 141 225.2 84.4 176.1 112.7"/>
  <polygon class="st1" points="225.2 84.4 176.1 112.7 176.1 56.1 225.2 84.4"/>
  <polygon class="st0" points="127.1 84.4 78 112.7 78 56.1 127.1 84.4"/>
  <polygon class="st2" points="127.1 197.7 176.1 226 176.1 169.4 127.1 197.7"/>
  <polygon class="st0" points="127.1 197.7 78 226 78 169.4 127.1 197.7"/>
  <polygon class="st0" points="127.1 141 127.1 84.4 176.1 112.7 127.1 141"/>
  <polygon class="st3" points="127.1 27.8 78 56.1 127.1 84.4 127.1 27.8"/>
  <polygon class="st1" points="127.1 27.8 127.1 84.4 176.1 56.1 127.1 27.8"/>
  <polygon class="st3" points="78 226 127.1 254.3 127.1 197.7 78 226"/>
  <polygon class="st1" points="127.1 254.3 176.1 226 127.1 197.7 127.1 254.3"/>
  <polygon class="st2" points="127.1 197.7 127.1 141 78 169.4 127.1 197.7"/>
  <polygon class="st0" points="127.1 197.7 127.1 141 176.1 169.4 127.1 197.7"/>
  <polygon class="st2" points="338 196.4 274.2 196.4 274.2 85.7 338 85.7 338 104.9 297.7 104.9 297.7 129.3 335.2 129.3 335.2 148.5 297.7 148.5 297.7 177.1 338 177.1 338 196.4"/>
  <path class="st2" d="M428.9,110.5c0,5.1-1.1,9.5-3.2,13.3-2.1,3.7-5,6.8-8.6,9.2-3.6,2.4-7.7,4.1-12.2,5.2v.5c8.9,1.1,15.6,3.8,20.3,8.2,4.6,4.3,6.9,10.1,6.9,17.4s-1.6,12.2-4.7,17.3c-3.2,5.1-8,9.1-14.6,12-6.6,2.9-15,4.4-25.4,4.4s-11.8-.5-17.1-1.5c-5.3-1-10.2-2.5-14.9-4.5v-19.9c4.7,2.4,9.7,4.3,14.9,5.5,5.2,1.2,10,1.9,14.5,1.9,8.4,0,14.3-1.5,17.6-4.4,3.4-2.9,5-7,5-12.2s-.8-5.7-2.3-7.8c-1.6-2.1-4.3-3.7-8.1-4.8-3.9-1.1-9.3-1.7-16.2-1.7h-8.4v-18h8.6c6.8,0,12-.6,15.6-1.9,3.6-1.3,6-3.1,7.3-5.3,1.3-2.2,1.9-4.8,1.9-7.7s-1.2-7-3.6-9.2c-2.4-2.2-6.5-3.3-12.1-3.3s-6.8.4-9.7,1.3c-2.9.9-5.5,1.9-7.8,3.2-2.3,1.2-4.4,2.4-6.1,3.6l-10.8-16.1c4.3-3.1,9.4-5.7,15.3-7.8,5.8-2.1,12.8-3.1,20.9-3.1s20.4,2.3,27.1,6.9c6.7,4.6,10,11.1,10,19.5"/>
  <path class="st2" d="M491.8,134.3h43.9v57.4c-5.8,1.9-11.8,3.4-18.1,4.6-6.3,1.1-13.4,1.7-21.3,1.7s-20.4-2.2-28-6.5c-7.7-4.3-13.5-10.8-17.5-19.2-4-8.5-6-18.9-6-31.3s2.2-21.7,6.7-30.1c4.5-8.5,11-15,19.6-19.7,8.6-4.6,19.1-7,31.5-7s11.6.6,17.3,1.9c5.7,1.3,10.9,2.9,15.5,4.9l-7.8,18.8c-3.4-1.7-7.2-3.2-11.6-4.3-4.3-1.2-8.9-1.7-13.6-1.7-6.8,0-12.7,1.6-17.8,4.7-5,3.1-8.9,7.5-11.7,13.1-2.8,5.6-4.1,12.3-4.1,19.9s1,13.6,3,19.2c2,5.6,5.1,9.9,9.3,13.1,4.2,3.2,9.8,4.7,16.6,4.7s6.1-.2,8.4-.5c2.3-.3,4.5-.7,6.5-1v-23.1h-21v-19.5Z"/>
</svg>