<svg width="74" height="74" viewBox="0 0 74 74" fill="none" xmlns="http://www.w3.org/2000/svg">
<g clip-path="url(#clip0_14_419)">
<path d="M39.2104 34.9916V27.1373C42.8997 27.7842 42.9005 30.0766 42.9005 30.9112H47.3215C47.3215 26.3006 44.3323 23.326 39.2104 22.6784V19.5386H34.7894V22.6784C29.6676 23.326 26.6783 26.3005 26.6783 30.9112C26.6783 35.5218 29.6675 38.4962 34.7894 39.1438V46.9982C31.1001 46.3513 31.0993 44.0589 31.0993 43.2244H26.6783C26.6783 47.8349 29.6675 50.8095 34.7894 51.4571V54.5969H39.2104V51.4571C44.3322 50.8095 47.3215 47.835 47.3215 43.2244C47.3215 38.6137 44.3322 35.6394 39.2104 34.9916ZM34.7894 34.6849C31.1001 34.0381 31.0993 31.7458 31.0993 30.9112C31.0993 30.0766 31.1001 27.7842 34.7894 27.1373V34.6849ZM39.2104 46.9982V39.4505C42.8997 40.0974 42.9005 42.3898 42.9005 43.2244C42.9005 44.0589 42.8997 46.3513 39.2104 46.9982Z" fill="#48DBB2"/>
<path d="M52.2323 5.94727H21.7677C13.0445 5.94727 5.94732 13.0443 5.94732 21.7678V29.2331L3.12592 26.4116L0 29.5379L8.15792 37.6959L16.3158 29.5379L13.1896 26.4117L10.3684 29.233V21.7678C10.3684 15.4823 15.482 10.3683 21.7677 10.3683H52.2323C58.5177 10.3683 63.6316 15.482 63.6316 21.7678V33.096H68.0527V21.7678C68.0527 13.0443 60.9556 5.94727 52.2323 5.94727Z" fill="#48DBB2"/>
<path d="M65.8421 37.5195L57.6843 45.6773L60.8105 48.8034L63.6318 45.9821V52.2322C63.6318 58.5176 58.5181 63.6316 52.2324 63.6316H21.7677C15.4823 63.6316 10.3684 58.5179 10.3684 52.2322V42.1192H5.94733V52.2322C5.94733 60.9556 13.0444 68.0526 21.7677 68.0526H52.2323C60.9555 68.0526 68.0527 60.9557 68.0527 52.2322V45.982L70.8741 48.8032L74 45.6773L65.8421 37.5195Z" fill="#48DBB2"/>
</g>
<defs>
<clipPath id="clip0_14_419">
<rect width="74" height="74" fill="white"/>
</clipPath>
</defs>
</svg>
