<svg width="125" height="164" viewBox="0 0 125 164" fill="none" xmlns="http://www.w3.org/2000/svg">
<circle cx="62.5" cy="62.5" r="62.5" fill="url(#paint0_linear_245_57)"/>
<path d="M63.7923 63.3717V57.0034C66.7836 57.5279 66.7842 59.3867 66.7842 60.0633H70.3688C70.3688 56.325 67.9451 53.9132 63.7923 53.3881V50.8423H60.2076V53.3881C56.0548 53.9132 53.631 56.3249 53.631 60.0633C53.631 63.8017 56.0547 66.2133 60.2076 66.7384V73.1069C57.2163 72.5823 57.2157 70.7236 57.2157 70.047H53.631C53.631 73.7853 56.0547 76.1971 60.2076 76.7222V79.268H63.7923V76.7222C67.945 76.1971 70.3688 73.7854 70.3688 70.047C70.3688 66.3086 67.945 63.897 63.7923 63.3717ZM60.2076 63.1231C57.2163 62.5987 57.2157 60.7401 57.2157 60.0633C57.2157 59.3867 57.2163 57.5279 60.2076 57.0034V63.1231ZM63.7923 73.1069V66.9871C66.7836 67.5116 66.7842 69.3703 66.7842 70.047C66.7842 70.7236 66.7836 72.5823 63.7923 73.1069Z" fill="white"/>
<path d="M74.3505 39.8223H49.6495C42.5766 39.8223 36.8221 45.5766 36.8221 52.6497V58.7027L34.5345 56.415L32 58.9498L38.6145 65.5644L45.2291 58.9498L42.6943 56.4151L40.4068 58.7026V52.6497C40.4068 47.5534 44.553 43.4069 49.6495 43.4069H74.3505C79.4468 43.4069 83.5932 47.5531 83.5932 52.6497V61.8348H87.1779V52.6497C87.1779 45.5766 81.4235 39.8223 74.3505 39.8223Z" fill="white"/>
<path d="M85.3855 65.4214L78.7711 72.0358L81.3058 74.5704L83.5933 72.2829V77.3506C83.5933 82.4469 79.4471 86.5933 74.3506 86.5933H49.6495C44.5532 86.5933 40.4068 82.4471 40.4068 77.3506V69.1509H36.8221V77.3506C36.8221 84.4236 42.5765 90.178 49.6495 90.178H74.3505C81.4234 90.178 87.1778 84.4237 87.1778 77.3506V72.2828L89.4655 74.5703L92 72.0358L85.3855 65.4214Z" fill="white"/>
<path d="M62.9006 163.41C62.0806 163.41 61.4106 162.74 61.4106 161.92V138.33C61.4106 137.51 62.0806 136.84 62.9006 136.84C63.7206 136.84 64.3906 137.51 64.3906 138.33V161.92C64.3906 162.74 63.7206 163.41 62.9006 163.41Z" fill="url(#paint1_linear_245_57)"/>
<path d="M62.9003 163.99C62.5003 163.99 62.1303 163.83 61.8503 163.55L49.6303 151.33C49.0503 150.75 49.0503 149.8 49.6303 149.22C50.2103 148.64 51.1603 148.64 51.7403 149.22L62.9003 160.38L74.0603 149.22C74.6403 148.64 75.5903 148.64 76.1703 149.22C76.7503 149.8 76.7503 150.75 76.1703 151.33L63.9503 163.55C63.6703 163.83 63.2903 163.99 62.9003 163.99Z" fill="url(#paint2_linear_245_57)"/>
<defs>
<linearGradient id="paint0_linear_245_57" x1="62.5" y1="0" x2="62.5" y2="125" gradientUnits="userSpaceOnUse">
<stop stop-color="#48DBB2"/>
<stop offset="1" stop-color="#003350"/>
</linearGradient>
<linearGradient id="paint1_linear_245_57" x1="62.9006" y1="136.84" x2="62.9006" y2="163.41" gradientUnits="userSpaceOnUse">
<stop stop-color="#121F90"/>
<stop offset="1" stop-color="#9FBCFF"/>
</linearGradient>
<linearGradient id="paint2_linear_245_57" x1="62.9003" y1="148.785" x2="62.9003" y2="163.99" gradientUnits="userSpaceOnUse">
<stop stop-color="#121F90"/>
<stop offset="1" stop-color="#9FBCFF"/>
</linearGradient>
</defs>
</svg>
