<svg width="125" height="161" viewBox="0 0 125 161" fill="none" xmlns="http://www.w3.org/2000/svg">
<path d="M76.83 15.205C76.45 15.205 76.07 15.055 75.78 14.765L64.62 3.605L53.46 14.765C52.88 15.345 51.93 15.345 51.35 14.765C50.77 14.185 50.77 13.235 51.35 12.655L63.57 0.435C64.15 -0.145 65.1 -0.145 65.68 0.435L77.9 12.655C78.48 13.235 78.48 14.185 77.9 14.765C77.61 15.055 77.23 15.205 76.85 15.205H76.83Z" fill="url(#paint0_linear_245_69)"/>
<path d="M64.6101 26.5954C63.7901 26.5954 63.1201 25.9254 63.1201 25.1054V1.5154C63.1201 0.695396 63.7901 0.0253906 64.6101 0.0253906C65.4301 0.0253906 66.1001 0.695396 66.1001 1.5154V25.1054C66.1001 25.9254 65.4301 26.5954 64.6101 26.5954Z" fill="url(#paint1_linear_245_69)"/>
<path d="M125 98.5C125 133.018 97.0178 161 62.5 161C27.9822 161 0 133.018 0 98.5C0 63.9822 27.9822 36 62.5 36C97.0178 36 125 63.9822 125 98.5Z" fill="url(#paint2_linear_245_69)"/>
<g clip-path="url(#clip0_245_69)">
<path d="M71.2032 104.755V104.352H69.1726C66.5906 104.352 64.4255 106.517 64.4255 109.099V109.503H66.4561C69.1726 109.368 71.2032 107.337 71.2032 104.755Z" fill="white"/>
<path d="M62.9327 81.9883C53.573 81.9883 45.9884 89.5863 45.9884 98.9326C45.9884 108.279 53.5865 115.877 62.9327 115.877C62.7983 115.742 62.7983 115.608 62.7983 115.474V102.725H58.737C55.3481 102.725 52.6317 100.008 52.6317 96.6196V95.1269C52.6317 94.7234 53.0351 94.3065 53.4385 94.3065H58.3201C60.0818 94.3065 61.5745 94.9789 62.7983 96.2027V91.7246C62.7983 91.3211 63.2017 90.9042 63.6051 90.9042C64.0086 90.9042 64.412 91.3077 64.412 91.7246V104.742C65.6358 103.518 67.263 102.711 69.1591 102.711H72.1445C72.548 102.711 72.9514 103.115 72.9514 103.532V104.756C72.9514 108.279 70.1005 111.13 66.5771 111.13H64.5465V115.339C64.5465 115.474 64.5465 115.608 64.412 115.742C72.9514 115.07 79.8636 107.741 79.8636 98.9326C79.8636 89.5729 72.2656 81.9883 62.9193 81.9883H62.9327ZM55.0657 105.172C56.0205 105.172 56.8274 105.979 56.8274 106.934C56.8274 107.889 56.0205 108.696 55.0657 108.696C54.1109 108.696 53.3041 107.875 53.3041 106.934C53.4385 105.979 54.2589 105.172 55.0657 105.172ZM56.8274 89.9898C55.8726 89.9898 55.0657 89.1695 55.0657 88.2281C55.0657 87.2868 55.8861 86.4664 56.8274 86.4664C57.7688 86.4664 58.5891 87.2868 58.5891 88.2281C58.4546 89.1829 57.7688 89.9898 56.8274 89.9898ZM70.3829 95.0058C69.4281 95.0058 68.6212 94.1855 68.6212 93.2442C68.6212 92.3028 69.4281 91.4825 70.3829 91.4825C71.3377 91.4825 72.1445 92.3028 72.1445 93.2442C72.0101 94.3334 71.3377 95.0058 70.3829 95.0058Z" fill="white"/>
<path d="M54.2589 95.813V96.4854C54.2589 98.9195 56.2895 100.964 58.737 100.964H62.7983V100.291C62.7983 97.8571 60.7676 95.813 58.3201 95.813H54.2589Z" fill="white"/>
<path d="M88.4165 104.621C88.551 104.352 88.6855 104.083 89.0889 103.949L98.9865 101.784V96.0818L89.0889 93.9167C88.8199 93.7822 88.551 93.6477 88.4165 93.2443C87.7441 90.3933 86.6548 87.5558 85.0276 84.9739C84.8932 84.7049 84.8932 84.3015 85.0276 84.0191L90.4471 75.4796L86.3859 71.4049L77.8465 76.8244C77.5775 76.9589 77.1741 76.9589 76.8917 76.8244C74.3097 75.1972 71.6066 74.108 68.6212 73.4356C68.3523 73.3011 68.0833 73.1666 67.9488 72.7632L65.7837 63H60.0952L57.9301 72.8976C57.7957 73.1666 57.6612 73.4356 57.2577 73.57C54.2723 74.2424 51.5693 75.3317 48.9873 76.9589C48.7183 77.0934 48.3149 77.0934 48.0325 76.9589L39.4931 71.5394L35.4318 75.6007L40.8513 84.1401C40.9858 84.409 40.9858 84.8125 40.8513 85.0949C39.2241 87.6769 38.1348 90.3799 37.4624 93.3653C37.328 93.6343 37.1935 93.9032 36.7901 94.0377L27.0269 96.0684V101.77L36.9245 103.935C37.1935 104.07 37.4624 104.204 37.5969 104.608C38.2693 107.593 39.3586 110.296 40.9858 112.878C41.1203 113.147 41.1203 113.551 40.9858 113.833L35.5663 122.372L39.6276 126.447L48.167 121.028C48.4359 120.893 48.8394 120.893 49.1218 121.028C51.7038 122.655 54.4068 123.744 57.3922 124.417C57.6612 124.551 57.9301 124.685 58.0646 125.089L60.2297 134.987H65.9182L68.0833 125.089C68.2178 124.82 68.3523 124.551 68.7557 124.417C71.7411 123.744 74.4441 122.655 77.0261 121.028C77.2951 120.893 77.6985 120.893 77.9809 121.028L86.5203 126.447L90.5816 122.372L85.1621 113.833C85.0276 113.564 85.0276 113.161 85.1621 112.878C86.5204 110.296 87.7441 107.459 88.4165 104.608V104.621ZM62.9328 117.504C52.6317 117.504 44.3612 109.234 44.3612 98.9328C44.3612 88.6317 52.7661 80.3612 62.9328 80.3612C73.0994 80.3612 81.5043 88.7662 81.5043 98.9328C81.5043 109.099 73.2338 117.504 62.9328 117.504Z" fill="white"/>
</g>
<defs>
<linearGradient id="paint0_linear_245_69" x1="64.625" y1="0" x2="64.625" y2="15.205" gradientUnits="userSpaceOnUse">
<stop stop-color="#121F90"/>
<stop offset="1" stop-color="#5DE29B"/>
</linearGradient>
<linearGradient id="paint1_linear_245_69" x1="64.6101" y1="0.0253906" x2="64.6101" y2="26.5954" gradientUnits="userSpaceOnUse">
<stop stop-color="#121F90"/>
<stop offset="1" stop-color="#5DE29B"/>
</linearGradient>
<linearGradient id="paint2_linear_245_69" x1="62.5" y1="36" x2="62.5" y2="161" gradientUnits="userSpaceOnUse">
<stop stop-color="#48DBB2"/>
<stop offset="1" stop-color="#003350"/>
</linearGradient>
<clipPath id="clip0_245_69">
<rect width="72" height="72" fill="white" transform="translate(27 63)"/>
</clipPath>
</defs>
</svg>
