<svg width="20" height="20" viewBox="0 0 20 20" fill="none" xmlns="http://www.w3.org/2000/svg">
<g clip-path="url(#clip0_2130_1001)">
<path d="M11.3374 1.23206L9.96264 8.45681L14.9437 8.47326L8.16316 18.2671L9.53852 10.3191L4.55749 10.3014L11.3374 1.23206ZM11.338 0.013916C11.3051 0.013916 11.2722 0.0151348 11.2399 0.0175723C11.0248 0.0346348 10.8822 0.10715 10.7134 0.220494C10.6195 0.28265 10.5336 0.359432 10.4581 0.447791C10.4355 0.473994 10.4148 0.501416 10.3953 0.529447L3.56603 9.5677C3.29669 9.93759 3.25647 10.4251 3.46366 10.8328C3.67085 11.2404 4.08888 11.4988 4.54774 11.5025L8.06566 11.5281L6.95964 18.0447C6.85483 18.6047 7.15342 19.1629 7.6787 19.3878C7.83531 19.4548 7.99984 19.4871 8.16194 19.4871C8.54524 19.4871 8.85967 19.3079 9.09611 18.9844L15.9333 9.19049C16.2026 8.8206 16.2423 8.33249 16.0357 7.92543C15.8285 7.51776 15.4105 7.25939 14.9516 7.25634L11.4337 7.25024L12.5281 1.5209C12.5513 1.42888 12.5628 1.33321 12.5628 1.23449C12.5628 0.57515 12.0382 0.0376816 11.3813 0.0163535C11.3666 0.0157441 11.3526 0.0157441 11.338 0.0157441V0.013916Z" fill="#828282"/>
</g>
<defs>
<clipPath id="clip0_2130_1001">
<rect width="19.5" height="19.5" fill="white"/>
</clipPath>
</defs>
</svg>
