<svg width="25" height="25" viewBox="0 0 25 25" fill="none" xmlns="http://www.w3.org/2000/svg">
<g clip-path="url(#clip0_1918_798)">
<path d="M15.625 6.25V7.8125H20.7702L14.0625 14.5202L10.7086 11.1664C10.6361 11.0938 10.55 11.0363 10.4552 10.997C10.3604 10.9577 10.2588 10.9375 10.1562 10.9375C10.0537 10.9375 9.95207 10.9577 9.8573 10.997C9.76252 11.0363 9.67642 11.0938 9.60391 11.1664L1.5625 19.2077L2.66727 20.3125L10.1562 12.8235L13.5102 16.1773C13.5827 16.2499 13.6688 16.3075 13.7635 16.3468C13.8583 16.3861 13.9599 16.4063 14.0625 16.4063C14.1651 16.4063 14.2667 16.3861 14.3615 16.3468C14.4562 16.3075 14.5423 16.2499 14.6148 16.1773L21.875 8.91727V14.0625H23.4375V6.25H15.625Z" fill="#828282"/>
</g>
<defs>
<clipPath id="clip0_1918_798">
<rect width="25" height="25" fill="white"/>
</clipPath>
</defs>
</svg>
