<svg width="40" height="43" viewBox="0 0 40 43" fill="none" xmlns="http://www.w3.org/2000/svg">
<path d="M39.5419 25.7256C38.6788 24.3793 37.8124 23.0322 36.9279 21.7026C36.7245 21.3991 36.7401 21.1979 36.9353 20.9027C37.7951 19.5996 38.631 18.2808 39.4711 16.9645C40.4593 15.4136 39.9397 13.8769 38.2291 13.24C36.7739 12.6978 35.3302 12.1282 33.875 11.586C33.5686 11.4721 33.4525 11.2983 33.4377 10.9649C33.3693 9.36497 33.273 7.76673 33.1906 6.16851C33.1033 4.47631 31.7823 3.50091 30.1533 3.9408C28.6207 4.35657 27.0872 4.76569 25.5636 5.21057C25.2128 5.31285 25.0275 5.23219 24.8125 4.9611C23.8358 3.71877 22.836 2.4964 21.8477 1.26322C20.7672 -0.083882 19.1448 -0.0863765 18.0593 1.26904C17.0801 2.48393 16.0968 3.69715 15.1489 4.93699C14.8886 5.27709 14.6547 5.33696 14.2594 5.22387C12.7671 4.79396 11.265 4.39981 10.1861 4.10711C8.09097 3.60069 6.87046 4.46384 6.74857 6.18597C6.6341 7.80166 6.56492 9.42068 6.50974 11.0397C6.49821 11.3881 6.38291 11.5386 6.07572 11.6542C4.573 12.2219 3.07522 12.804 1.58238 13.4005C0.0299723 14.02 -0.450987 15.5566 0.456576 16.9761C1.31802 18.324 2.18605 19.6695 3.06891 20.9999C3.26821 21.2993 3.26244 21.508 3.06891 21.8057C2.17287 23.1717 1.29249 24.5476 0.427751 25.9335C-0.404868 27.269 0.118917 28.8206 1.57579 29.3894C3.08785 29.979 4.59991 30.571 6.12184 31.1356C6.44633 31.2554 6.54762 31.4192 6.56245 31.751C6.63163 33.2977 6.80457 34.8435 6.78893 36.3877C6.77163 37.9676 8.14039 39.3438 10.0008 38.7526C11.4791 38.2828 12.992 37.9269 14.4851 37.5053C14.7849 37.4221 14.9619 37.4762 15.1579 37.7256C16.1462 38.9804 17.1518 40.2203 18.1598 41.4626C19.2642 42.8222 20.8553 42.8197 21.9482 41.4626C22.9469 40.2181 23.9398 38.9685 24.927 37.714C25.1164 37.472 25.2869 37.3939 25.5949 37.4803C27.1416 37.9144 28.6948 38.3235 30.2464 38.7385C31.8408 39.1551 33.1766 38.178 33.259 36.5274C33.3413 34.91 33.4434 33.2927 33.5011 31.6737C33.5143 31.2953 33.6707 31.1589 33.9862 31.0392C35.4554 30.4821 36.9172 29.9058 38.3799 29.3312C39.9586 28.7075 40.461 27.1575 39.5419 25.7256ZM25.3182 20.4977C23.161 24.2707 21.0038 28.0426 18.8467 31.8134C18.8384 31.8283 18.8294 31.8416 18.8211 31.8566C18.6745 32.1343 18.5016 32.4004 18.1359 32.2657C17.7546 32.126 17.8436 31.7859 17.8946 31.4974C18.0593 30.5477 18.2438 29.6014 18.4209 28.6551C18.7322 26.9921 19.0438 25.3267 19.3556 23.6592C19.382 23.5179 19.3894 23.3715 19.4124 23.1678C19.209 23.1586 19.0369 23.142 18.8656 23.1437C17.6459 23.1478 16.427 23.157 15.2065 23.1595C14.4892 23.1595 14.3204 22.8601 14.6844 22.2231C16.8416 18.4502 18.9993 14.678 21.1576 10.9066C21.1658 10.8925 21.1749 10.8784 21.1831 10.8634C21.3297 10.5865 21.5018 10.3204 21.8683 10.4543C22.2496 10.5948 22.1607 10.9341 22.1096 11.2235C21.9449 12.1723 21.7612 13.1186 21.5834 14.0649C21.272 15.7279 20.9605 17.3935 20.6486 19.0616C20.6223 19.203 20.6148 19.3485 20.5918 19.5522C20.7952 19.5622 20.9673 19.578 21.1386 19.5772C22.3583 19.573 23.5772 19.563 24.7977 19.5605C25.5175 19.5589 25.6822 19.8632 25.3182 20.4977Z" fill="url(#paint0_linear_267_283)"/>
<defs>
<linearGradient id="paint0_linear_267_283" x1="20" y1="0.252686" x2="20" y2="42.4814" gradientUnits="userSpaceOnUse">
<stop stop-color="#92E7E6"/>
<stop offset="1" stop-color="#80D89D"/>
</linearGradient>
</defs>
</svg>
