<svg width="18" height="18" viewBox="0 0 18 18" fill="none" xmlns="http://www.w3.org/2000/svg">
<path opacity="0.5" d="M9 17C13.4183 17 17 13.4183 17 9C17 4.58172 13.4183 1 9 1C4.58172 1 1 4.58172 1 9C1 13.4183 4.58172 17 9 17Z" stroke="#263AAD" stroke-width="1.2"/>
<path d="M10.5101 7.34764C11.37 8.04916 11.8 8.39988 11.8 8.9998C11.8 9.59972 11.37 9.95044 10.5101 10.652C10.2727 10.8456 10.0373 11.028 9.82088 11.1799C9.63104 11.3132 9.41608 11.451 9.19352 11.5864C8.3356 12.108 7.90664 12.3689 7.52192 12.0801C7.1372 11.7913 7.10223 11.1867 7.0323 9.97756C7.01253 9.63556 7 9.30036 7 8.9998C7 8.69924 7.01253 8.36404 7.0323 8.02204C7.10223 6.81289 7.1372 6.20829 7.52192 5.91948C7.90664 5.63068 8.3356 5.89153 9.19352 6.41324C9.41608 6.54858 9.63104 6.68645 9.82088 6.81974C10.0373 6.97167 10.2727 7.154 10.5101 7.34764Z" stroke="#263AAD" stroke-width="1.2"/>
</svg>
