<svg width="54" height="54" viewBox="0 0 54 54" fill="none" xmlns="http://www.w3.org/2000/svg">
<path d="M53.8946 26.834C53.8317 21.7086 52.3053 16.7079 49.4953 12.4209C46.6854 8.1338 42.7091 4.73892 38.0345 2.63607C33.3596 0.533221 28.1814 -0.190019 23.1095 0.551477C18.0376 1.29301 13.2832 3.46837 9.40616 6.82149C5.52914 10.1746 2.69101 14.5657 1.22601 19.4778C-0.238963 24.3899 -0.269827 29.6181 1.13712 34.5472C2.54406 39.4763 5.33017 43.9004 9.16736 47.2991C13.0045 50.6977 17.733 52.9291 22.7958 53.7303V34.6676H16.0718V26.834H22.7958V20.8833C22.6401 19.4996 22.7901 18.0987 23.2352 16.7793C23.6803 15.4599 24.4096 14.2542 25.3714 13.2475C26.3333 12.2407 27.5043 11.4573 28.802 10.9526C30.0998 10.4479 31.4927 10.2342 32.8819 10.3266C34.8984 10.3542 36.9103 10.534 38.8999 10.8645V17.5886H35.5379C34.9583 17.5154 34.3692 17.5735 33.8152 17.7585C33.2608 17.9436 32.7551 18.2508 32.3355 18.6574C31.916 19.0641 31.5932 19.5599 31.3911 20.108C31.1888 20.6563 31.1124 21.243 31.1672 21.8246V26.9013H38.6309L37.4206 34.7348H31.2009V53.5622C37.5548 52.5573 43.3381 49.3082 47.5017 44.4044C51.6652 39.5005 53.9332 33.267 53.8946 26.834Z" fill="white"/>
</svg>
