<svg width="758" height="892" viewBox="0 0 758 892" fill="none" xmlns="http://www.w3.org/2000/svg">
<mask id="mask0_860_7362" style="mask-type:alpha" maskUnits="userSpaceOnUse" x="-97" y="0" width="855" height="892">
<rect x="-97" width="855" height="892" fill="#D9D9D9"/>
</mask>
<g mask="url(#mask0_860_7362)">
<path d="M-74.5649 313.012C-233.939 165.905 -257.69 16.9439 -44.4095 11.0692C168.869 5.19457 701.174 374.755 433.246 493.016C165.316 611.278 146.297 870.879 31.6878 829.869C-109.787 759.83 145.467 516.107 -74.5649 313.012Z" fill="url(#paint0_linear_860_7362)" fill-opacity="0.6"/>
<path style="mix-blend-mode:screen" d="M166.606 337.117C373.688 417.8 279.185 602.537 133.285 662.653C-69.6252 746.258 -507.159 517.503 -329.465 343.545C-115.151 133.738 -271.298 117.37 -155.691 37.5607C-4.13684 2.82835 -119.294 225.726 166.606 337.117Z" fill="url(#paint1_linear_860_7362)"/>
</g>
<defs>
<linearGradient id="paint0_linear_860_7362" x1="128.63" y1="519.695" x2="9.31243" y2="94.1618" gradientUnits="userSpaceOnUse">
<stop stop-color="#5DE29B"/>
<stop offset="1" stop-color="#2353FF"/>
</linearGradient>
<linearGradient id="paint1_linear_860_7362" x1="5.9848" y1="619.308" x2="-101.554" y2="8.79365" gradientUnits="userSpaceOnUse">
<stop stop-color="#01DC59"/>
<stop offset="1" stop-color="#2353FF"/>
</linearGradient>
</defs>
</svg>
