<svg width="19" height="18" viewBox="0 0 19 18" fill="none" xmlns="http://www.w3.org/2000/svg">
<path d="M17.605 0.671631H1.39628C0.626253 0.671631 0 1.29788 0 2.06726V13.4473C0 14.2167 0.626253 14.8429 1.39628 14.8429H10.1671L13.4421 17.289C13.7102 17.4898 13.9874 17.5921 14.2633 17.5921C14.7743 17.5921 15.3247 17.2022 15.3234 16.3467V14.8429H17.605C18.3744 14.8429 19 14.2167 19 13.4473V2.06726C19 1.29788 18.3737 0.671631 17.605 0.671631ZM17.706 13.4473C17.706 13.5024 17.662 13.5477 17.6063 13.5477H14.0295V16.109L10.599 13.547H1.39628C1.34058 13.547 1.29654 13.5017 1.29654 13.4467V2.06661C1.29654 2.01157 1.34058 1.96623 1.39628 1.96623L17.6057 1.96688C17.6614 1.96688 17.7054 2.01221 17.7054 2.06726L17.706 13.4473ZM3.56517 6.62136H6.37197V9.42751H3.56517V6.62136ZM8.09854 6.62136H10.9053V9.42751H8.09854V6.62136ZM12.6319 6.62136H15.4387V9.42751H12.6319V6.62136Z" fill="#828282"/>
</svg>
