<svg width="109" height="111" viewBox="0 0 109 111" fill="none" xmlns="http://www.w3.org/2000/svg">
<path fill-rule="evenodd" clip-rule="evenodd" d="M6.59314 81.8886L58.3845 38.1656L58.3163 48.8439C58.3163 51.313 57.6099 54.0942 55.8613 55.8274L23.65 83.5837C31.2398 92.1888 42.2511 97.6066 54.4987 97.6066C77.3716 97.6066 95.9399 78.7166 95.9399 55.4467C95.9399 55.297 95.9399 55.1498 95.9374 55.0001L108.029 44.9842C108.667 48.3719 109 51.8687 109 55.4467C109 86.0477 84.5804 110.893 54.4987 110.893C33.8286 110.893 15.8306 99.1596 6.59314 81.8886ZM87.9792 30.6086C80.4373 20.1105 68.2452 13.2869 54.4987 13.2869C31.6284 13.2869 13.0601 32.1769 13.0601 55.4467C13.0601 57.1139 13.156 58.7608 13.3402 60.3798L1.8268 69.7208C0.633325 65.1632 0 60.3798 0 55.4467C0 24.8457 24.4196 0 54.4987 0C76.8569 0 96.0887 13.7259 104.489 33.3391L93.8481 42.1928L93.8406 42.175L54.4987 74.7884L54.5669 64.7547C54.5669 62.2856 55.2734 59.5018 57.0219 57.7686L87.9792 30.6086Z" fill="#48DBB2"/>
</svg>
