<svg width="17" height="13" viewBox="0 0 17 13" fill="none" xmlns="http://www.w3.org/2000/svg">
<g clip-path="url(#clip0_1918_1003)">
<path d="M16.2031 0.53125H0.796875C0.650174 0.53125 0.53125 0.650174 0.53125 0.796875V11.9531C0.53125 12.0998 0.650174 12.2188 0.796875 12.2188H16.2031C16.3498 12.2188 16.4688 12.0998 16.4688 11.9531V0.796875C16.4688 0.650174 16.3498 0.53125 16.2031 0.53125Z" stroke="#828282" stroke-width="2"/>
<path d="M0.53125 4.25H16.4688" stroke="#828282"/>
<path d="M0.53125 8.5H16.4688" stroke="#828282"/>
<path d="M8.50002 3.71875L9.24377 5.84375H11.475L9.66877 7.225L10.3063 9.35L8.50002 8.075L6.69377 9.35L7.33127 7.225L5.52502 5.84375H7.75627L8.50002 3.71875Z" stroke="#828282"/>
</g>
<defs>
<clipPath id="clip0_1918_1003">
<rect width="17" height="12.75" fill="white"/>
</clipPath>
</defs>
</svg>
