<svg width="21" height="21" viewBox="0 0 21 21" fill="none" xmlns="http://www.w3.org/2000/svg">
<path d="M19.25 10.5C19.25 11.649 19.0236 12.7869 18.584 13.8485C18.1442 14.9101 17.4997 15.8747 16.6872 16.6872C15.8747 17.4997 14.9101 18.1442 13.8485 18.584C12.7869 19.0236 11.649 19.25 10.5 19.25C9.35095 19.25 8.21312 19.0236 7.15152 18.584C6.08992 18.1442 5.12533 17.4997 4.31281 16.6872C3.50031 15.8747 2.85578 14.9101 2.41605 13.8485C1.97633 12.7869 1.75 11.649 1.75 10.5C1.75 9.35095 1.97633 8.21312 2.41606 7.15151C2.85578 6.08992 3.50031 5.12533 4.31281 4.31281C5.12533 3.50031 6.08992 2.85578 7.15152 2.41605C8.21312 1.97633 9.35095 1.75 10.5 1.75C11.649 1.75 12.7869 1.97633 13.8485 2.41606C14.9101 2.85578 15.8747 3.50031 16.6872 4.31281C17.4997 5.12533 18.1442 6.08992 18.584 7.15152C19.0236 8.21312 19.25 9.35095 19.25 10.5Z" stroke="#828282" stroke-width="1.3125"/>
<path d="M14 10.5C14 11.649 13.9094 12.7869 13.7336 13.8485C13.5577 14.9101 13.2999 15.8747 12.9749 16.6872C12.6499 17.4997 12.264 18.1442 11.8394 18.584C11.4147 19.0236 10.9596 19.25 10.5 19.25C10.0404 19.25 9.58528 19.0236 9.16064 18.584C8.73597 18.1442 8.35013 17.4997 8.02512 16.6872C7.70012 15.8747 7.44231 14.9101 7.26642 13.8485C7.09053 12.7869 7 11.649 7 10.5C7 9.35095 7.09053 8.21312 7.26642 7.15151C7.44231 6.08992 7.70012 5.12533 8.02512 4.31281C8.35013 3.50031 8.73597 2.85578 9.16064 2.41605C9.58528 1.97633 10.0404 1.75 10.5 1.75C10.9596 1.75 11.4147 1.97633 11.8394 2.41606C12.264 2.85578 12.6499 3.50031 12.9749 4.31281C13.2999 5.12533 13.5577 6.08992 13.7336 7.15152C13.9094 8.21312 14 9.35095 14 10.5Z" stroke="#828282" stroke-width="1.3125"/>
<path d="M1.75 10.5H19.25" stroke="#828282" stroke-width="1.3125" stroke-linecap="round"/>
</svg>
