<svg width="26" height="26" viewBox="0 0 26 26" fill="none" xmlns="http://www.w3.org/2000/svg">
<path d="M2.16931 5.0966V9.75C2.16931 13.3398 5.07946 16.25 8.66931 16.25C8.77546 16.25 8.881 16.2475 8.98589 16.2424C9.27033 17.1997 9.73871 18.0778 10.3501 18.8357L7.82572 21.3586C7.50831 21.6758 7.50816 22.1902 7.82537 22.5077C8.14257 22.825 8.65702 22.8252 8.97442 22.508L11.4992 19.9847C12.7998 21.0333 14.4539 21.6611 16.2548 21.6611C20.4421 21.6611 23.8367 18.2666 23.8367 14.0792V8.39319C23.8367 7.34615 22.9879 6.49736 21.9409 6.49736H16.2548C15.6226 6.49736 15.0086 6.57471 14.4217 6.72046C13.3325 4.65668 11.1652 3.25 8.66931 3.25H4.01591C2.99606 3.25 2.16931 4.07675 2.16931 5.0966ZM12.6571 18.8275L17.0951 14.3922C17.4125 14.075 17.4126 13.5605 17.0954 13.2431C16.7782 12.9257 16.2639 12.9256 15.9465 13.2428L11.5078 17.6787C10.7485 16.6788 10.2978 15.4317 10.2978 14.0792C10.2978 10.7894 12.9648 8.12236 16.2548 8.12236H21.9409C22.0904 8.12236 22.2117 8.24361 22.2117 8.39319V14.0792C22.2117 17.3692 19.5446 20.0361 16.2548 20.0361C14.9031 20.0361 13.6567 19.586 12.6571 18.8275ZM8.66931 4.875C10.464 4.875 12.032 5.84473 12.8783 7.2888C11.6882 7.88172 10.6759 8.77833 9.94286 9.87715L7.88702 7.82131C7.56972 7.50401 7.05526 7.50401 6.73797 7.82131C6.42067 8.13861 6.42067 8.65306 6.73797 8.97036L9.16195 11.3944C8.84585 12.229 8.67283 13.1339 8.67283 14.0792C8.67283 14.2627 8.67935 14.4447 8.69217 14.625H8.66931C5.97693 14.625 3.79431 12.4424 3.79431 9.75V5.0966C3.79431 4.97421 3.89352 4.875 4.01591 4.875H8.66931Z" fill="#828282"/>
</svg>
