<svg width="37" height="34" viewBox="0 0 37 34" fill="none" xmlns="http://www.w3.org/2000/svg">
<path d="M3.98188 17.0291C3.98188 16.0177 4.80829 15.1913 5.81972 15.1913H34.9167C35.9281 15.1913 36.7545 16.0177 36.7545 17.0291C36.7545 18.0405 35.9281 18.8669 34.9167 18.8669H5.81972C4.80829 18.8669 3.98188 18.0405 3.98188 17.0291Z" fill="url(#paint0_linear_211_2)"/>
<path d="M-2.70396e-06 16.9044C-2.70396e-06 16.411 0.197333 15.9546 0.542697 15.6092L15.6154 0.536548C16.3308 -0.178849 17.5026 -0.178849 18.218 0.536548C18.9334 1.25195 18.9334 2.42372 18.218 3.13912L4.45271 16.9044L18.218 30.6696C18.9334 31.385 18.9334 32.5568 18.218 33.2722C17.5026 33.9876 16.3308 33.9876 15.6154 33.2722L0.542697 18.1995C0.197333 17.8541 -2.70396e-06 17.3854 -2.70396e-06 16.9044Z" fill="url(#paint1_linear_211_2)"/>
<defs>
<linearGradient id="paint0_linear_211_2" x1="36.7545" y1="17.0291" x2="3.98188" y2="17.0291" gradientUnits="userSpaceOnUse">
<stop stop-color="#5DE29B"/>
<stop offset="1" stop-color="#003350"/>
</linearGradient>
<linearGradient id="paint1_linear_211_2" x1="18.7545" y1="16.9044" x2="-1.90735e-06" y2="16.9044" gradientUnits="userSpaceOnUse">
<stop stop-color="#5DE29B"/>
<stop offset="1" stop-color="#003350"/>
</linearGradient>
</defs>
</svg>
