<svg width="37" height="34" viewBox="0 0 37 34" fill="none" xmlns="http://www.w3.org/2000/svg">
<path d="M32.7726 17.0291C32.7726 16.0177 31.9462 15.1913 30.9348 15.1913H1.83784C0.826415 15.1913 0 16.0177 0 17.0291C0 18.0405 0.826415 18.8669 1.83784 18.8669H30.9348C31.9462 18.8669 32.7726 18.0405 32.7726 17.0291Z" fill="url(#paint0_linear_211_2)"/>
<path d="M36.7545 16.9044C36.7545 16.411 36.5572 15.9546 36.2118 15.6092L21.1391 0.536548C20.4237 -0.178849 19.2519 -0.178849 18.5365 0.536548C17.8212 1.25195 17.8212 2.42372 18.5365 3.13912L32.3018 16.9044L18.5365 30.6696C17.8212 31.385 17.8212 32.5568 18.5365 33.2722C19.2519 33.9876 20.4237 33.9876 21.1391 33.2722L36.2118 18.1995C36.5572 17.8541 36.7545 17.3854 36.7545 16.9044Z" fill="url(#paint1_linear_211_2)"/>
<defs>
<linearGradient id="paint0_linear_211_2" x1="0" y1="17.0291" x2="32.7726" y2="17.0291" gradientUnits="userSpaceOnUse">
<stop stop-color="#5DE29B"/>
<stop offset="1" stop-color="#003350"/>
</linearGradient>
<linearGradient id="paint1_linear_211_2" x1="18" y1="16.9044" x2="36.7545" y2="16.9044" gradientUnits="userSpaceOnUse">
<stop stop-color="#5DE29B"/>
<stop offset="1" stop-color="#003350"/>
</linearGradient>
</defs>
</svg>
