<svg width="24" height="24" viewBox="0 0 24 24" fill="none" xmlns="http://www.w3.org/2000/svg">
<path d="M2.91949 8.75841H20.4364M8.75847 14.5974L10.7048 16.5437L14.5974 12.6511M6.81214 2.91943V4.86576M16.5438 2.91943V4.86576M6.03361 20.4364H17.3223C18.4123 20.4364 18.9574 20.4364 19.3737 20.2242C19.7399 20.0377 20.0377 19.7399 20.2243 19.3737C20.4364 18.9573 20.4364 18.4123 20.4364 17.3222V7.97988C20.4364 6.88983 20.4364 6.34481 20.2243 5.92847C20.0377 5.56224 19.7399 5.26449 19.3737 5.0779C18.9574 4.86576 18.4123 4.86576 17.3223 4.86576H6.03361C4.94357 4.86576 4.39855 4.86576 3.98221 5.0779C3.61598 5.26449 3.31823 5.56224 3.13163 5.92847C2.91949 6.34481 2.91949 6.88983 2.91949 7.97988V17.3222C2.91949 18.4123 2.91949 18.9573 3.13163 19.3737C3.31823 19.7399 3.61598 20.0377 3.98221 20.2242C4.39855 20.4364 4.94357 20.4364 6.03361 20.4364Z" stroke="#828282" stroke-width="1.5" stroke-linecap="round" stroke-linejoin="round"/>
</svg>
