<svg width="21" height="21" viewBox="0 0 21 21" fill="none" xmlns="http://www.w3.org/2000/svg">
<path d="M10.5 19.25C9.35093 19.25 8.21312 19.0237 7.15152 18.5839C6.08992 18.1442 5.12533 17.4997 4.31282 16.6872C2.67187 15.0462 1.75 12.8206 1.75 10.5C1.75 10.2679 1.84219 10.0454 2.00628 9.88128C2.17038 9.71719 2.39294 9.625 2.625 9.625C2.85706 9.625 3.07962 9.71719 3.24372 9.88128C3.40781 10.0454 3.5 10.2679 3.5 10.5C3.5 11.8845 3.91054 13.2378 4.67971 14.389C5.44888 15.5401 6.54213 16.4373 7.82122 16.9672C9.1003 17.497 10.5078 17.6356 11.8656 17.3655C13.2235 17.0954 14.4708 16.4287 15.4497 15.4497C16.4287 14.4708 17.0954 13.2235 17.3655 11.8656C17.6356 10.5078 17.497 9.1003 16.9672 7.82122C16.4373 6.54213 15.5401 5.44888 14.389 4.67971C13.2378 3.91054 11.8845 3.5 10.5 3.5C10.2679 3.5 10.0454 3.40781 9.88128 3.24372C9.71719 3.07962 9.625 2.85706 9.625 2.625C9.625 2.39294 9.71719 2.17038 9.88128 2.00628C10.0454 1.84219 10.2679 1.75 10.5 1.75C12.8206 1.75 15.0462 2.67187 16.6872 4.31282C18.3281 5.95376 19.25 8.17936 19.25 10.5C19.25 12.8206 18.3281 15.0462 16.6872 16.6872C15.0462 18.3281 12.8206 19.25 10.5 19.25Z" fill="#828282"/>
<path d="M10.5 11.375H7C6.76794 11.375 6.54538 11.2828 6.38128 11.1187C6.21719 10.9546 6.125 10.7321 6.125 10.5C6.125 10.2679 6.21719 10.0454 6.38128 9.88128C6.54538 9.71719 6.76794 9.625 7 9.625H9.625V6.125C9.625 5.89294 9.71719 5.67038 9.88128 5.50628C10.0454 5.34219 10.2679 5.25 10.5 5.25C10.7321 5.25 10.9546 5.34219 11.1187 5.50628C11.2828 5.67038 11.375 5.89294 11.375 6.125V10.5C11.375 10.7321 11.2828 10.9546 11.1187 11.1187C10.9546 11.2828 10.7321 11.375 10.5 11.375Z" fill="#828282"/>
</svg>
