<svg xmlns="http://www.w3.org/2000/svg" width="23" height="20" viewBox="0 0 23 20" fill="none">
  <path fill-rule="evenodd" clip-rule="evenodd" d="M9.19797 7.87286C8.5788 6.48944 8.98254 5.19728 10.2775 4.41697C11.4614 3.70368 13.0987 4.01943 13.984 5.13145C15.7781 7.38505 13.2358 10.365 10.5287 9.18178C9.77406 8.85184 9.5281 8.61001 9.19797 7.87286ZM12.2625 7.99171C10.7407 8.56349 9.55942 6.43169 10.954 5.6301C11.5518 5.28636 12.2023 5.38393 12.7193 5.895C13.4781 6.64456 13.2669 7.61447 12.2625 7.99171Z" fill="#4F4281"/>
  <path fill-rule="evenodd" clip-rule="evenodd" d="M2.17331 19.6019C2.80007 19.602 3.4529 19.6021 4.13288 19.6021C19.2801 19.6021 20.9579 19.5711 21.067 19.2903C21.1336 19.1188 21.1881 16.8906 21.1881 14.3388C21.1881 10.3155 21.2264 9.7303 21.4763 9.93529C21.9188 10.2981 22.6742 10.1117 22.745 9.6219C22.7905 9.30635 22.4324 8.88732 21.3137 7.94658L19.8219 6.69226L19.8067 3.72595C19.7965 1.6996 19.7159 0.684747 19.5524 0.523128C19.4048 0.377276 18.6807 0.286612 17.6643 0.286612C15.7454 0.286612 15.6027 0.409207 15.6027 2.05694V3.06489L13.8595 1.5772C12.9008 0.759052 11.9358 0.0916834 11.7152 0.0942456C11.4888 0.097005 9.7579 1.42839 7.74339 3.14925C6.21976 4.451 4.90017 5.56906 4.37495 6.00477L1.52012 8.54764L1.36314 8.59973C0.738225 9.17641 0.630249 9.40005 0.727821 9.70389C0.883412 10.188 1.59774 10.3009 1.99848 9.90493C2.18459 9.72104 2.23785 10.6188 2.23785 13.9454V18.2224H2.17331V19.6019ZM3.86079 8.26903L7.76194 4.9716C10.1948 2.91529 11.7541 1.72837 11.9049 1.81805C12.0377 1.89729 13.8667 3.42065 15.9692 5.20339L19.7917 8.44484V18.2224H15.2038V14.4845C15.2038 10.9907 15.1787 10.7333 14.818 10.5425C14.3159 10.2771 9.11 10.2771 8.60792 10.5425C8.24727 10.7333 8.22213 10.9907 8.22213 14.4845V18.2224H3.83366L3.86079 8.26903ZM17.6601 4.78554C17.2642 4.41796 17.1986 4.1637 17.1986 2.99847V1.64007L17.7471 1.70255C18.2939 1.76464 18.2959 1.77055 18.3533 3.48943C18.385 4.43806 18.3459 5.21403 18.2663 5.21403C18.187 5.21403 17.9141 5.02127 17.6601 4.78554ZM9.61847 18.2224V11.9153H13.8075V18.2224H9.61847Z" fill="#4F4281"/>
</svg>