<svg width="141" height="170" viewBox="0 0 141 170" fill="none" xmlns="http://www.w3.org/2000/svg">
<path d="M70.7394 169.498C32.2436 169.498 0.914062 138.181 0.914062 99.673C0.914062 61.1648 32.2436 29.8477 70.7394 29.8477C109.235 29.8477 140.565 61.1648 140.565 99.673C140.565 138.181 109.248 169.498 70.7394 169.498ZM70.7394 33.5233C34.2664 33.5233 4.58972 63.2 4.58972 99.673C4.58972 136.146 34.2664 165.823 70.7394 165.823C107.212 165.823 136.889 136.146 136.889 99.673C136.889 63.2 107.212 33.5233 70.7394 33.5233Z" fill="url(#paint0_linear_254_2)"/>
<g clip-path="url(#clip0_254_2)">
<path d="M81.6979 108.06V107.562H79.1932C76.0084 107.562 73.3379 110.233 73.3379 113.418V113.915H75.8426C79.1932 113.75 81.6979 111.245 81.6979 108.06Z" fill="url(#paint1_linear_254_2)"/>
<path d="M71.4976 79.9766C59.9529 79.9766 50.5977 89.3483 50.5977 100.876C50.5977 112.405 59.9694 121.776 71.4976 121.776C71.3317 121.611 71.3317 121.445 71.3317 121.279V105.554H66.3223C62.1424 105.554 58.7917 102.203 58.7917 98.0235V96.1823C58.7917 95.6847 59.2894 95.1705 59.787 95.1705H65.8081C67.9811 95.1705 69.8223 95.9998 71.3317 97.5093V91.9857C71.3317 91.4881 71.8293 90.9739 72.3269 90.9739C72.8245 90.9739 73.3222 91.4715 73.3222 91.9857V108.042C74.8316 106.533 76.8386 105.537 79.1774 105.537H82.8598C83.3574 105.537 83.855 106.035 83.855 106.549V108.059C83.855 112.405 80.3386 115.921 75.9927 115.921H73.488V121.113C73.488 121.279 73.488 121.445 73.3222 121.611C83.855 120.781 92.3809 111.741 92.3809 100.876C92.3809 89.3318 83.0091 79.9766 71.481 79.9766H71.4976ZM61.794 108.573C62.9717 108.573 63.967 109.568 63.967 110.746C63.967 111.924 62.9717 112.919 61.794 112.919C60.6163 112.919 59.6211 111.907 59.6211 110.746C59.787 109.568 60.7988 108.573 61.794 108.573ZM63.967 89.846C62.7893 89.846 61.794 88.8341 61.794 87.673C61.794 86.5119 62.8059 85.5001 63.967 85.5001C65.1281 85.5001 66.1399 86.5119 66.1399 87.673C65.974 88.8507 65.1281 89.846 63.967 89.846ZM80.6869 96.033C79.5092 96.033 78.514 95.0212 78.514 93.8601C78.514 92.699 79.5092 91.6871 80.6869 91.6871C81.8646 91.6871 82.8598 92.699 82.8598 93.8601C82.6939 95.2036 81.8646 96.033 80.6869 96.033Z" fill="url(#paint2_linear_254_2)"/>
<path d="M60.7988 97.0273V97.8567C60.7988 100.859 63.3035 103.38 66.3224 103.38H71.3317V102.551C71.3317 99.5486 68.827 97.0273 65.8082 97.0273H60.7988Z" fill="url(#paint3_linear_254_2)"/>
<path d="M102.93 107.892C103.096 107.56 103.261 107.229 103.759 107.063L115.967 104.392V97.3593L103.759 94.6887C103.427 94.5228 103.096 94.357 102.93 93.8594C102.1 90.3429 100.757 86.843 98.7497 83.6582C98.5838 83.3265 98.5838 82.8289 98.7497 82.4805L105.434 71.9476L100.425 66.9217L89.8921 73.6064C89.5604 73.7722 89.0627 73.7722 88.7144 73.6064C85.5297 71.5993 82.1956 70.2557 78.5133 69.4264C78.1815 69.2605 77.8498 69.0946 77.6839 68.597L75.0134 56.5547H67.997L65.3264 68.7629C65.1606 69.0946 64.9947 69.4264 64.4971 69.5922C60.8147 70.4216 57.4807 71.7652 54.2959 73.7722C53.9642 73.9381 53.4666 73.9381 53.1182 73.7722L42.5853 67.0876L37.576 72.0969L44.2607 82.6298C44.4265 82.9616 44.4265 83.4592 44.2607 83.8075C42.2536 86.9922 40.91 90.3263 40.0807 94.0086C39.9148 94.3404 39.7489 94.6721 39.2513 94.838L27.209 97.3427V104.376L39.4172 107.046C39.7489 107.212 40.0807 107.378 40.2465 107.876C41.0759 111.558 42.4195 114.892 44.4265 118.077C44.5924 118.408 44.5924 118.906 44.4265 119.254L37.7419 129.787L42.7512 134.813L53.2841 128.129C53.6158 127.963 54.1135 127.963 54.4618 128.129C57.6465 130.136 60.9806 131.479 64.6629 132.309C64.9947 132.474 65.3264 132.64 65.4923 133.138L68.1628 145.346H75.1792L77.8498 133.138C78.0157 132.806 78.1815 132.474 78.6791 132.309C82.3615 131.479 85.6955 130.136 88.8803 128.129C89.212 127.963 89.7097 127.963 90.058 128.129L100.591 134.813L105.6 129.787L98.9156 119.254C98.7497 118.923 98.7497 118.425 98.9156 118.077C100.591 114.892 102.1 111.392 102.93 107.876V107.892ZM71.4969 123.783C58.7911 123.783 48.5899 113.582 48.5899 100.876C48.5899 88.1699 58.9569 77.9688 71.4969 77.9688C84.0368 77.9688 94.4038 88.3358 94.4038 100.876C94.4038 113.416 84.2027 123.783 71.4969 123.783Z" fill="url(#paint4_linear_254_2)"/>
</g>
<path d="M69.5078 33.3156C68.4963 33.3156 67.6699 32.4892 67.6699 31.4778V2.38081C67.6699 1.36938 68.4963 0.542969 69.5078 0.542969C70.5192 0.542969 71.3456 1.36938 71.3456 2.38081V31.4778C71.3456 32.4892 70.5192 33.3156 69.5078 33.3156Z" fill="url(#paint5_linear_254_2)"/>
<path d="M84.5799 19.2663C84.1112 19.2663 83.6425 19.0812 83.2848 18.7235L69.5196 4.95828L55.7544 18.7235C55.039 19.4389 53.8672 19.4389 53.1518 18.7235C52.4364 18.0081 52.4364 16.8364 53.1518 16.121L68.2245 1.04827C68.9399 0.332869 70.1116 0.332869 70.827 1.04827L85.8997 16.121C86.6151 16.8364 86.6151 18.0081 85.8997 18.7235C85.542 19.0812 85.0733 19.2663 84.6046 19.2663H84.5799Z" fill="url(#paint6_linear_254_2)"/>
<defs>
<linearGradient id="paint0_linear_254_2" x1="70.7394" y1="29.8477" x2="70.7394" y2="169.498" gradientUnits="userSpaceOnUse">
<stop stop-color="#A0DDFF"/>
<stop offset="1" stop-color="#5DE29B"/>
</linearGradient>
<linearGradient id="paint1_linear_254_2" x1="77.5179" y1="107.562" x2="77.5179" y2="113.915" gradientUnits="userSpaceOnUse">
<stop stop-color="#5DE29B"/>
<stop offset="1" stop-color="#A0DDFF"/>
</linearGradient>
<linearGradient id="paint2_linear_254_2" x1="71.4893" y1="79.9766" x2="71.4893" y2="121.776" gradientUnits="userSpaceOnUse">
<stop stop-color="#5DE29B"/>
<stop offset="1" stop-color="#A0DDFF"/>
</linearGradient>
<linearGradient id="paint3_linear_254_2" x1="66.0653" y1="97.0273" x2="66.0653" y2="103.38" gradientUnits="userSpaceOnUse">
<stop stop-color="#5DE29B"/>
<stop offset="1" stop-color="#A0DDFF"/>
</linearGradient>
<linearGradient id="paint4_linear_254_2" x1="71.5881" y1="56.5547" x2="71.5881" y2="145.346" gradientUnits="userSpaceOnUse">
<stop stop-color="#5DE29B"/>
<stop offset="1" stop-color="#A0DDFF"/>
</linearGradient>
<linearGradient id="paint5_linear_254_2" x1="69.5078" y1="0.542969" x2="69.5078" y2="33.3156" gradientUnits="userSpaceOnUse">
<stop stop-color="#A0DDFF"/>
<stop offset="1" stop-color="#5DE29B"/>
</linearGradient>
<linearGradient id="paint6_linear_254_2" x1="69.5258" y1="0.511719" x2="69.5258" y2="19.2663" gradientUnits="userSpaceOnUse">
<stop stop-color="#A0DDFF"/>
<stop offset="1" stop-color="#5DE29B"/>
</linearGradient>
<clipPath id="clip0_254_2">
<rect width="88.808" height="88.808" fill="white" transform="translate(27.1758 56.5547)"/>
</clipPath>
</defs>
</svg>
