<svg width="16" height="13" viewBox="0 0 16 13" fill="none" xmlns="http://www.w3.org/2000/svg">
<path d="M14.7779 0H0.70372C0.315076 0 0 0.315076 0 0.70372V11.9631C0 12.3518 0.315076 12.6668 0.70372 12.6668H14.778C15.1666 12.6668 15.4817 12.3518 15.4817 11.9631V0.70372C15.4817 0.315076 15.1666 0 14.7779 0ZM1.40741 5.16056H5.44368C5.2631 5.51274 5.16056 5.91118 5.16056 6.33342C5.16056 6.75566 5.26316 7.1541 5.44368 7.50628H1.40741V5.16056ZM14.0742 11.2594H1.40741V8.91369H14.0742L14.0742 11.2594ZM6.56797 6.33342C6.56797 5.6867 7.09411 5.16056 7.74083 5.16056C8.38755 5.16056 8.91369 5.6867 8.91369 6.33342C8.91369 6.98014 8.38755 7.50628 7.74083 7.50628C7.09411 7.50628 6.56797 6.98014 6.56797 6.33342ZM14.0742 7.50628H10.038C10.2186 7.1541 10.3211 6.75566 10.3211 6.33342C10.3211 5.91118 10.2185 5.51274 10.038 5.16056H14.0742V7.50628ZM14.0742 3.75315H1.40741V1.40744H14.0742L14.0742 3.75315Z" fill="#828282"/>
</svg>
