<svg width="55" height="54" viewBox="0 0 55 54" fill="none" xmlns="http://www.w3.org/2000/svg">
<path d="M27.5876 31.6242C30.1931 31.6242 32.3259 29.5019 32.3259 26.8858C32.3259 25.8562 31.9897 24.9001 31.4329 24.1227C30.5714 22.9354 29.174 22.1475 27.5981 22.1475C26.0221 22.1475 24.6248 22.9249 23.7633 24.1227C23.2064 24.9001 22.8702 25.8562 22.8702 26.8858C22.8597 29.5019 24.982 31.6242 27.5876 31.6242Z" fill="white"/>
<path d="M37.9259 21.1076V17.1362V16.5479H37.3375L33.3661 16.5584L33.3872 21.1181L37.9259 21.1076Z" fill="white"/>
<path d="M34.942 26.897C34.942 30.9524 31.643 34.2514 27.5876 34.2514C23.5321 34.2514 20.2331 30.9524 20.2331 26.897C20.2331 25.9199 20.4328 24.9848 20.7795 24.1338H16.7661V35.1444C16.7661 36.5628 17.9218 37.7185 19.3401 37.7185H35.8351C37.2534 37.7185 38.4091 36.5628 38.4091 35.1444V24.1338H34.3957C34.7529 24.9848 34.942 25.9199 34.942 26.897Z" fill="white"/>
<path d="M27.5876 0C12.7316 0 0.691345 12.0403 0.691345 26.8962C0.691345 41.7522 12.7316 53.7925 27.5876 53.7925C42.4436 53.7925 54.4838 41.7522 54.4838 26.8962C54.4838 12.0403 42.4436 0 27.5876 0ZM41.0357 24.1331V35.1437C41.0357 38.012 38.7033 40.3444 35.8351 40.3444H19.3401C16.4719 40.3444 14.1395 38.012 14.1395 35.1437V24.1331V18.6383C14.1395 15.77 16.4719 13.4376 19.3401 13.4376H35.8351C38.7033 13.4376 41.0357 15.77 41.0357 18.6383V24.1331Z" fill="white"/>
</svg>
