<svg width="23" height="23" viewBox="0 0 23 23" fill="none" xmlns="http://www.w3.org/2000/svg">
<path d="M21.9165 8.37508H12.5415V5.25008C12.5415 4.42128 12.8707 3.62642 13.4568 3.04037C14.0428 2.45432 14.8377 2.12508 15.6665 2.12508C15.9428 2.12508 16.2077 2.01533 16.4031 1.81998C16.5984 1.62463 16.7082 1.35968 16.7082 1.08341C16.7082 0.807147 16.5984 0.542195 16.4031 0.346845C16.2077 0.151495 15.9428 0.041748 15.6665 0.041748C14.6854 0.0447366 13.7251 0.325171 12.8966 0.850668C12.0681 1.37616 11.4051 2.12529 10.9842 3.01154C9.89376 1.93805 8.4638 1.27739 6.93954 1.14283C5.41529 1.00827 3.8917 1.4082 2.63005 2.27404C2.41801 2.40135 2.25819 2.59995 2.17918 2.83431C2.10017 3.06868 2.10712 3.3235 2.1988 3.55321C2.87433 5.07602 4.11399 6.27759 5.65713 6.90529C6.34616 7.16512 7.07699 7.29646 7.81338 7.29279C8.71588 7.27596 9.60944 7.11055 10.4582 6.80321V8.37508H1.08317C0.806903 8.37508 0.541951 8.48483 0.346601 8.68018C0.151251 8.87553 0.0415039 9.14048 0.0415039 9.41675V21.9167C0.0415039 22.193 0.151251 22.458 0.346601 22.6533C0.541951 22.8487 0.806903 22.9584 1.08317 22.9584H21.9165C22.1928 22.9584 22.4577 22.8487 22.6531 22.6533C22.8484 22.458 22.9582 22.193 22.9582 21.9167V9.41675C22.9582 9.14048 22.8484 8.87553 22.6531 8.68018C22.4577 8.48483 22.1928 8.37508 21.9165 8.37508ZM6.41963 4.96675C5.70383 4.68707 5.08165 4.21077 4.62484 3.59279C5.51334 3.21013 6.50129 3.12313 7.44299 3.34463C8.38469 3.56613 9.23028 4.0844 9.85504 4.823C8.76273 5.27473 7.54586 5.32565 6.41963 4.96675ZM20.8748 18.9834C20.4387 19.1382 20.0426 19.3883 19.7153 19.7156C19.3881 20.0428 19.138 20.4389 18.9832 20.8751H4.0165C3.86172 20.4389 3.6116 20.0428 3.28435 19.7156C2.95711 19.3883 2.56098 19.1382 2.12484 18.9834V12.3501C2.56098 12.1953 2.95711 11.9452 3.28435 11.6179C3.6116 11.2907 3.86172 10.8946 4.0165 10.4584H18.9832C19.138 10.8946 19.3881 11.2907 19.7153 11.6179C20.0426 11.9452 20.4387 12.1953 20.8748 12.3501V18.9834ZM13.5832 15.6667C13.5832 16.0788 13.461 16.4816 13.2321 16.8242C13.0031 17.1668 12.6778 17.4338 12.2971 17.5915C11.9164 17.7492 11.4975 17.7904 11.0934 17.7101C10.6893 17.6297 10.3181 17.4312 10.0267 17.1399C9.73534 16.8485 9.53692 16.4773 9.45653 16.0732C9.37615 15.6691 9.41741 15.2502 9.57509 14.8695C9.73277 14.4888 9.9998 14.1634 10.3424 13.9345C10.685 13.7056 11.0878 13.5834 11.4998 13.5834C12.0524 13.5834 12.5823 13.8029 12.973 14.1936C13.3637 14.5843 13.5832 15.1142 13.5832 15.6667Z" fill="#828282"/>
</svg>
