<svg width="73" height="68" viewBox="0 0 73 68" fill="none" xmlns="http://www.w3.org/2000/svg">
<path d="M42.2267 40.2575C41.4272 39.9434 41.0845 39.772 41.0845 39.4008C41.0845 39.0867 41.37 38.8011 41.9697 38.8011C42.5694 38.8011 43.0263 38.9725 43.2547 39.0867L43.5688 37.973C43.2833 37.8588 42.9406 37.7446 42.4837 37.6875V36.7737H40.8846V37.8302C40.085 38.1158 39.6281 38.744 39.6281 39.515C39.6281 40.4003 40.2849 40.9714 41.3129 41.3426C42.0554 41.5996 42.3409 41.828 42.3409 42.1993C42.3409 42.599 41.9983 42.856 41.37 42.856C40.7704 42.856 40.1993 42.6562 39.828 42.4848L39.5425 43.627C39.828 43.7698 40.3135 43.9126 40.856 43.9697V44.8549H42.4552V43.8269C43.3404 43.5128 43.7687 42.856 43.7687 42.085C43.8258 41.2284 43.3118 40.6573 42.2267 40.2575Z" fill="#48DBB2"/>
<g clip-path="url(#clip0_14_418)">
<path d="M72.2041 31.8873L64.0363 23.6858C63.7749 23.4234 63.2521 23.4234 62.847 23.6858L54.6791 32.0185C54.4177 32.281 54.4178 32.5434 54.5484 32.9502C54.6791 33.2127 54.9405 33.4751 55.3456 33.4751H60.2202V34.2624C60.2202 48.8151 48.4977 60.5859 34.0046 60.5859C19.5115 60.5859 7.77583 48.8151 7.77583 34.2624C7.77583 19.7098 19.4984 7.93902 33.9915 7.93902C42.2901 7.93902 49.8045 11.7707 54.8098 18.2532C54.9405 18.3844 55.0712 18.5156 55.2019 18.5156C55.4632 18.6469 55.7246 18.5156 55.999 18.3844C56.3911 18.122 56.3911 17.5839 56.1297 17.1903C50.8631 10.1829 42.6952 6.20687 33.9915 6.20687C18.5836 6.21999 6.06384 18.7912 6.06384 34.2624C6.06384 49.7337 18.5836 62.3049 33.9915 62.3049C49.3994 62.3049 61.9322 49.7337 61.9322 34.2624V33.4751H65.8789V34.2624C65.8789 51.9907 51.5165 66.5434 33.7301 66.5434C15.9437 66.5434 1.71199 51.8595 1.71199 34.1312C1.71199 16.4029 16.0744 1.85025 33.8608 1.85025C44.0021 1.85025 53.3592 6.61366 59.5537 14.6839C59.8151 15.0776 60.3509 15.0776 60.743 14.8151C61.135 14.5527 61.135 14.0278 60.8737 13.621C57.8417 9.5137 53.7643 6.07565 49.1511 3.7005C44.4072 1.18101 39.2712 0 33.8608 0C15.1465 0.262447 0 15.4844 0 34.1312C0 52.7781 15.1465 68 33.7301 68C52.3137 68 67.4602 52.7912 67.4602 34.1312V33.3439H71.5376C71.9297 33.3439 72.3348 32.9502 72.3348 32.5434C72.4655 32.281 72.3348 32.0185 72.2041 31.8873Z" fill="#48DBB2"/>
<path d="M33.7299 54.7731C42.0284 54.7731 49.5429 49.7472 52.7055 42.0706C52.8362 41.6769 52.7055 41.1389 52.3134 41.0077C51.9214 40.8765 51.3856 41.0077 51.2549 41.4014C48.3537 48.5399 41.375 53.0409 33.7299 53.0409C33.3378 53.0409 32.9327 53.4346 32.9327 53.8282C32.9327 54.2219 33.3247 54.7599 33.7299 54.7599V54.7731Z" fill="#48DBB2"/>
<path d="M33.7302 15.078C34.1222 15.078 34.5143 14.6844 34.5143 14.2907C34.5143 13.897 34.1222 13.4902 33.7302 13.4902C22.3997 13.4902 13.1732 22.7546 13.1732 34.1317C13.1732 38.8951 14.8852 43.6585 17.9171 47.359C18.0478 47.4902 18.3092 47.6215 18.5706 47.6215C18.7012 47.6215 18.9626 47.6215 19.0933 47.4902C19.4854 47.2278 19.4854 46.6898 19.224 46.2961C16.4534 42.858 14.8721 38.6195 14.8721 34.1186C14.8721 23.6732 23.3014 15.0649 33.7171 15.0649L33.7302 15.078Z" fill="#48DBB2"/>
<path d="M50.1966 22.4919C51.1376 22.4919 51.9086 23.2662 51.9086 24.211C51.9086 25.1558 51.1376 25.93 50.1966 25.93C49.2557 25.93 48.4846 25.1558 48.4846 24.211C48.4846 23.2662 49.2557 22.4919 50.1966 22.4919Z" fill="#48DBB2"/>
<path d="M22.2691 27.5181C23.21 27.5181 23.981 28.2923 23.981 29.2371C23.981 30.1819 23.21 30.9561 22.2691 30.9561C21.3281 30.9561 20.5571 30.1819 20.5571 29.2371C20.5571 28.2923 21.3281 27.5181 22.2691 27.5181Z" fill="#48DBB2"/>
<path d="M23.8504 42.3333C24.7914 42.3333 25.5624 43.1075 25.5624 44.0523C25.5624 44.9971 24.7914 45.7713 23.8504 45.7713C22.9095 45.7713 22.1384 44.9971 22.1384 44.0523C22.1384 43.1075 22.9095 42.3333 23.8504 42.3333Z" fill="#48DBB2"/>
</g>
<path d="M43.912 26.2657H43.6835L35.2596 17.8703C35.0311 17.6419 34.6885 17.6419 34.46 17.8703L25.3222 27.0081C25.2937 27.0367 25.2651 27.0938 25.2365 27.1224C25.2365 27.1224 25.2365 27.1509 25.208 27.1509C25.1794 27.208 25.1794 27.2366 25.1509 27.2937C25.1509 27.3222 25.1509 27.3508 25.1509 27.4079V38.8302C25.1509 39.1443 25.4079 39.4013 25.722 39.4013H36.002V46.8258H47.3387V29.6924C47.3387 27.8077 45.7966 26.2657 43.912 26.2657ZM34.8598 19.0696L42.0558 26.2657H34.9169C34.8884 26.2657 34.8598 26.2657 34.8598 26.2657C34.1745 26.2657 33.5177 26.4941 33.0037 26.8368H27.0927L34.8598 19.0696ZM31.89 27.979C31.6045 28.493 31.4331 29.0641 31.4331 29.6924V33.0048L26.4073 27.979H31.89ZM26.2931 29.4925L30.6336 33.8329L26.2931 37.6309V29.4925ZM36.002 38.2591H27.1783L34.8598 31.5485L36.002 32.5479V38.2591ZM46.1964 45.6836H37.1443V29.6924C37.1443 28.4645 36.0877 27.4365 34.8598 27.4079H43.912C45.1684 27.4079 46.1964 28.4359 46.1964 29.6924V45.6836Z" fill="#48DBB2"/>
<path d="M45.0824 29.6921H38.229V30.8344H45.0824V29.6921Z" fill="#48DBB2"/>
<path d="M45.0824 31.9768H38.229V33.119H45.0824V31.9768Z" fill="#48DBB2"/>
<path d="M45.0824 34.2612H38.229V35.4035H45.0824V34.2612Z" fill="#48DBB2"/>
<defs>
<clipPath id="clip0_14_418">
<rect width="72.3871" height="68" fill="white"/>
</clipPath>
</defs>
</svg>
