<svg width="125" height="162" viewBox="0 0 125 162" fill="none" xmlns="http://www.w3.org/2000/svg">
<circle cx="62.5" cy="62.5" r="62.5" fill="url(#paint0_linear_245_76)"/>
<path d="M44.6081 27H80.8714C84.1146 27 86.7793 29.6647 86.7793 32.9079V90.0921C86.7793 93.3353 84.1146 96 80.8714 96H44.6081C41.3632 96 38.7002 93.337 38.7002 90.0921V32.9079C38.7002 29.663 41.3632 27 44.6081 27ZM54.6296 59.0962C53.143 60.7952 50.5553 58.531 52.0427 56.8321L60.1896 47.5488L59.479 47.5204C57.219 47.4326 57.3536 43.9954 59.6136 44.084L63.9262 44.2571C65.3442 44.314 66.1126 46.0096 65.1527 47.1074L54.6296 59.0962ZM68.9495 72.8852V48.3038C68.9495 46.0347 72.4 46.0347 72.4 48.3038V72.8852H76.8113V40.0239H48.6682V72.8852H53.0794V64.7775C53.0794 62.5092 56.53 62.5092 56.53 64.7775V72.8852H58.3694V58.8262C58.3694 56.5578 61.82 56.5578 61.82 58.8262V72.8852H63.6595V53.5646C63.6595 51.2962 67.1092 51.2962 67.1092 53.5646V72.8852H68.9495ZM76.8113 76.3349C67.4303 76.3349 58.0492 76.3349 48.6682 76.3349V82.9761H76.8113V76.3349ZM46.9433 36.5742H78.5362C79.4885 36.5742 80.2611 37.3467 80.2611 38.2991V84.7009C80.2611 85.6533 79.4885 86.4258 78.5362 86.4258H46.9433C45.991 86.4258 45.2184 85.6533 45.2184 84.7009V38.2991C45.2184 37.3467 45.991 36.5742 46.9433 36.5742ZM80.8714 30.4497H44.6081C43.2519 30.4497 42.1499 31.5517 42.1499 32.9079V90.0921C42.1499 91.4483 43.2519 92.5503 44.6081 92.5503H80.8714C82.2292 92.5503 83.3295 91.4491 83.3295 90.0921V32.9079C83.3295 31.5509 82.2292 30.4497 80.8714 30.4497Z" fill="white"/>
<path d="M64.6004 161.41C63.7804 161.41 63.1104 160.74 63.1104 159.92V136.33C63.1104 135.51 63.7804 134.84 64.6004 134.84C65.4204 134.84 66.0904 135.51 66.0904 136.33V159.92C66.0904 160.74 65.4204 161.41 64.6004 161.41Z" fill="url(#paint1_linear_245_76)"/>
<path d="M64.5995 161.99C64.1995 161.99 63.8295 161.83 63.5495 161.55L51.3295 149.33C50.7495 148.75 50.7495 147.8 51.3295 147.22C51.9095 146.64 52.8595 146.64 53.4395 147.22L64.5995 158.38L75.7595 147.22C76.3395 146.64 77.2895 146.64 77.8695 147.22C78.4495 147.8 78.4495 148.75 77.8695 149.33L65.6495 161.55C65.3695 161.83 64.9895 161.99 64.5995 161.99Z" fill="url(#paint2_linear_245_76)"/>
<defs>
<linearGradient id="paint0_linear_245_76" x1="62.5" y1="0" x2="62.5" y2="125" gradientUnits="userSpaceOnUse">
<stop stop-color="#48DBB2"/>
<stop offset="1" stop-color="#003350"/>
</linearGradient>
<linearGradient id="paint1_linear_245_76" x1="64.6004" y1="134.84" x2="64.6004" y2="161.41" gradientUnits="userSpaceOnUse">
<stop stop-color="#121F90"/>
<stop offset="1" stop-color="#9FBCFF"/>
</linearGradient>
<linearGradient id="paint2_linear_245_76" x1="64.5995" y1="146.785" x2="64.5995" y2="161.99" gradientUnits="userSpaceOnUse">
<stop stop-color="#121F90"/>
<stop offset="1" stop-color="#9FBCFF"/>
</linearGradient>
</defs>
</svg>
