<svg width="17" height="13" viewBox="0 0 17 13" fill="none" xmlns="http://www.w3.org/2000/svg">
<g clip-path="url(#clip0_1918_981)">
<path d="M16.2031 0.53125H0.796875C0.650174 0.53125 0.53125 0.650174 0.53125 0.796875V11.9531C0.53125 12.0998 0.650174 12.2188 0.796875 12.2188H16.2031C16.3498 12.2188 16.4688 12.0998 16.4688 11.9531V0.796875C16.4688 0.650174 16.3498 0.53125 16.2031 0.53125Z" stroke="#828282" stroke-width="2"/>
<path d="M8.5 1.0625V11.6875" stroke="#828282" stroke-width="2"/>
<path d="M8.5 11.6875C9.67361 11.6875 10.625 9.30901 10.625 6.375C10.625 3.44099 9.67361 1.0625 8.5 1.0625C7.32639 1.0625 6.375 3.44099 6.375 6.375C6.375 9.30901 7.32639 11.6875 8.5 11.6875Z" stroke="#828282"/>
<path d="M8.5 3.1875L7.96875 6.375L8.5 9.5625L9.03125 6.375L8.5 3.1875Z" stroke="#828282"/>
</g>
<defs>
<clipPath id="clip0_1918_981">
<rect width="17" height="12.75" fill="white"/>
</clipPath>
</defs>
</svg>
