<svg width="55" height="54" viewBox="0 0 55 54" fill="none" xmlns="http://www.w3.org/2000/svg">
<path d="M27.4116 0C12.5557 0 0.515381 12.0403 0.515381 26.8962C0.515381 41.7522 12.5557 53.7925 27.4116 53.7925C42.2676 53.7925 54.3079 41.7522 54.3079 26.8962C54.3079 12.0403 42.2676 0 27.4116 0ZM19.8891 38.1485H14.6464V21.3699H19.8891V38.1485ZM17.1259 19.2686H17.0839C15.1822 19.2686 13.953 17.9869 13.953 16.3584C13.953 14.6984 15.2243 13.4481 17.1574 13.4481C19.0906 13.4481 20.2778 14.6984 20.3198 16.3584C20.3303 17.9764 19.1011 19.2686 17.1259 19.2686ZM40.8597 38.1485H34.9132V29.4703C34.9132 27.2009 33.9886 25.646 31.9399 25.646C30.3744 25.646 29.5024 26.6966 29.1031 27.7052C28.9561 28.0624 28.9771 28.5667 28.9771 29.0816V38.1485H23.083C23.083 38.1485 23.1566 22.7672 23.083 21.3699H28.9771V24.007C29.3238 22.8513 31.2044 21.2123 34.2092 21.2123C37.939 21.2123 40.8597 23.6288 40.8597 28.8189V38.1485Z" fill="white"/>
</svg>
