<svg width="256" height="45" viewBox="0 0 256 45" fill="none" xmlns="http://www.w3.org/2000/svg">
<path d="M57.7109 21.1104V5.79036C57.7109 5.64381 57.7835 5.56739 57.9308 5.56006H59.518C59.9516 5.56006 60.2898 5.78722 60.5326 6.24153L66.3524 17.2927L72.1608 6.24153C72.4025 5.79455 72.7407 5.56739 73.1743 5.56006H74.7512C74.8964 5.56006 74.9742 5.63648 74.9815 5.79036V21.1104C74.9815 21.2569 74.9047 21.3302 74.7502 21.3302H73.1733C73.0281 21.3302 72.9503 21.2569 72.943 21.1104V8.94753L67.7519 18.7352C67.5091 19.1822 67.1709 19.4093 66.7373 19.4156H65.9437C65.51 19.4156 65.1729 19.1895 64.9301 18.7352L59.739 8.94753V21.1104C59.739 21.2569 59.6653 21.3302 59.518 21.3302H57.9308C57.7835 21.3302 57.7109 21.2569 57.7109 21.1104ZM78.3551 6.01124C78.3551 5.7108 78.5055 5.56111 78.8074 5.56111H80.2733C80.4424 5.56111 80.5596 5.59775 80.626 5.67103C80.6924 5.73697 80.7256 5.85003 80.7256 6.01124V7.47467C80.7256 7.64216 80.6924 7.76045 80.626 7.8264C80.5596 7.89235 80.4424 7.9248 80.2733 7.9248H78.8074C78.6456 7.9248 78.5273 7.89235 78.4547 7.8264C78.3883 7.76045 78.3551 7.64321 78.3551 7.47467V6.01124ZM78.5211 21.1093V9.50862C78.5211 9.35474 78.5937 9.27832 78.741 9.27832H80.3179C80.4714 9.27832 80.5492 9.35474 80.5492 9.50862V21.1093C80.5492 21.2559 80.4714 21.3292 80.3179 21.3292H78.741C78.5948 21.3292 78.5211 21.2559 78.5211 21.1093ZM83.0079 18.1081C83.0016 18.0788 82.9985 18.0495 82.9975 18.0202C82.9975 17.903 83.0774 17.8443 83.2392 17.8443H84.6604C84.7486 17.8443 84.8409 17.9176 84.9364 18.0642C85.6854 19.4125 87.0008 20.0877 88.8826 20.0877C89.9481 20.0877 90.7417 19.9296 91.2624 19.6145C91.7843 19.2994 92.0457 18.9027 92.0457 18.4264C92.0457 17.9501 91.8652 17.5617 91.5062 17.2613C91.1535 16.9535 90.5425 16.696 89.6763 16.4908L86.8545 15.8104C84.4447 15.2231 83.2392 14.0612 83.2392 12.3245C83.2392 11.3343 83.6874 10.524 84.5837 9.89384C85.48 9.26262 86.7103 8.94753 88.2768 8.94753C89.8412 8.94753 91.1048 9.26995 92.0675 9.91582C93.0302 10.5607 93.6619 11.4222 93.9638 12.4994C94.0074 12.6825 93.9306 12.7747 93.7315 12.7747H92.3102C92.222 12.7747 92.1339 12.6972 92.0457 12.5444C91.2956 11.194 90.0539 10.5198 88.3204 10.5198C87.3141 10.5198 86.5526 10.6811 86.0381 11.0045C85.5246 11.3269 85.2673 11.7268 85.2673 12.2031C85.2673 12.6721 85.4437 13.0563 85.7964 13.3577C86.1564 13.6582 86.7695 13.9146 87.6367 14.1271L90.4585 14.7971C92.8683 15.3697 94.0738 16.5348 94.0738 18.2945C94.0738 19.2848 93.6173 20.095 92.7065 20.7252C91.7957 21.3553 90.5207 21.6704 88.8826 21.6704C87.2436 21.6704 85.9281 21.3522 84.9364 20.7136C83.9509 20.0761 83.3087 19.2073 83.0068 18.1071L83.0079 18.1081ZM95.4411 18.1081C95.4349 18.0788 95.4318 18.0495 95.4307 18.0202C95.4307 17.903 95.5106 17.8443 95.6724 17.8443H97.0937C97.1829 17.8443 97.2742 17.9176 97.3696 18.0642C98.1197 19.4125 99.434 20.0877 101.316 20.0877C102.381 20.0877 103.175 19.9296 103.697 19.6145C104.219 19.2994 104.479 18.9027 104.479 18.4264C104.479 17.9501 104.299 17.5617 103.939 17.2613C103.587 16.9535 102.977 16.696 102.109 16.4908L99.2878 15.8104C96.8779 15.2231 95.6724 14.0612 95.6724 12.3245C95.6724 11.3343 96.1206 10.524 97.0169 9.89384C97.9132 9.26262 99.1436 8.94753 100.71 8.94753C102.274 8.94753 103.539 9.26995 104.501 9.91582C105.463 10.5607 106.095 11.4222 106.397 12.4994C106.441 12.6825 106.364 12.7747 106.166 12.7747H104.744C104.655 12.7747 104.568 12.6972 104.479 12.5444C103.73 11.194 102.487 10.5198 100.755 10.5198C99.7473 10.5198 98.9869 10.6811 98.4724 11.0045C97.9578 11.3269 97.7005 11.7268 97.7005 12.2031C97.7005 12.6721 97.8769 13.0563 98.2296 13.3577C98.5896 13.6582 99.2037 13.9146 100.07 14.1271L102.892 14.7971C105.302 15.3697 106.507 16.5348 106.507 18.2945C106.507 19.2848 106.052 20.095 105.141 20.7252C104.229 21.3553 102.954 21.6704 101.316 21.6704C99.6768 21.6704 98.3624 21.3522 97.3696 20.7136C96.3851 20.0761 95.7419 19.2073 95.4411 18.1071V18.1081ZM108.756 6.01124C108.756 5.7108 108.908 5.56111 109.208 5.56111H110.674C110.843 5.56111 110.961 5.59775 111.027 5.67103C111.093 5.73697 111.127 5.85003 111.127 6.01124V7.47467C111.127 7.64216 111.093 7.76045 111.027 7.8264C110.961 7.89235 110.843 7.9248 110.674 7.9248H109.208C109.047 7.9248 108.929 7.89235 108.856 7.8264C108.789 7.76045 108.756 7.64321 108.756 7.47467V6.01124ZM108.922 21.1093V9.50862C108.922 9.35474 108.996 9.27832 109.142 9.27832H110.719C110.872 9.27832 110.95 9.35474 110.95 9.50862V21.1093C110.95 21.2559 110.872 21.3292 110.719 21.3292H109.142C108.996 21.3292 108.922 21.2559 108.922 21.1093ZM119.482 21.6704C117.725 21.6704 116.307 21.1208 115.227 20.0207C114.155 18.9142 113.618 17.3377 113.618 15.2922C113.618 13.2405 114.155 11.6703 115.227 10.5858C116.307 9.49396 117.725 8.94753 119.482 8.94753C121.245 8.94753 122.663 9.49396 123.736 10.5858C124.816 11.6713 125.357 13.2405 125.357 15.2922C125.357 17.3377 124.816 18.9142 123.736 20.0217C122.663 21.1208 121.245 21.6704 119.482 21.6704ZM119.482 10.5198C118.343 10.5198 117.417 10.9197 116.705 11.7184C115.999 12.5109 115.647 13.6979 115.647 15.2818C115.647 16.8656 115.999 18.0642 116.705 18.8775C117.417 19.6836 118.343 20.0866 119.482 20.0866C120.628 20.0866 121.553 19.6836 122.259 18.8775C122.972 18.0642 123.328 16.8656 123.328 15.2818C123.328 13.6979 122.972 12.5109 122.259 11.7184C121.553 10.9197 120.628 10.5198 119.482 10.5198ZM128.08 21.1104V9.50757C128.08 9.35369 128.153 9.27727 128.3 9.27727H129.546C129.693 9.27727 129.774 9.35369 129.788 9.50757L129.998 10.7386C130.086 10.6141 130.277 10.4277 130.571 10.1786C130.864 9.92211 131.151 9.71693 131.431 9.562C132.151 9.15166 132.988 8.94648 133.943 8.94648C135.464 8.94648 136.71 9.41545 137.68 10.3544C138.65 11.2924 139.134 12.5862 139.134 14.236V21.1083C139.134 21.2548 139.062 21.3281 138.914 21.3281H137.327C137.18 21.3281 137.106 21.2548 137.106 21.1083V14.2371C137.106 13.0489 136.798 12.133 136.181 11.4881C135.564 10.8433 134.781 10.5198 133.833 10.5198C133.4 10.5198 132.97 10.6036 132.544 10.7732C132.125 10.9344 131.776 11.1291 131.497 11.3562C131.217 11.5761 130.971 11.8032 130.758 12.0377C130.325 12.4994 130.108 12.7809 130.108 12.8846V21.1093C130.108 21.2559 130.034 21.3292 129.887 21.3292H128.3C128.153 21.3292 128.08 21.2569 128.08 21.1104Z" fill="#003350"/>
<path d="M147.462 21.4391V6.12223C147.462 5.9673 147.534 5.89089 147.682 5.89089H158.616C158.762 5.89089 158.836 5.9673 158.836 6.12118V7.24336C158.836 7.39724 158.763 7.47365 158.616 7.47365H149.49V12.8731H157.029C157.182 12.8731 157.26 12.9506 157.26 13.1044V14.2256C157.26 14.3805 157.182 14.4569 157.029 14.4569H149.49V20.0866H158.616C158.762 20.0866 158.836 20.1599 158.836 20.3065V21.4391C158.836 21.5857 158.763 21.6589 158.616 21.6589H147.682C147.534 21.6589 147.462 21.5857 147.462 21.4391ZM160.875 21.4381V10.5084C160.875 9.00513 161.328 7.80759 162.231 6.91257C163.136 6.01022 164.414 5.56009 166.067 5.56009C167.272 5.56009 168.253 5.7391 169.011 6.09815C169.157 6.17143 169.23 6.26774 169.23 6.38498V7.49459C169.23 7.67883 169.158 7.73745 169.01 7.6715C168.261 7.31245 167.357 7.1324 166.299 7.1324C164.042 7.1324 162.915 8.25771 162.915 10.5084V11.2997H167.51C167.658 11.2997 167.736 11.373 167.743 11.5196V12.6522C167.743 12.7988 167.665 12.872 167.512 12.872H162.916V21.4381C162.916 21.5846 162.838 21.6579 162.683 21.6579H161.107C160.953 21.6579 160.875 21.5846 160.875 21.4381ZM170.356 21.4381V10.5084C170.356 9.00513 170.807 7.80759 171.711 6.91257C172.616 6.01022 173.894 5.56009 175.547 5.56009C176.752 5.56009 177.733 5.7391 178.49 6.09815C178.637 6.17143 178.71 6.26774 178.71 6.38498V7.49459C178.71 7.67883 178.638 7.73745 178.489 7.6715C177.74 7.31245 176.837 7.1324 175.779 7.1324C173.522 7.1324 172.395 8.25771 172.395 10.5084V11.2997H176.99C177.138 11.2997 177.215 11.373 177.223 11.5196V12.6522C177.223 12.7988 177.145 12.872 176.991 12.872H172.396V21.4381C172.396 21.5846 172.318 21.6579 172.163 21.6579H170.586C170.433 21.6579 170.356 21.5846 170.356 21.4381ZM179.836 6.33996C179.836 6.03953 179.986 5.88984 180.287 5.88984H181.753C181.922 5.88984 182.039 5.92648 182.106 5.99975C182.172 6.0657 182.205 6.1798 182.205 6.34101V7.8034C182.205 7.97089 182.172 8.08918 182.106 8.15513C182.039 8.22108 181.922 8.25353 181.753 8.25353H180.287C180.125 8.25353 180.008 8.22108 179.934 8.15513C179.868 8.08918 179.836 7.97194 179.836 7.8034V6.33996ZM180.001 21.4391V9.8363C180.001 9.68242 180.073 9.606 180.221 9.606H181.798C181.951 9.606 182.029 9.68242 182.029 9.8363V21.437C182.029 21.5836 181.951 21.6568 181.798 21.6568H180.221C180.074 21.6568 180.001 21.5836 180.001 21.437V21.4391ZM190.384 22.0002C188.738 22.0002 187.379 21.4496 186.306 20.3504C185.233 19.2429 184.697 17.6664 184.697 15.621C184.697 13.5692 185.233 12.0001 186.306 10.9145C187.386 9.82269 188.739 9.27626 190.362 9.27626C191.986 9.27626 193.257 9.61019 194.176 10.277C195.094 10.9438 195.697 11.8713 195.983 13.0594C196.028 13.2426 195.951 13.3316 195.752 13.3232H194.33C194.227 13.3232 194.139 13.2499 194.066 13.1034C193.375 11.6002 192.207 10.8486 190.56 10.8486C189.414 10.8486 188.489 11.2484 187.783 12.0472C187.078 12.8396 186.725 14.0267 186.725 15.6105C186.725 17.1943 187.078 18.3929 187.783 19.2063C188.496 20.0123 189.366 20.4164 190.396 20.4164C191.424 20.4164 192.221 20.229 192.787 19.8553C193.353 19.4816 193.816 18.9205 194.176 18.1731C194.248 18.0265 194.342 17.9491 194.452 17.9417H195.873C196.035 17.9417 196.112 18.0003 196.104 18.1176C196.104 18.1469 196.101 18.1804 196.094 18.217C195.807 19.4188 195.198 20.3504 194.264 21.0099C193.33 21.6694 192.038 22.0002 190.384 22.0002ZM198.596 6.33996C198.596 6.03953 198.747 5.88984 199.048 5.88984H200.514C200.683 5.88984 200.801 5.92648 200.867 5.99975C200.933 6.0657 200.967 6.1798 200.967 6.34101V7.8034C200.967 7.97089 200.933 8.08918 200.867 8.15513C200.801 8.22108 200.683 8.25353 200.514 8.25353H199.048C198.887 8.25353 198.769 8.22108 198.696 8.15513C198.629 8.08918 198.596 7.97194 198.596 7.8034V6.33996ZM198.762 21.4391V9.8363C198.762 9.68242 198.835 9.606 198.982 9.606H200.558C200.712 9.606 200.79 9.68242 200.79 9.8363V21.437C200.79 21.5836 200.712 21.6568 200.558 21.6568H198.982C198.835 21.6568 198.762 21.5836 198.762 21.437V21.4391ZM217.92 21.4391V9.83734C217.92 9.68346 217.993 9.60705 218.14 9.60705H219.386C219.533 9.60705 219.613 9.68346 219.628 9.83734L219.837 11.0694C219.925 10.9438 220.117 10.7575 220.411 10.5084C220.704 10.2519 220.991 10.0467 221.271 9.89282C221.991 9.48143 222.828 9.27626 223.783 9.27626C225.304 9.27626 226.55 9.74522 227.52 10.6842C228.49 11.6222 228.974 12.916 228.974 14.5658V21.4391C228.974 21.5857 228.901 21.6589 228.754 21.6589H227.167C227.02 21.6589 226.946 21.5857 226.946 21.4391V14.5658C226.946 13.3787 226.638 12.4617 226.021 11.8169C225.404 11.172 224.621 10.8486 223.673 10.8486C223.24 10.8486 222.81 10.9334 222.384 11.1019C222.006 11.2401 221.653 11.4369 221.336 11.685C221.057 11.9048 220.811 12.132 220.598 12.3664C220.165 12.8281 219.948 13.1107 219.948 13.2133V21.4391C219.948 21.5857 219.874 21.6589 219.727 21.6589H218.14C217.993 21.6589 217.92 21.5857 217.92 21.4391ZM237.165 22.0002C235.519 22.0002 234.159 21.4496 233.087 20.3504C232.014 19.2429 231.478 17.6664 231.478 15.621C231.478 13.5692 232.014 12.0001 233.087 10.9145C234.167 9.82269 235.519 9.27626 237.143 9.27626C238.766 9.27626 240.038 9.61019 240.956 10.277C241.874 10.9438 242.477 11.8713 242.763 13.0594C242.808 13.2426 242.731 13.3316 242.532 13.3232H241.111C241.008 13.3232 240.92 13.2499 240.846 13.1034C240.155 11.6002 238.987 10.8486 237.341 10.8486C236.195 10.8486 235.269 11.2484 234.564 12.0472C233.858 12.8396 233.506 14.0267 233.506 15.6105C233.506 17.1943 233.858 18.3929 234.564 19.2063C235.277 20.0123 236.147 20.4164 237.176 20.4164C238.204 20.4164 239.002 20.229 239.567 19.8553C240.134 19.4816 240.596 18.9205 240.956 18.1731C241.03 18.0265 241.121 17.9491 241.232 17.9417H242.653C242.815 17.9417 242.892 18.0003 242.885 18.1176C242.885 18.1469 242.882 18.1804 242.874 18.217C242.587 19.4188 241.978 20.3504 241.044 21.0099C240.111 21.6694 238.818 22.0002 237.165 22.0002ZM243.603 9.83734C243.588 9.81013 243.581 9.77977 243.58 9.74941C243.58 9.65415 243.646 9.606 243.779 9.606H245.3C245.476 9.606 245.586 9.68346 245.631 9.83734L248.143 17.0394C248.474 17.971 248.853 18.6379 249.278 19.0419C249.705 19.4376 250.289 19.6355 251.032 19.6355L253.621 9.83734C253.665 9.68346 253.78 9.60705 253.963 9.60705H255.473C255.613 9.60705 255.682 9.65415 255.682 9.74941C255.682 9.77977 255.674 9.81013 255.66 9.83734L252.651 21.2078C252.233 22.7843 251.674 23.9274 250.977 24.6381C250.286 25.3573 249.378 25.7164 248.253 25.7164C247.516 25.7237 246.782 25.6085 246.082 25.3751L245.774 25.2652C245.619 25.1846 245.543 25.0862 245.543 24.9689V23.8698C245.543 23.6856 245.619 23.6238 245.774 23.6814C246.523 23.9828 247.259 24.1325 247.978 24.1325C248.706 24.1325 249.261 23.9232 249.642 23.5055C250.024 23.0878 250.351 22.3226 250.624 21.2078C249.447 21.2078 248.537 20.9 247.89 20.2834C247.243 19.6679 246.649 18.5792 246.104 17.0174L243.603 9.83734ZM214.237 11.6243C214.276 11.7028 214.476 11.9393 214.634 12.2555L214.594 12.334C214.63 12.4449 214.599 12.5685 214.515 12.6491L209.158 16.9494L209.119 16.9891L207.531 18.3301V17.344C207.531 17.2655 207.531 16.674 207.611 16.3977C207.611 16.3579 207.611 16.2783 207.651 16.2396C207.77 15.9633 207.968 15.6869 208.207 15.4901L212.134 12.2157C212.174 12.1759 212.174 12.1759 212.174 12.1372C212.174 12.0974 212.174 12.0974 212.134 12.0576C211.423 11.4683 210.551 11.1103 209.634 11.0318C209.475 10.993 209.317 10.993 209.158 10.993C208.087 10.993 207.055 11.3479 206.222 12.0189C205.667 12.4921 205.23 13.0448 204.913 13.7147C204.802 14.011 204.71 14.3145 204.635 14.6223C204.635 14.7008 204.556 15.0955 204.556 15.4901C204.556 16.003 204.595 16.3977 204.794 16.9494C204.873 17.1472 204.952 17.3838 205.032 17.5806C205.072 17.6204 205.191 17.8172 205.191 17.8569C205.389 18.2128 205.707 18.6462 205.944 18.9215C206.222 19.1979 206.54 19.4345 206.857 19.6323C207.436 19.9464 208.069 20.1473 208.722 20.2238C208.96 20.2635 209.198 20.2635 209.397 20.2635H209.436C210.428 20.2238 211.341 19.8689 212.134 19.2377C213.245 18.3688 213.841 17.1074 213.88 15.7267C213.88 15.6482 213.88 15.5697 213.959 15.5299L215.111 14.5825C215.15 14.5427 215.189 14.504 215.269 14.504C215.428 14.504 215.546 14.6223 215.546 14.7406C215.864 16.9494 214.991 19.1581 213.245 20.5786C212.109 21.4988 210.694 21.9991 209.238 21.9991C207.531 21.9991 205.905 21.3679 204.715 20.1453C204.595 20.0657 204.358 19.7893 204.119 19.4742C204.04 19.356 203.921 19.1592 203.802 18.9613C203.723 18.8043 203.564 18.4882 203.524 18.4484C203.455 18.2474 203.376 18.0495 203.286 17.8569C203.206 17.5806 203.088 17.2257 203.008 16.9106C202.969 16.5945 202.889 16.1601 202.889 16.0418C202.889 15.6869 202.889 15.2923 202.929 14.9374C203.132 13.2761 203.972 11.7593 205.27 10.7167C206.406 9.79652 207.821 9.29614 209.277 9.29614C210.944 9.29614 212.532 9.92737 213.721 11.0715C213.841 11.15 214.158 11.506 214.237 11.6243Z" fill="#003350"/>
<path fill-rule="evenodd" clip-rule="evenodd" d="M2.67545 33.2298L23.692 15.4873L23.6644 19.8205C23.6644 20.8224 23.3777 21.951 22.6681 22.6544L9.59701 33.9177C12.6769 37.4095 17.1452 39.608 22.1152 39.608C31.3968 39.608 38.9317 31.9426 38.9317 22.4999C38.9317 22.4391 38.9317 22.3794 38.9307 22.3187L43.8372 18.2543C44.0963 19.629 44.2314 21.048 44.2314 22.4999C44.2314 34.9176 34.3221 44.9998 22.1152 44.9998C13.7274 44.9998 6.42394 40.2383 2.67545 33.2298ZM35.7013 12.4208C32.6409 8.16072 27.6934 5.39174 22.1152 5.39174C12.8346 5.39174 5.2997 13.0571 5.2997 22.4999C5.2997 23.1764 5.33861 23.8447 5.41336 24.5017L0.741303 28.2922C0.256999 26.4428 0 24.5017 0 22.4999C0 10.0822 9.9093 0 22.1152 0C31.188 0 38.9921 5.56988 42.4007 13.5288L38.0829 17.1215L38.0798 17.1143L22.1152 30.3486L22.1428 26.277C22.1428 25.275 22.4295 24.1454 23.1391 23.4421L35.7013 12.4208Z" fill="#003350"/>
<path d="M57.7099 39.6845V31.0354C57.7099 30.9484 57.7507 30.9053 57.8334 30.9053H63.958C64.0397 30.9053 64.0816 30.9484 64.0816 31.0354V31.6683C64.0816 31.7554 64.0397 31.7994 63.958 31.7994H58.8459V34.8474H63.069C63.1556 34.8474 63.1984 34.8914 63.1984 34.9785V35.6114C63.1984 35.6984 63.1556 35.7424 63.069 35.7424H58.8459V38.9215H63.958C64.0397 38.9215 64.0816 38.9626 64.0816 39.0448V39.6845C64.0816 39.7676 64.0397 39.8087 63.958 39.8087H57.8334C57.7507 39.8087 57.7099 39.7676 57.7099 39.6845Z" fill="#003350"/>
<path d="M65.8536 39.6845V31.0354C65.8536 30.9484 65.8944 30.9053 65.9771 30.9053H66.8661C66.9478 30.9053 66.9896 30.9484 66.9896 31.0354V39.6845C66.9896 39.7676 66.9478 39.8087 66.8661 39.8087H65.9771C65.8944 39.8087 65.8536 39.7676 65.8536 39.6845Z" fill="#003350"/>
<path d="M72.2004 40.0141C71.2822 40.0141 70.5216 39.7001 69.9186 39.0731C69.3165 38.4461 69.015 37.554 69.015 36.3968C69.015 35.2397 69.3165 34.3544 69.9186 33.7391C70.5216 33.1248 71.3104 32.8177 72.284 32.8177C73.2566 32.8177 74.0513 33.1307 74.667 33.7577C75.2817 34.3857 75.59 35.2162 75.59 36.2511V36.568C75.59 36.7372 75.5054 36.8223 75.3371 36.8223H70.1627C70.2328 37.5922 70.4594 38.1673 70.8416 38.5488C71.2248 38.9293 71.7102 39.1201 72.2996 39.1201C73.2294 39.1201 73.9044 38.7386 74.3246 37.9776C74.3732 37.8944 74.4248 37.8533 74.4783 37.8533H75.2749C75.3818 37.8533 75.4227 37.9032 75.3984 38.002C75.2301 38.6144 74.8839 39.1035 74.3616 39.4673C73.8383 39.8322 73.1185 40.0141 72.2004 40.0141ZM70.1627 35.9283H74.454C74.417 35.2622 74.1904 34.7251 73.775 34.3172C73.3588 33.9093 72.8637 33.7059 72.2899 33.7059C71.716 33.7059 71.2355 33.8937 70.8484 34.2703C70.4613 34.6469 70.2328 35.1996 70.1627 35.9283Z" fill="#003350"/>
<path d="M76.5524 33.1346C76.5398 33.1092 76.5359 33.0886 76.5398 33.072C76.5398 33.027 76.5797 33.0035 76.6575 33.0035H77.5037C77.5854 33.0035 77.6496 33.0475 77.6943 33.1346L80.0344 38.5361L82.3746 33.1346C82.4154 33.0515 82.4777 33.0074 82.5594 33.0035H83.4114C83.4902 33.0035 83.5291 33.027 83.5291 33.072C83.5291 33.0886 83.5232 33.1092 83.5106 33.1346L80.7941 39.4302C80.6744 39.6825 80.5062 39.8087 80.2873 39.8087H79.7816C79.5637 39.8087 79.3945 39.6825 79.2748 39.4302L76.5524 33.1346Z" fill="#003350"/>
<path d="M85.1837 39.4243C84.71 39.035 84.4737 38.5058 84.4737 37.8377C84.4737 37.1686 84.7178 36.6414 85.2051 36.254C85.6934 35.8676 86.3752 35.674 87.2525 35.674H89.4069V35.6114C89.4069 34.3407 88.7727 33.7059 87.5054 33.7059C87.1105 33.7059 86.7739 33.8008 86.4958 33.9915C86.2176 34.1813 86.0279 34.4258 85.9248 34.7242C85.8996 34.8063 85.8509 34.8474 85.776 34.8474H84.9804C84.8851 34.8474 84.8423 34.8063 84.8501 34.7242C84.9162 34.148 85.1876 33.6863 85.6652 33.3391C86.1427 32.9918 86.7564 32.8177 87.5054 32.8177C88.4848 32.8177 89.2357 33.0603 89.7589 33.5474C90.2812 34.0336 90.5429 34.7212 90.5429 35.6114V39.6845C90.5429 39.7676 90.4991 39.8087 90.4135 39.8087H89.722C89.6393 39.8087 89.5916 39.7676 89.58 39.6845L89.4681 38.9831C89.4195 39.0614 89.3096 39.171 89.1413 39.3089C88.9721 39.4478 88.8038 39.5603 88.6346 39.6473C88.1901 39.8831 87.6882 40.0014 87.129 40.0014C86.309 40.0014 85.6613 39.8087 85.1837 39.4243ZM85.6097 37.8406C85.6097 38.2544 85.7469 38.5694 86.0202 38.7846C86.2945 38.9998 86.6845 39.1074 87.1903 39.1074C87.4616 39.1074 87.7242 39.0604 87.9771 38.9675C88.231 38.8746 88.4381 38.765 88.6015 38.6388C88.7639 38.5126 88.9089 38.3825 89.0363 38.2505C89.1637 38.1184 89.2571 38.0069 89.3174 37.9179C89.3767 37.8289 89.4069 37.781 89.4069 37.7722V36.568H87.2525C86.1573 36.568 85.6097 36.9925 85.6097 37.8406Z" fill="#003350"/>
<path d="M92.821 37.2009V31.0354C92.821 30.9484 92.8618 30.9053 92.9445 30.9053H93.8335C93.9162 30.9053 93.957 30.9484 93.957 31.0354V33.0035H96.5374C96.6201 33.0035 96.6609 33.0476 96.6609 33.1346V33.7675C96.6609 33.8546 96.6201 33.8976 96.5374 33.8976H93.957V37.2009C93.957 37.8299 94.102 38.3053 94.3928 38.6261C94.6826 38.9469 95.0853 39.1074 95.5998 39.1074C96.0521 39.1074 96.4577 39.0448 96.8156 38.9215L96.9945 38.853C97.0772 38.8198 97.118 38.855 97.118 38.9587V39.5789C97.118 39.6493 97.0772 39.705 96.9945 39.7471C96.5705 39.9163 96.0647 40.0014 95.4763 40.0014C94.6651 40.0014 94.0203 39.7451 93.5407 39.2316C93.0612 38.7181 92.821 38.0412 92.821 37.2009Z" fill="#003350"/>
<path d="M101.446 40.0141C100.528 40.0141 99.767 39.7001 99.1639 39.0731C98.5609 38.4461 98.2594 37.554 98.2594 36.3968C98.2594 35.2397 98.5609 34.3544 99.1639 33.7391C99.767 33.1248 100.556 32.8177 101.528 32.8177C102.502 32.8177 103.297 33.1307 103.912 33.7577C104.527 34.3857 104.835 35.2162 104.835 36.2511V36.568C104.835 36.7372 104.751 36.8223 104.581 36.8223H99.4081C99.4781 37.5922 99.7047 38.1673 100.087 38.5488C100.47 38.9293 100.956 39.1201 101.544 39.1201C102.475 39.1201 103.15 38.7386 103.569 37.9776C103.619 37.8944 103.67 37.8533 103.724 37.8533H104.52C104.627 37.8533 104.668 37.9032 104.644 38.002C104.474 38.6144 104.129 39.1035 103.606 39.4673C103.084 39.8322 102.363 40.0141 101.446 40.0141ZM99.4081 35.9283H103.699C103.662 35.2622 103.436 34.7251 103.019 34.3172C102.604 33.9093 102.109 33.7059 101.535 33.7059C100.961 33.7059 100.48 33.8937 100.094 34.2703C99.7067 34.6469 99.4781 35.1996 99.4081 35.9283Z" fill="#003350"/>
<path d="M106.477 38.7904C106.477 38.6212 106.562 38.5361 106.73 38.5361H107.552C107.646 38.5361 107.712 38.5557 107.749 38.5948C107.786 38.6339 107.805 38.6995 107.805 38.7904V39.616C107.805 39.7119 107.786 39.7784 107.749 39.8156C107.712 39.8527 107.646 39.8713 107.552 39.8713H106.73C106.64 39.8713 106.575 39.8527 106.535 39.8156C106.497 39.7784 106.477 39.7119 106.477 39.616V38.7904Z" fill="#003350"/>
<path d="M113.127 37.5051C113.127 37.4308 113.17 37.3936 113.257 37.3936H114.053C114.127 37.3936 114.179 37.4347 114.207 37.5178C114.561 38.5772 115.463 39.1074 116.912 39.1074C117.669 39.1074 118.248 38.9714 118.65 38.7004C119.051 38.4295 119.251 38.093 119.251 37.6919C119.251 37.2899 119.125 36.9661 118.872 36.7196C118.619 36.4741 118.222 36.2736 117.683 36.121L115.467 35.4871C114.035 35.0734 113.318 34.2889 113.318 33.1346C113.318 32.4225 113.62 31.8415 114.223 31.3925C114.826 30.9435 115.634 30.7185 116.646 30.7185C117.659 30.7185 118.477 30.9376 119.1 31.3739C119.724 31.8102 120.116 32.4098 120.276 33.1718C120.293 33.2745 120.25 33.3263 120.147 33.3263H119.35C119.276 33.3263 119.225 33.2833 119.196 33.1962C118.842 32.1369 118 31.6067 116.671 31.6067C115.971 31.6067 115.427 31.7427 115.038 32.0136C114.649 32.2846 114.454 32.624 114.454 33.0319C114.454 33.4398 114.581 33.7616 114.834 33.9974C115.087 34.2331 115.487 34.4317 116.035 34.5931L118.251 35.2328C119.675 35.6387 120.387 36.4232 120.387 37.5863C120.387 38.3062 120.078 38.8892 119.458 39.3343C118.839 39.7794 117.99 40.0014 116.912 40.0014C115.833 40.0014 114.973 39.7843 114.331 39.3499C114.01 39.1338 113.729 38.8599 113.488 38.5263C113.247 38.1937 113.127 37.8533 113.127 37.5051Z" fill="#003350"/>
<path d="M122.282 37.0082V33.1346C122.282 33.0515 122.323 33.0074 122.406 33.0035H123.295C123.378 33.0035 123.418 33.0475 123.418 33.1346V37.0082C123.418 37.6792 123.592 38.1967 123.937 38.5606C124.283 38.9254 124.721 39.1074 125.252 39.1074C125.495 39.1074 125.735 39.0604 125.972 38.9675C126.208 38.8745 126.404 38.765 126.561 38.6388C126.718 38.5126 126.858 38.3825 126.981 38.2505C127.219 37.9893 127.339 37.8299 127.339 37.7721V33.1346C127.339 33.0515 127.38 33.0074 127.463 33.0035H128.352C128.434 33.0035 128.475 33.0475 128.475 33.1346V39.6845C128.475 39.7676 128.434 39.8087 128.352 39.8087H127.654C127.572 39.8087 127.526 39.7676 127.518 39.6845L127.4 38.9831C127.347 39.0663 127.239 39.1758 127.076 39.3118C126.914 39.4487 126.755 39.5603 126.598 39.6473C126.187 39.883 125.718 40.0014 125.191 40.0014C124.339 40.0014 123.641 39.7353 123.097 39.2032C122.554 38.6721 122.282 37.9404 122.282 37.0082Z" fill="#003350"/>
<path d="M131.006 41.7768V33.1346C131.006 33.0515 131.048 33.0075 131.13 33.0035H131.828C131.91 33.0035 131.955 33.0476 131.963 33.1346L132.081 33.8291C132.126 33.7597 132.23 33.6531 132.392 33.5102C132.556 33.3674 132.71 33.252 132.859 33.1649C133.241 32.9331 133.678 32.8177 134.167 32.8177C135.069 32.8177 135.811 33.1248 136.394 33.7391C136.976 34.3544 137.267 35.2416 137.267 36.3998C137.267 37.5589 136.967 38.4491 136.368 39.0702C135.77 39.6913 134.993 40.0014 134.038 40.0014C133.717 40.0014 133.399 39.9691 133.084 39.9056C132.77 39.841 132.531 39.7755 132.371 39.7099L132.142 39.616V41.7768C132.142 41.86 132.101 41.904 132.019 41.9079H131.13C131.048 41.904 131.006 41.86 131.006 41.7768ZM132.142 38.7288C132.69 38.9812 133.289 39.1074 133.94 39.1074C134.589 39.1074 135.116 38.8824 135.52 38.4334C135.923 37.9844 136.125 37.3134 136.125 36.4184C136.125 35.5243 135.939 34.8494 135.569 34.3916C135.198 33.9338 134.711 33.7059 134.106 33.7059C133.517 33.7059 132.981 33.9915 132.494 34.5618C132.26 34.8357 132.142 34.9951 132.142 35.0401V38.7288Z" fill="#003350"/>
<path d="M139.286 41.7768V33.1346C139.286 33.0515 139.327 33.0075 139.41 33.0035H140.107C140.189 33.0035 140.235 33.0476 140.242 33.1346L140.36 33.8291C140.406 33.7597 140.509 33.6531 140.672 33.5102C140.835 33.3674 140.99 33.252 141.138 33.1649C141.52 32.9331 141.957 32.8177 142.447 32.8177C143.348 32.8177 144.09 33.1248 144.673 33.7391C145.255 34.3544 145.546 35.2416 145.546 36.3998C145.546 37.5589 145.246 38.4491 144.648 39.0702C144.049 39.6913 143.272 40.0014 142.317 40.0014C141.996 40.0014 141.678 39.9691 141.364 39.9056C141.049 39.841 140.81 39.7755 140.65 39.7099L140.422 39.616V41.7768C140.422 41.86 140.38 41.904 140.299 41.9079H139.41C139.327 41.904 139.286 41.86 139.286 41.7768ZM140.422 38.7288C140.969 38.9812 141.568 39.1074 142.219 39.1074C142.868 39.1074 143.396 38.8824 143.799 38.4334C144.202 37.9844 144.404 37.3134 144.404 36.4184C144.404 35.5243 144.218 34.8494 143.849 34.3916C143.478 33.9338 142.99 33.7059 142.385 33.7059C141.797 33.7059 141.26 33.9915 140.773 34.5618C140.539 34.8357 140.422 34.9951 140.422 35.0401V38.7288Z" fill="#003350"/>
<path d="M150.343 40.0014C149.36 40.0014 148.566 39.6904 147.963 39.0673C147.36 38.4442 147.058 37.554 147.058 36.3968C147.058 35.2397 147.36 34.3544 147.963 33.7391C148.566 33.1248 149.361 32.8177 150.346 32.8177C151.332 32.8177 152.127 33.1248 152.73 33.7391C153.333 34.3544 153.634 35.2397 153.634 36.3968C153.634 37.554 153.333 38.4442 152.73 39.0673C152.127 39.6904 151.331 40.0014 150.343 40.0014ZM150.343 33.7059C149.705 33.7059 149.187 33.9299 148.791 34.3789C148.393 34.8278 148.194 35.4998 148.194 36.3939C148.194 37.288 148.393 37.9639 148.791 38.4217C149.187 38.8785 149.706 39.1074 150.346 39.1074C150.986 39.1074 151.505 38.8785 151.902 38.4217C152.299 37.9639 152.498 37.288 152.498 36.3939C152.498 35.4998 152.299 34.8278 151.902 34.3789C151.505 33.9299 150.985 33.7059 150.343 33.7059Z" fill="#003350"/>
<path d="M155.659 39.6845V33.1346C155.659 33.0476 155.7 33.0035 155.783 33.0035H156.48C156.562 33.0035 156.607 33.0476 156.615 33.1346L156.733 34.2145L156.832 34.0717C156.877 34.014 156.981 33.9064 157.143 33.7489C157.306 33.5914 157.488 33.4564 157.687 33.342C157.886 33.2285 158.15 33.1229 158.477 33.0251C158.805 32.9282 159.149 32.8793 159.512 32.8793H160.017C160.104 32.8793 160.147 32.9214 160.147 33.0035V33.7675C160.147 33.8546 160.104 33.8976 160.017 33.8976H159.641C159.23 33.8976 158.85 33.9504 158.505 34.0561C158.159 34.1617 157.884 34.2889 157.677 34.4385C157.262 34.7447 156.993 35.0176 156.869 35.2573L156.795 35.4187V39.6845C156.795 39.7676 156.753 39.8087 156.672 39.8087H155.783C155.7 39.8087 155.659 39.7676 155.659 39.6845Z" fill="#003350"/>
<path d="M161.604 37.2009V31.0354C161.604 30.9484 161.645 30.9053 161.727 30.9053H162.616C162.699 30.9053 162.74 30.9484 162.74 31.0354V33.0035H165.321C165.403 33.0035 165.445 33.0476 165.445 33.1346V33.7675C165.445 33.8546 165.403 33.8976 165.321 33.8976H162.74V37.2009C162.74 37.8299 162.886 38.3053 163.175 38.6261C163.465 38.9469 163.868 39.1074 164.382 39.1074C164.835 39.1074 165.24 39.0448 165.598 38.9215L165.777 38.853C165.86 38.8198 165.901 38.855 165.901 38.9587V39.5789C165.901 39.6493 165.86 39.705 165.777 39.7471C165.354 39.9163 164.847 40.0014 164.259 40.0014C163.448 40.0014 162.803 39.7451 162.323 39.2316C161.844 38.7181 161.604 38.0412 161.604 37.2009Z" fill="#003350"/>
<path d="M167.168 38.7904C167.168 38.6212 167.252 38.5361 167.421 38.5361H168.242C168.336 38.5361 168.402 38.5557 168.439 38.5948C168.476 38.6339 168.495 38.6995 168.495 38.7904V39.616C168.495 39.7119 168.476 39.7784 168.439 39.8156C168.402 39.8527 168.336 39.8713 168.242 39.8713H167.421C167.33 39.8713 167.265 39.8527 167.226 39.8156C167.187 39.7784 167.168 39.7119 167.168 39.616V38.7904Z" fill="#003350"/>
<path d="M174.44 39.6845V31.0354C174.44 30.9484 174.48 30.9053 174.563 30.9053H175.452C175.535 30.9053 175.576 30.9484 175.576 31.0354V39.6845C175.576 39.7676 175.535 39.8087 175.452 39.8087H174.563C174.48 39.8087 174.44 39.7676 174.44 39.6845Z" fill="#003350"/>
<path d="M178.107 39.6845V33.1346C178.107 33.0476 178.148 33.0035 178.231 33.0035H178.928C179.011 33.0035 179.055 33.0476 179.064 33.1346L179.181 33.8291C179.231 33.7597 179.338 33.6531 179.502 33.5102C179.666 33.3674 179.828 33.252 179.983 33.1649C180.387 32.9331 180.856 32.8177 181.392 32.8177C182.244 32.8177 182.941 33.0828 183.484 33.612C184.028 34.1421 184.299 34.8728 184.299 35.8041V39.6845C184.299 39.7676 184.258 39.8087 184.175 39.8087H183.286C183.205 39.8087 183.163 39.7676 183.163 39.6845V35.8041C183.163 35.133 182.991 34.6166 182.644 34.2517C182.299 33.8878 181.861 33.7059 181.329 33.7059C181.086 33.7059 180.847 33.7518 180.611 33.8448C180.373 33.9387 180.177 34.0482 180.02 34.1744C179.865 34.3006 179.727 34.4297 179.607 34.5618C179.364 34.823 179.243 34.9824 179.243 35.0401V39.6845C179.243 39.7676 179.201 39.8087 179.12 39.8087H178.231C178.148 39.8087 178.107 39.7676 178.107 39.6845Z" fill="#003350"/>
<path d="M185.646 33.1346C185.633 33.1092 185.629 33.0886 185.633 33.072C185.633 33.027 185.673 33.0035 185.751 33.0035H186.597C186.678 33.0035 186.743 33.0475 186.787 33.1346L189.128 38.5361L191.468 33.1346C191.509 33.0515 191.571 33.0074 191.652 33.0035H192.505C192.583 33.0035 192.622 33.027 192.622 33.072C192.622 33.0886 192.616 33.1092 192.604 33.1346L189.887 39.4302C189.768 39.6825 189.599 39.8087 189.38 39.8087H188.875C188.657 39.8087 188.488 39.6825 188.368 39.4302L185.646 33.1346Z" fill="#003350"/>
<path d="M196.753 40.0141C195.835 40.0141 195.074 39.7001 194.471 39.0731C193.868 38.4461 193.567 37.554 193.567 36.3968C193.567 35.2397 193.868 34.3544 194.471 33.7391C195.074 33.1248 195.862 32.8177 196.836 32.8177C197.809 32.8177 198.604 33.1307 199.219 33.7577C199.834 34.3857 200.142 35.2162 200.142 36.2511V36.568C200.142 36.7372 200.058 36.8223 199.889 36.8223H194.715C194.785 37.5922 195.012 38.1673 195.394 38.5488C195.778 38.9293 196.263 39.1201 196.851 39.1201C197.782 39.1201 198.457 38.7386 198.876 37.9776C198.926 37.8944 198.977 37.8533 199.031 37.8533H199.828C199.935 37.8533 199.975 37.9032 199.951 38.002C199.782 38.6144 199.437 39.1035 198.913 39.4673C198.391 39.8322 197.67 40.0141 196.753 40.0141ZM194.715 35.9283H199.006C198.969 35.2622 198.743 34.7251 198.327 34.3172C197.911 33.9093 197.416 33.7059 196.843 33.7059C196.268 33.7059 195.787 33.8937 195.4 34.2703C195.014 34.6469 194.785 35.1996 194.715 35.9283Z" fill="#003350"/>
<path d="M201.543 37.9893C201.54 37.9688 201.538 37.9521 201.538 37.9404C201.538 37.8739 201.583 37.8406 201.674 37.8406H202.469C202.519 37.8406 202.571 37.8817 202.624 37.9649C203.044 38.7269 203.781 39.1074 204.835 39.1074C205.431 39.1074 205.876 39.0184 206.168 38.8403C206.46 38.6623 206.606 38.4393 206.606 38.1693C206.606 37.9003 206.507 37.6802 206.307 37.508C206.107 37.3369 205.765 37.1931 205.279 37.0767L203.699 36.6922C202.349 36.3606 201.674 35.7043 201.674 34.7242C201.674 34.1646 201.925 33.7078 202.427 33.3518C202.928 32.9957 203.618 32.8177 204.495 32.8177C205.372 32.8177 206.08 32.9996 206.619 33.3635C207.157 33.7284 207.512 34.2145 207.681 34.823C207.705 34.9266 207.662 34.9785 207.551 34.9785H206.755C206.705 34.9785 206.656 34.9345 206.606 34.8474C206.187 34.0864 205.491 33.7059 204.52 33.7059C203.956 33.7059 203.53 33.7968 203.242 33.9788C202.954 34.1607 202.81 34.3857 202.81 34.6527C202.81 34.9188 202.909 35.1379 203.108 35.3071C203.309 35.4774 203.651 35.6221 204.137 35.7424L205.717 36.121C207.067 36.4438 207.742 37.1021 207.742 38.095C207.742 38.6545 207.487 39.1113 206.977 39.4673C206.467 39.8234 205.752 40.0014 204.835 40.0014C203.917 40.0014 203.181 39.8214 202.627 39.4615C202.074 39.1015 201.713 38.6105 201.543 37.9893Z" fill="#003350"/>
<path d="M209.637 37.2009V31.0354C209.637 30.9484 209.678 30.9053 209.761 30.9053H210.65C210.732 30.9053 210.773 30.9484 210.773 31.0354V33.0035H213.354C213.436 33.0035 213.477 33.0476 213.477 33.1346V33.7675C213.477 33.8546 213.436 33.8976 213.354 33.8976H210.773V37.2009C210.773 37.8299 210.918 38.3053 211.209 38.6261C211.499 38.9469 211.901 39.1074 212.416 39.1074C212.868 39.1074 213.274 39.0448 213.632 38.9215L213.811 38.853C213.893 38.8198 213.934 38.855 213.934 38.9587V39.5789C213.934 39.6493 213.893 39.705 213.811 39.7471C213.387 39.9163 212.881 40.0014 212.292 40.0014C211.481 40.0014 210.836 39.7451 210.357 39.2316C209.877 38.7181 209.637 38.0412 209.637 37.2009Z" fill="#003350"/>
<path d="M215.199 38.7904C215.199 38.6212 215.284 38.5361 215.453 38.5361H216.274C216.369 38.5361 216.435 38.5557 216.472 38.5948C216.509 38.6339 216.527 38.6995 216.527 38.7904V39.616C216.527 39.7119 216.509 39.7784 216.472 39.8156C216.435 39.8527 216.369 39.8713 216.274 39.8713H215.453C215.363 39.8713 215.298 39.8527 215.259 39.8156C215.219 39.7784 215.199 39.7119 215.199 39.616V38.7904Z" fill="#003350"/>
</svg>
