<svg width="29" height="29" viewBox="0 0 29 29" fill="none" xmlns="http://www.w3.org/2000/svg">
<path d="M24.4004 6.8007V4.93743C24.4004 3.91248 23.5667 3.07874 22.5417 3.07874H21.9222C20.8972 3.07874 20.0635 3.91248 20.0635 4.93743V6.79612H8.91123V4.93743C8.91123 3.91248 8.07748 3.07874 7.05253 3.07874H6.43296C5.40801 3.07874 4.57427 3.91248 4.57427 4.93743V6.8007C3.54575 6.82529 2.71558 7.66559 2.71558 8.6999V24.0989C2.71558 25.1487 3.56959 26.0027 4.61936 26.0027H24.3554C25.4052 26.0027 26.2592 25.1487 26.2592 24.0989V8.6999C26.2591 7.66559 25.4289 6.82529 24.4004 6.8007ZM21.3026 4.93743C21.3026 4.59587 21.5806 4.31785 21.9222 4.31785H22.5417C22.8833 4.31785 23.1613 4.59587 23.1613 4.93743V9.89396C23.1613 10.2355 22.8833 10.5135 22.5417 10.5135H21.9222C21.5806 10.5135 21.3026 10.2355 21.3026 9.89396V4.93743ZM5.81339 4.93743C5.81339 4.59587 6.09141 4.31785 6.43296 4.31785H7.05253C7.39409 4.31785 7.67211 4.59587 7.67211 4.93743V9.89396C7.67211 10.2355 7.39409 10.5135 7.05253 10.5135H6.43296C6.09141 10.5135 5.81339 10.2355 5.81339 9.89396V4.93743ZM25.02 24.099C25.02 24.4653 24.7217 24.7636 24.3554 24.7636H4.61933C4.25298 24.7636 3.95469 24.4653 3.95469 24.099V8.6999C3.95469 8.34866 4.22877 8.06006 4.57427 8.03677V9.89396C4.57427 10.9189 5.40801 11.7527 6.43296 11.7527H7.05253C8.07748 11.7527 8.91123 10.9189 8.91123 9.89396V8.03527H20.0635V9.89396C20.0635 10.9189 20.8972 11.7527 21.9222 11.7527H22.5417C23.5667 11.7527 24.4004 10.9189 24.4004 9.89396V8.03677C24.7459 8.06006 25.02 8.34866 25.02 8.6999V24.099Z" fill="#828282"/>
<path d="M20.0145 13.5448L18.6546 12.2777L13.4924 17.8178L10.3356 14.3453L8.96021 15.5956L13.4764 20.4861L20.0145 13.5448Z" fill="#828282"/>
</svg>
