<svg width="22" height="22" viewBox="0 0 22 22" fill="none" xmlns="http://www.w3.org/2000/svg">
<g clip-path="url(#clip0_1918_805)">
<path fill-rule="evenodd" clip-rule="evenodd" d="M1.83329 0.916672C1.32704 0.916672 0.916626 1.32708 0.916626 1.83334C0.916626 2.3396 1.32704 2.75001 1.83329 2.75001H2.95091L6.21812 15.8188C5.25499 16.2466 4.58329 17.2115 4.58329 18.3333C4.58329 19.8522 5.81451 21.0833 7.33329 21.0833C8.85207 21.0833 10.0833 19.8522 10.0833 18.3333C10.0833 18.012 10.0281 17.7034 9.92682 17.4167H13.9064C13.8051 17.7034 13.75 18.012 13.75 18.3333C13.75 19.8522 14.9811 21.0833 16.5 21.0833C18.0188 21.0833 19.25 19.8522 19.25 18.3333C19.25 16.8145 18.0188 15.5833 16.5 15.5833H8.04901L7.59067 13.75H16.5C18.3921 13.75 19.5267 12.5546 20.1563 11.2346C20.7715 9.94465 20.9857 8.40302 21.0604 7.28171C21.1643 5.72013 19.8736 4.58334 18.4443 4.58334H5.29901L4.72951 2.30536C4.52547 1.48921 3.79217 0.916672 2.95091 0.916672H1.83329ZM16.5 11.9167H7.13234L5.75734 6.41667H18.4443C18.9513 6.41667 19.2557 6.78953 19.2311 7.15989C19.1614 8.20619 18.9663 9.47082 18.5016 10.4453C18.0511 11.3897 17.4351 11.9167 16.5 11.9167ZM16.5 19.2443C15.9968 19.2443 15.589 18.8365 15.589 18.3333C15.589 17.8302 15.9968 17.4224 16.5 17.4224C17.0031 17.4224 17.4109 17.8302 17.4109 18.3333C17.4109 18.8365 17.0031 19.2443 16.5 19.2443ZM6.42228 18.3333C6.42228 18.8365 6.83015 19.2443 7.33329 19.2443C7.83643 19.2443 8.2443 18.8365 8.2443 18.3333C8.2443 17.8302 7.83643 17.4224 7.33329 17.4224C6.83015 17.4224 6.42228 17.8302 6.42228 18.3333Z" fill="#828282"/>
</g>
<defs>
<clipPath id="clip0_1918_805">
<rect width="22" height="22" fill="white"/>
</clipPath>
</defs>
</svg>
