<svg width="12" height="14" viewBox="0 0 12 14" fill="none" xmlns="http://www.w3.org/2000/svg">
<mask id="path-1-inside-1_3_354" fill="white">
<path d="M8.76923 0.466667L9.02529 0.0783765L8.90898 0H8.76923V0.466667ZM11.5385 2.33333H12V2.08358L11.7945 1.94504L11.5385 2.33333ZM10.6154 11.2H3.23077V12.1333H10.6154V11.2ZM2.76923 10.7333V1.4H1.84615V10.7333H2.76923ZM3.23077 0.933333H8.76923V0H3.23077V0.933333ZM11.0769 2.33333V10.7333H12V2.33333H11.0769ZM8.51317 0.854957L11.2824 2.72163L11.7945 1.94504L9.02529 0.0783765L8.51317 0.854957ZM3.23077 11.2C2.97587 11.2 2.76923 10.991 2.76923 10.7333H1.84615C1.84615 11.5065 2.46606 12.1333 3.23077 12.1333V11.2ZM10.6154 12.1333C11.3801 12.1333 12 11.5065 12 10.7333H11.0769C11.0769 10.991 10.8702 11.2 10.6154 11.2V12.1333ZM2.76923 1.4C2.76923 1.14227 2.97587 0.933333 3.23077 0.933333V0C2.46606 0 1.84615 0.626801 1.84615 1.4H2.76923ZM0 3.26667V12.6H0.923077V3.26667H0ZM1.38462 14H8.76923V13.0667H1.38462V14ZM1.38462 2.8H2.30769V1.86667H1.38462V2.8ZM10.1538 12.6V11.6667H9.23077V12.6H10.1538ZM8.76923 14C9.53391 14 10.1538 13.3732 10.1538 12.6H9.23077C9.23077 12.8577 9.02409 13.0667 8.76923 13.0667V14ZM0 12.6C0 13.3732 0.619911 14 1.38462 14V13.0667C1.12972 13.0667 0.923077 12.8577 0.923077 12.6H0ZM0.923077 3.26667C0.923077 3.00894 1.12972 2.8 1.38462 2.8V1.86667C0.619911 1.86667 0 2.49347 0 3.26667H0.923077Z"/>
</mask>
<path d="M8.76923 0.466667L9.02529 0.0783765L8.90898 0H8.76923V0.466667ZM11.5385 2.33333H12V2.08358L11.7945 1.94504L11.5385 2.33333ZM10.6154 11.2H3.23077V12.1333H10.6154V11.2ZM2.76923 10.7333V1.4H1.84615V10.7333H2.76923ZM3.23077 0.933333H8.76923V0H3.23077V0.933333ZM11.0769 2.33333V10.7333H12V2.33333H11.0769ZM8.51317 0.854957L11.2824 2.72163L11.7945 1.94504L9.02529 0.0783765L8.51317 0.854957ZM3.23077 11.2C2.97587 11.2 2.76923 10.991 2.76923 10.7333H1.84615C1.84615 11.5065 2.46606 12.1333 3.23077 12.1333V11.2ZM10.6154 12.1333C11.3801 12.1333 12 11.5065 12 10.7333H11.0769C11.0769 10.991 10.8702 11.2 10.6154 11.2V12.1333ZM2.76923 1.4C2.76923 1.14227 2.97587 0.933333 3.23077 0.933333V0C2.46606 0 1.84615 0.626801 1.84615 1.4H2.76923ZM0 3.26667V12.6H0.923077V3.26667H0ZM1.38462 14H8.76923V13.0667H1.38462V14ZM1.38462 2.8H2.30769V1.86667H1.38462V2.8ZM10.1538 12.6V11.6667H9.23077V12.6H10.1538ZM8.76923 14C9.53391 14 10.1538 13.3732 10.1538 12.6H9.23077C9.23077 12.8577 9.02409 13.0667 8.76923 13.0667V14ZM0 12.6C0 13.3732 0.619911 14 1.38462 14V13.0667C1.12972 13.0667 0.923077 12.8577 0.923077 12.6H0ZM0.923077 3.26667C0.923077 3.00894 1.12972 2.8 1.38462 2.8V1.86667C0.619911 1.86667 0 2.49347 0 3.26667H0.923077Z" fill="#263AAD"/>
<path d="M3.23077 11.2H1.23077V12.1333H3.23077H5.23077V11.2H3.23077ZM10.6154 12.1333H12.6154V11.2H10.6154H8.61539V12.1333H10.6154ZM2.76923 1.4V-0.6H1.84615V1.4V3.4H2.76923V1.4ZM1.84615 10.7333V12.7333H2.76923V10.7333V8.73333H1.84615V10.7333ZM3.23077 0H1.23077V0.933333H3.23077H5.23077V0H3.23077ZM11.0769 10.7333V12.7333H12V10.7333V8.73333H11.0769V10.7333ZM0 12.6V14.6H0.923077V12.6V10.6H0V12.6ZM0.923077 3.26667V1.26667H0V3.26667V5.26667H0.923077V3.26667ZM8.76923 14H10.7692V13.0667H8.76923H6.76923V14H8.76923ZM1.38462 13.0667H-0.615385V14H1.38462H3.38462V13.0667H1.38462ZM1.38462 1.86667H-0.615385V2.8H1.38462H3.38462V1.86667H1.38462ZM9.23077 12.6V14.6H10.1538V12.6V10.6H9.23077V12.6ZM8.76923 0.466667H4.76923V13.798L12.1085 2.66878L8.76923 0.466667ZM9.02529 0.0783765L11.2611 -3.23844L11.2606 -3.23876L9.02529 0.0783765ZM8.90898 0L11.1443 -3.31713L10.1309 -4H8.90898V0ZM11.5385 2.33333L8.19918 0.13124L4.1092 6.33333H11.5385V2.33333ZM12 2.08358H16V-0.0437017L14.2362 -1.23296L12 2.08358ZM11.7945 1.94504L14.0307 -1.3715L14.0303 -1.37178L11.7945 1.94504ZM8.76923 0.933333V4.93333H12.7692V0.933333H8.76923ZM11.0769 2.33333V-1.66667H7.07692V2.33333H11.0769ZM8.51317 0.854957L5.1739 -1.34715L2.99396 1.9585L6.27738 4.17177L8.51317 0.854957ZM11.2824 2.72163L9.04661 6.03844L12.3972 8.29698L14.6217 4.92372L11.2824 2.72163ZM2.30769 2.8V6.8H6.30769V2.8H2.30769ZM2.30769 1.86667H6.30769V-2.13333H2.30769V1.86667ZM10.1538 11.6667H14.1538V7.66667H10.1538V11.6667ZM9.23077 11.6667V7.66667H5.23077V11.6667H9.23077ZM8.76923 0.466667L12.1085 2.66878L12.3646 2.28049L9.02529 0.0783765L5.68602 -2.12373L5.42996 -1.73544L8.76923 0.466667ZM9.02529 0.0783765L11.2606 -3.23876L11.1443 -3.31713L8.90898 0L6.67367 3.31713L6.78998 3.39551L9.02529 0.0783765ZM8.90898 0V-4H8.76923V0V4H8.90898V0ZM8.76923 0H4.76923V0.466667H8.76923H12.7692V0H8.76923ZM11.5385 2.33333V6.33333H12V2.33333V-1.66667H11.5385V2.33333ZM12 2.33333H16V2.08358H12H8V2.33333H12ZM12 2.08358L14.2362 -1.23296L14.0307 -1.3715L11.7945 1.94504L9.55833 5.26158L9.76381 5.40012L12 2.08358ZM11.7945 1.94504L8.45524 -0.257055L8.19918 0.13124L11.5385 2.33333L14.8777 4.53543L15.1338 4.14713L11.7945 1.94504ZM10.6154 11.2V7.2H3.23077V11.2V15.2H10.6154V11.2ZM3.23077 12.1333V16.1333H10.6154V12.1333V8.13333H3.23077V12.1333ZM2.76923 10.7333H6.76923V1.4H2.76923H-1.23077V10.7333H2.76923ZM1.84615 1.4H-2.15385V10.7333H1.84615H5.84615V1.4H1.84615ZM3.23077 0.933333V4.93333H8.76923V0.933333V-3.06667H3.23077V0.933333ZM8.76923 0.933333H12.7692V0H8.76923H4.76923V0.933333H8.76923ZM8.76923 0V-4H3.23077V0V4H8.76923V0ZM11.0769 2.33333H7.07692V10.7333H11.0769H15.0769V2.33333H11.0769ZM12 10.7333H16V2.33333H12H8V10.7333H12ZM12 2.33333V-1.66667H11.0769V2.33333V6.33333H12V2.33333ZM8.51317 0.854957L6.27738 4.17177L9.04661 6.03844L11.2824 2.72163L13.5182 -0.595188L10.749 -2.46186L8.51317 0.854957ZM11.2824 2.72163L14.6217 4.92372L15.1338 4.14713L11.7945 1.94504L8.45524 -0.257055L7.94312 0.519535L11.2824 2.72163ZM11.7945 1.94504L14.0303 -1.37178L11.2611 -3.23844L9.02529 0.0783765L6.78952 3.3952L9.55875 5.26186L11.7945 1.94504ZM9.02529 0.0783765L5.68603 -2.12373L5.1739 -1.34715L8.51317 0.854957L11.8524 3.05707L12.3646 2.28049L9.02529 0.0783765ZM3.23077 11.2V7.2C5.22677 7.2 6.76923 8.82388 6.76923 10.7333H2.76923H-1.23077C-1.23077 13.1582 0.724969 15.2 3.23077 15.2V11.2ZM1.84615 10.7333H-2.15385C-2.15385 13.6738 0.215318 16.1333 3.23077 16.1333V12.1333V8.13333C4.71681 8.13333 5.84615 9.33921 5.84615 10.7333H1.84615ZM10.6154 12.1333V16.1333C13.6308 16.1333 16 13.6739 16 10.7333H12H8C8 9.33915 9.12937 8.13333 10.6154 8.13333V12.1333ZM11.0769 10.7333H7.07692C7.07692 8.82367 8.61955 7.2 10.6154 7.2V11.2V15.2C13.1209 15.2 15.0769 13.1584 15.0769 10.7333H11.0769ZM2.76923 1.4H6.76923C6.76923 3.30962 5.22657 4.93333 3.23077 4.93333V0.933333V-3.06667C0.725176 -3.06667 -1.23077 -1.02508 -1.23077 1.4H2.76923ZM3.23077 0V-4C0.215365 -4 -2.15385 -1.54055 -2.15385 1.4H1.84615H5.84615C5.84615 2.79415 4.71676 4 3.23077 4V0ZM0 3.26667H-4V12.6H0H4V3.26667H0ZM0.923077 12.6H4.92308V3.26667H0.923077H-3.07692V12.6H0.923077ZM1.38462 14V18H8.76923V14V10H1.38462V14ZM8.76923 13.0667V9.06667H1.38462V13.0667V17.0667H8.76923V13.0667ZM1.38462 2.8V6.8H2.30769V2.8V-1.2H1.38462V2.8ZM2.30769 2.8H6.30769V1.86667H2.30769H-1.69231V2.8H2.30769ZM2.30769 1.86667V-2.13333H1.38462V1.86667V5.86667H2.30769V1.86667ZM10.1538 12.6H14.1538V11.6667H10.1538H6.15385V12.6H10.1538ZM10.1538 11.6667V7.66667H9.23077V11.6667V15.6667H10.1538V11.6667ZM9.23077 11.6667H5.23077V12.6H9.23077H13.2308V11.6667H9.23077ZM8.76923 14V18C11.7846 18 14.1538 15.5405 14.1538 12.6H10.1538H6.15385C6.15385 11.2058 7.28321 10 8.76923 10V14ZM9.23077 12.6H5.23077C5.23077 10.6903 6.7734 9.06667 8.76923 9.06667V13.0667V17.0667C11.2748 17.0667 13.2308 15.025 13.2308 12.6H9.23077ZM0 12.6H-4C-4 15.5405 -1.63084 18 1.38462 18V14V10C2.87066 10 4 11.2059 4 12.6H0ZM1.38462 13.0667V9.06667C3.38062 9.06667 4.92308 10.6905 4.92308 12.6H0.923077H-3.07692C-3.07692 15.0248 -1.12118 17.0667 1.38462 17.0667V13.0667ZM0.923077 3.26667H4.92308C4.92308 5.17629 3.38041 6.8 1.38462 6.8V2.8V-1.2C-1.12098 -1.2 -3.07692 0.841583 -3.07692 3.26667H0.923077ZM1.38462 1.86667V-2.13333C-1.63078 -2.13333 -4 0.326112 -4 3.26667H0H4C4 4.66082 2.87061 5.86667 1.38462 5.86667V1.86667Z" fill="#828282" mask="url(#path-1-inside-1_3_354)"/>
</svg>
