<svg width="28" height="28" viewBox="0 0 28 28" fill="none" xmlns="http://www.w3.org/2000/svg">
<path d="M26.1874 14.5501L22.6874 5.80008C22.6861 5.79672 22.684 5.79378 22.6827 5.79041C22.6676 5.75347 22.65 5.7176 22.63 5.68307C22.6284 5.6804 22.6266 5.67794 22.625 5.67527C22.6061 5.64399 22.5853 5.61393 22.5626 5.58528C22.5577 5.57914 22.5531 5.57289 22.5481 5.56691C22.524 5.53767 22.498 5.51003 22.4703 5.48418C22.4652 5.47953 22.4599 5.47542 22.4548 5.47088C22.4307 5.44959 22.4054 5.42964 22.3791 5.41112C22.3717 5.40589 22.3644 5.40044 22.3568 5.39537C22.3262 5.37514 22.2943 5.35683 22.2614 5.34052C22.254 5.33689 22.2463 5.33379 22.2388 5.33038C22.2094 5.31684 22.1792 5.30497 22.1484 5.29481C22.1413 5.29246 22.1344 5.28979 22.1272 5.2876C22.0904 5.27656 22.053 5.26795 22.0151 5.2618C22.008 5.26068 22.0009 5.25999 21.9939 5.25897C21.9579 5.25397 21.9216 5.25122 21.8852 5.25075C21.8818 5.25075 21.8785 5.25 21.875 5.25C21.8737 5.25 21.8724 5.25032 21.871 5.25032C21.8319 5.25061 21.7928 5.25357 21.754 5.25918C21.7444 5.26052 21.735 5.26233 21.7255 5.26399C21.712 5.26634 21.6987 5.26784 21.6852 5.27083L14.875 6.78419V4.375C14.875 4.14294 14.7828 3.92038 14.6187 3.75628C14.4546 3.59219 14.2321 3.5 14 3.5C13.7679 3.5 13.5454 3.59219 13.3813 3.75628C13.2172 3.92038 13.125 4.14294 13.125 4.375V7.17309L5.9352 8.77083C5.91709 8.77483 5.89979 8.78039 5.88222 8.78546C5.87463 8.78765 5.86689 8.78936 5.85936 8.79176C5.82287 8.80339 5.78719 8.81741 5.75255 8.83374C5.74624 8.83673 5.74021 8.84004 5.73401 8.84319C5.7032 8.85855 5.67333 8.87572 5.64456 8.89462C5.63975 8.89777 5.63479 8.90066 5.63003 8.90392C5.59831 8.92573 5.56807 8.94962 5.53951 8.97543C5.53422 8.98018 5.52931 8.98526 5.52413 8.99017C5.49976 9.01326 5.47672 9.03773 5.45513 9.06344C5.4507 9.06873 5.446 9.0737 5.44168 9.07914C5.41821 9.1087 5.39668 9.13974 5.37722 9.17207C5.37273 9.17949 5.36862 9.18708 5.36435 9.19461C5.34547 9.22749 5.32876 9.26156 5.3143 9.29661C5.31382 9.29784 5.31308 9.29886 5.3126 9.30008L5.31153 9.30281L5.30998 9.3066L1.81259 18.0501C1.77125 18.1534 1.75 18.2637 1.75 18.375C1.75 20.9248 4.43353 21.875 6.125 21.875C7.81647 21.875 10.5 20.9248 10.5 18.375C10.5 18.2637 10.4788 18.1534 10.4374 18.0501L7.31974 10.2558L13.125 8.96581V22.75H11.375C11.1429 22.75 10.9204 22.8422 10.7563 23.0063C10.5922 23.1704 10.5 23.3929 10.5 23.625C10.5 23.8571 10.5922 24.0796 10.7563 24.2437C10.9204 24.4078 11.1429 24.5 11.375 24.5H16.625C16.8571 24.5 17.0796 24.4078 17.2437 24.2437C17.4078 24.0796 17.5 23.8571 17.5 23.625C17.5 23.3929 17.4078 23.1704 17.2437 23.0063C17.0796 22.8422 16.8571 22.75 16.625 22.75H14.875V8.57691L20.4471 7.33865L17.5626 14.5501C17.5212 14.6534 17.5 14.7637 17.5 14.875C17.5 17.4248 20.1835 18.375 21.875 18.375C23.5665 18.375 26.25 17.4248 26.25 14.875C26.25 14.7637 26.2288 14.6534 26.1874 14.5501ZM8.6826 18.375H3.5674L6.125 11.981L8.6826 18.375ZM19.3174 14.875L21.875 8.48105L24.4326 14.875H19.3174Z" fill="#828282"/>
</svg>
