<svg width="22" height="22" viewBox="0 0 22 22" fill="none" xmlns="http://www.w3.org/2000/svg">
<path d="M6.23497 1.83704V12.1H1.83704C1.83704 12.1 1.83704 16.63 1.83704 18.0937C1.83704 19.5573 3.20035 20.163 4.21029 20.163C5.22022 20.163 15.389 20.163 17.9644 20.163C19.0754 20.163 20.1637 19.0823 20.1637 17.9637C20.1637 17.1559 20.1637 1.83704 20.1637 1.83704H6.23497ZM4.21029 19.4302C3.75379 19.4302 2.5706 19.1902 2.5706 18.0937V12.8329H6.23566V17.7774C6.23566 18.2683 5.59422 19.4302 4.58291 19.4302H4.21029ZM19.4302 17.9637C19.4302 18.676 18.6767 19.4302 17.9637 19.4302H6.19854C6.69216 18.9159 6.96785 18.2401 6.96785 17.7774V2.56991H19.4295L19.4302 17.9637Z" fill="#828282"/>
<path d="M8.4342 4.03625H17.9636V4.76913H8.4342V4.03625Z" fill="#828282"/>
<path d="M8.4342 13.9321H17.9636V14.665H8.4342V13.9321Z" fill="#828282"/>
<path d="M8.4342 16.4979H17.9636V17.2308H8.4342V16.4979Z" fill="#828282"/>
<path d="M17.9636 6.60132H8.4342V12.0993H17.9636V6.60132ZM17.2308 11.3664H9.16708V7.33488H17.2308V11.3664Z" fill="#828282"/>
</svg>
