<svg width="22" height="22" viewBox="0 0 22 22" fill="none" xmlns="http://www.w3.org/2000/svg">
<path d="M10.5132 8.76099C12.4486 8.76099 14.0176 7.19202 14.0176 5.25659C14.0176 3.32117 12.4486 1.7522 10.5132 1.7522C8.57776 1.7522 7.00879 3.32117 7.00879 5.25659C7.00879 7.19202 8.57776 8.76099 10.5132 8.76099Z" stroke="#828282" stroke-width="1.31415"/>
<path d="M15.7698 7.88489C17.2214 7.88489 18.3981 6.90428 18.3981 5.69464C18.3981 4.485 17.2214 3.50439 15.7698 3.50439" stroke="#828282" stroke-width="1.31415" stroke-linecap="round"/>
<path d="M5.25659 7.88489C3.80503 7.88489 2.6283 6.90428 2.6283 5.69464C2.6283 4.485 3.80503 3.50439 5.25659 3.50439" stroke="#828282" stroke-width="1.31415" stroke-linecap="round"/>
<path d="M15.0665 13.1415C15.5138 13.6569 15.7698 14.2554 15.7698 14.8937C15.7698 16.8291 13.4163 18.3981 10.5132 18.3981C7.61005 18.3981 5.25659 16.8291 5.25659 14.8937C5.25659 12.9583 7.61005 11.3893 10.5132 11.3893C10.8117 11.3893 11.1044 11.4058 11.3893 11.4377" stroke="#828282" stroke-width="1.31415" stroke-linecap="round"/>
<path d="M17.522 16.6459C19.0588 16.3088 20.1503 15.4553 20.1503 14.4556C20.1503 13.4559 19.0588 12.6024 17.522 12.2654" stroke="#828282" stroke-width="1.31415" stroke-linecap="round"/>
<path d="M3.50439 16.6459C1.9675 16.3088 0.876099 15.4553 0.876099 14.4556C0.876099 13.4559 1.9675 12.6024 3.50439 12.2654" stroke="#828282" stroke-width="1.31415" stroke-linecap="round"/>
</svg>
