<svg width="27" height="27" viewBox="0 0 27 27" fill="none" xmlns="http://www.w3.org/2000/svg">
<path d="M6.75 5.29928C7.62777 6.09862 9.43599 8.28349 9.64666 10.6282C9.78762 12.1973 10.5691 13.5557 11.8125 14.2098C12.3059 14.4695 12.8721 14.6181 13.5 14.6249C14.3493 14.6342 15.2081 14.0207 15.206 13.1714C15.2053 12.9088 15.162 12.6402 15.0941 12.3933C14.9997 12.0496 14.9914 11.6544 15.1875 11.2499C15.8736 9.8353 17.2231 9.45531 18.2924 8.68703C18.7666 8.34629 19.1991 7.98684 19.3899 7.69731C19.9167 6.89797 20.4433 5.29929 20.1799 4.49994" stroke="#828282" stroke-width="1.6875"/>
<path d="M24.75 14.6249C24.3795 15.6723 24.1172 18.4218 19.933 18.4655C19.933 18.4655 19.0404 18.4655 18 18.7131M15.1161 20.5603C14.2268 22.2361 14.7455 24.0517 15.1161 24.7499" stroke="#828282" stroke-width="1.6875" stroke-linecap="round"/>
<path d="M7.87494 23.245C9.52967 24.2022 11.4509 24.7501 13.4999 24.7501C19.7131 24.7501 24.7499 19.7132 24.7499 13.5001C24.7499 7.28685 19.7131 2.25006 13.4999 2.25006C7.28673 2.25006 2.24994 7.28685 2.24994 13.5001C2.24994 15.5491 2.79778 17.4703 3.75499 19.1251" stroke="#828282" stroke-width="1.6875" stroke-linecap="round"/>
</svg>
