<svg width="16" height="16" viewBox="0 0 16 16" fill="none" xmlns="http://www.w3.org/2000/svg">
<path d="M0.8 16H15.2C15.4122 16 15.6157 15.9157 15.7657 15.7657C15.9157 15.6157 16 15.4122 16 15.2C16 14.9878 15.9157 14.7843 15.7657 14.6343C15.6157 14.4843 15.4122 14.4 15.2 14.4H1.6V0.8C1.6 0.587827 1.51571 0.384344 1.36569 0.234315C1.21566 0.0842854 1.01217 0 0.8 0C0.587827 0 0.384344 0.0842854 0.234315 0.234315C0.0842854 0.384344 0 0.587827 0 0.8V15.2C0 15.4122 0.0842854 15.6157 0.234315 15.7657C0.384344 15.9157 0.587827 16 0.8 16Z" fill="#263AAD"/>
<path d="M3.99944 12.7999C4.12161 12.7996 4.2421 12.7714 4.35165 12.7173C4.4612 12.6632 4.55691 12.5847 4.63144 12.4879L7.48744 8.79994L9.21544 10.2799C9.29531 10.3489 9.38803 10.4013 9.48826 10.4343C9.58849 10.4672 9.69424 10.48 9.79944 10.4719C10.0107 10.4544 10.2064 10.3537 10.3434 10.1919L15.8074 3.73594C15.9443 3.57362 16.0111 3.36359 15.9931 3.15205C15.975 2.94051 15.8737 2.74479 15.7114 2.60794C15.5491 2.47108 15.3391 2.40432 15.1276 2.42232C14.916 2.44032 14.7203 2.54162 14.5834 2.70394L9.63944 8.54394L7.87944 7.03994C7.797 6.9697 7.70117 6.91694 7.59774 6.88484C7.49431 6.85274 7.38545 6.84198 7.27773 6.8532C7.17002 6.86442 7.06571 6.89739 6.97112 6.95012C6.87653 7.00284 6.79363 7.07422 6.72744 7.15994L3.35144 11.5199C3.26188 11.6393 3.2075 11.7814 3.19446 11.9301C3.18143 12.0788 3.21024 12.2281 3.27766 12.3613C3.34507 12.4945 3.4484 12.6061 3.57595 12.6836C3.7035 12.7612 3.85019 12.8014 3.99944 12.7999Z" fill="#263AAD"/>
</svg>
