<svg width="141" height="170" viewBox="0 0 141 170" fill="none" xmlns="http://www.w3.org/2000/svg">
<g clip-path="url(#clip0_372_14515)">
<path d="M100.62 99.8372C95.8871 104.948 88.8149 109.256 81.3333 111.201C58.2583 117.218 34.9077 103.011 28.5759 80.0227C22.2047 56.8847 35.8055 32.9514 58.9593 26.5802C63.6057 25.3043 68.2916 24.8239 72.8594 25.0759C74.1115 32.1717 78.6242 64.705 59.8964 80.4322C41.0427 72.7301 51.1311 40.7874 51.2256 40.4645C51.1311 40.5511 40.011 51.6397 38.9242 64.8074C37.042 87.6225 58.912 120.809 100.62 99.8372Z" fill="url(#paint0_linear_372_14515)"/>
<path d="M93.1698 81.4639C100.525 70.6746 99.478 62.8385 99.478 62.744C99.3599 62.9645 84.499 87.5358 72.3866 83.9525C75.836 63.6339 91.8625 43.3154 105.243 40.9685C120.812 52.2461 113.386 84.9369 91.4687 96.4586C82.6089 101.113 70.1736 101.861 59.4394 96.561C59.4394 96.561 77.8836 103.885 93.1698 81.4717V81.4639Z" fill="url(#paint1_linear_372_14515)"/>
</g>
<path d="M71.6417 168.598C70.6303 168.598 69.8039 167.771 69.8039 166.76V137.663C69.8039 136.652 70.6303 135.825 71.6417 135.825C72.6532 135.825 73.4796 136.652 73.4796 137.663V166.76C73.4796 167.771 72.6532 168.598 71.6417 168.598Z" fill="url(#paint2_linear_372_14515)"/>
<path d="M70.4201 139.982C31.9243 139.982 0.594849 108.665 0.594849 70.1567C0.594849 31.6486 31.912 0.34375 70.4201 0.34375C108.928 0.34375 140.245 31.6609 140.245 70.1691C140.245 108.677 108.928 139.994 70.4201 139.994V139.982ZM70.4201 4.00708C33.9472 4.00708 4.27051 33.6838 4.27051 70.1567C4.27051 106.63 33.9472 136.306 70.4201 136.306C106.893 136.306 136.57 106.63 136.57 70.1567C136.57 33.6838 106.893 4.01942 70.4201 4.01942V4.00708Z" fill="url(#paint3_linear_372_14515)"/>
<path d="M71.6413 169.313C71.1479 169.313 70.6915 169.116 70.3462 168.771L55.2735 153.698C54.5581 152.983 54.5581 151.811 55.2735 151.095C55.9889 150.38 57.1607 150.38 57.8761 151.095L71.6413 164.861L85.4065 151.095C86.1219 150.38 87.2937 150.38 88.0091 151.095C88.7245 151.811 88.7245 152.983 88.0091 153.698L72.9364 168.771C72.591 169.116 72.1223 169.313 71.6413 169.313Z" fill="url(#paint4_linear_372_14515)"/>
<defs>
<linearGradient id="paint0_linear_372_14515" x1="63.8133" y1="25.0112" x2="63.8133" y2="112.584" gradientUnits="userSpaceOnUse">
<stop stop-color="#5DE29B"/>
<stop offset="1" stop-color="#A0DDFF"/>
</linearGradient>
<linearGradient id="paint1_linear_372_14515" x1="86.4769" y1="40.9685" x2="86.4769" y2="100.25" gradientUnits="userSpaceOnUse">
<stop stop-color="#5DE29B"/>
<stop offset="1" stop-color="#A0DDFF"/>
</linearGradient>
<linearGradient id="paint2_linear_372_14515" x1="71.6417" y1="135.825" x2="71.6417" y2="168.598" gradientUnits="userSpaceOnUse">
<stop stop-color="#5DE29B"/>
<stop offset="1" stop-color="#9FBCFF"/>
</linearGradient>
<linearGradient id="paint3_linear_372_14515" x1="70.4201" y1="0.34375" x2="70.4201" y2="139.994" gradientUnits="userSpaceOnUse">
<stop stop-color="#A0DDFF"/>
<stop offset="1" stop-color="#5DE29B"/>
</linearGradient>
<linearGradient id="paint4_linear_372_14515" x1="71.6413" y1="150.559" x2="71.6413" y2="169.313" gradientUnits="userSpaceOnUse">
<stop stop-color="#5DE29B"/>
<stop offset="1" stop-color="#9FBCFF"/>
</linearGradient>
<clipPath id="clip0_372_14515">
<rect width="86.4956" height="87.5746" fill="white" transform="translate(27.0085 25.0127)"/>
</clipPath>
</defs>
</svg>
