<svg width="20" height="20" viewBox="0 0 20 20" fill="none" xmlns="http://www.w3.org/2000/svg">
<path d="M3 7H17" stroke="#828282" stroke-width="1.32037" stroke-miterlimit="10"/>
<path d="M10 3C11.0609 3 12.0783 3.42143 12.8284 4.17157C13.5786 4.92172 14 5.93913 14 7H6C6 5.93913 6.42143 4.92172 7.17157 4.17157C7.92172 3.42143 8.93913 3 10 3Z" stroke="#828282" stroke-width="1.32037" stroke-miterlimit="10"/>
<path d="M10 0V2" stroke="#828282" stroke-width="1.32037" stroke-miterlimit="10"/>
<path d="M8 10V19" stroke="#828282" stroke-width="1.32037" stroke-miterlimit="10"/>
<path d="M12 10V19" stroke="#828282" stroke-width="1.32037" stroke-miterlimit="10"/>
<path d="M15 7V19" stroke="#828282" stroke-width="1.32037" stroke-miterlimit="10"/>
<path d="M5 7V19" stroke="#828282" stroke-width="1.32037" stroke-miterlimit="10"/>
<path d="M19 9H15V19H19V9Z" stroke="#828282" stroke-width="1.32037" stroke-miterlimit="10"/>
<path d="M5 9H1V19H5V9Z" stroke="#828282" stroke-width="1.32037" stroke-miterlimit="10"/>
<path d="M0 19H20" stroke="#828282" stroke-width="1.32037" stroke-miterlimit="10"/>
<path d="M3 12H5" stroke="#828282" stroke-width="1.32037" stroke-miterlimit="10"/>
<path d="M3 16H5" stroke="#828282" stroke-width="1.32037" stroke-miterlimit="10"/>
<path d="M15 12H18" stroke="#828282" stroke-width="1.32037" stroke-miterlimit="10"/>
<path d="M15 16H18" stroke="#828282" stroke-width="1.32037" stroke-miterlimit="10"/>
</svg>
