<svg width="21" height="21" viewBox="0 0 21 21" fill="none" xmlns="http://www.w3.org/2000/svg">
<g clip-path="url(#clip0_2130_1020)">
<path d="M5.90625 5.90625C6.60244 5.90625 7.27012 5.62969 7.7624 5.1374C8.25469 4.64512 8.53125 3.97744 8.53125 3.28125C8.53125 2.58506 8.25469 1.91738 7.7624 1.42509C7.27012 0.932811 6.60244 0.65625 5.90625 0.65625H3.9375V5.90625H5.90625Z" stroke="#71717A" stroke-width="1.3125" stroke-linecap="round" stroke-linejoin="round"/>
<path d="M3.9375 1.96875H1.3125" stroke="#71717A" stroke-width="1.3125" stroke-linecap="round" stroke-linejoin="round"/>
<path d="M3.9375 4.59375H1.3125" stroke="#71717A" stroke-width="1.3125" stroke-linecap="round" stroke-linejoin="round"/>
<path d="M8.53125 3.28125H15.75C16.7943 3.28125 17.7958 3.6961 18.5342 4.43452C19.2727 5.17294 19.6875 6.17446 19.6875 7.21875C19.6875 8.26304 19.2727 9.26459 18.5342 10.003C17.7958 10.7414 16.7943 11.1562 15.75 11.1562H5.90625C5.03601 11.1562 4.20141 11.502 3.58606 12.1173C2.9707 12.7326 2.625 13.5672 2.625 14.4375C2.625 15.3078 2.9707 16.1423 3.58606 16.7577C4.20141 17.373 5.03601 17.7188 5.90625 17.7188H14.8958" stroke="#71717A" stroke-width="1.3125" stroke-linecap="round" stroke-linejoin="round"/>
<path d="M12.3371 20.3437C11.9553 20.3438 11.5781 20.2606 11.2317 20.1C10.8853 19.9393 10.5782 19.705 10.3317 19.4135C10.0851 19.1218 9.90524 18.78 9.80444 18.4118C9.70364 18.0435 9.68439 17.6577 9.748 17.2812C9.87365 16.654 10.216 16.091 10.7152 15.691C11.2144 15.2911 11.8385 15.0796 12.478 15.0937H14.6848C15.7215 15.0936 16.7351 15.4005 17.5976 15.9757L19.3931 17.1727C19.483 17.2326 19.5567 17.3138 19.6077 17.409C19.6586 17.5043 19.6853 17.6106 19.6853 17.7187C19.6853 17.8267 19.6586 17.9331 19.6077 18.0283C19.5567 18.1235 19.483 18.2047 19.3931 18.2647L17.5976 19.4617C16.7351 20.0368 15.7215 20.3438 14.6848 20.3437H12.3371Z" stroke="#71717A" stroke-width="1.3125" stroke-linecap="round" stroke-linejoin="round"/>
</g>
<defs>
<clipPath id="clip0_2130_1020">
<rect width="21" height="21" fill="white"/>
</clipPath>
</defs>
</svg>
