<svg width="17" height="18" viewBox="0 0 17 18" fill="none" xmlns="http://www.w3.org/2000/svg">
<path fill-rule="evenodd" clip-rule="evenodd" d="M8.4993 12.6429C10.5112 12.6429 12.1422 11.0119 12.1422 9.00003C12.1422 6.98815 10.5112 5.35718 8.4993 5.35718C6.48741 5.35718 4.85645 6.98815 4.85645 9.00003C4.85645 11.0119 6.48741 12.6429 8.4993 12.6429ZM10.9279 9.00003C10.9279 10.3413 9.84054 11.4286 8.4993 11.4286C7.15806 11.4286 6.07073 10.3413 6.07073 9.00003C6.07073 7.6588 7.15806 6.57146 8.4993 6.57146C9.84054 6.57146 10.9279 7.6588 10.9279 9.00003Z" fill="#263AAD"/>
<path fill-rule="evenodd" clip-rule="evenodd" d="M0 8.39261V9.6069C0 10.5469 0.711942 11.3205 1.62598 11.418C1.70357 11.6386 1.79145 11.8542 1.88902 12.0644C1.29008 12.7801 1.32683 13.8474 1.99927 14.5199L2.85789 15.3785C3.51503 16.0356 4.54935 16.0857 5.26395 15.5287C5.52767 15.6596 5.80054 15.7751 6.08133 15.874C6.17883 16.788 6.95245 17.5 7.89243 17.5H9.10672C10.0465 17.5 10.82 16.7884 10.9177 15.8746C11.1729 15.7848 11.4215 15.6814 11.6627 15.565C12.375 16.0832 13.378 16.021 14.0205 15.3785L14.8791 14.5199C15.5216 13.8774 15.5838 12.8744 15.0656 12.1621C15.1818 11.9211 15.2852 11.6728 15.3749 11.4179C16.2886 11.32 17 10.5465 17 9.6069V8.39261C17 7.453 16.2886 6.67962 15.3749 6.58169C15.276 6.30049 15.1604 6.02727 15.0293 5.76322C15.5858 5.04865 15.5357 4.01468 14.8787 3.35771L14.0201 2.49907C13.3478 1.8268 12.2807 1.78991 11.5652 2.3884C11.3546 2.29068 11.1386 2.20268 10.9176 2.125C10.8197 1.21143 10.0463 0.5 9.10672 0.5H7.89243C6.95264 0.5 6.17908 1.21176 6.08139 2.12563C5.8333 2.21293 5.5914 2.31325 5.35652 2.42574C4.64127 1.78867 3.54428 1.8131 2.85832 2.49907L1.99969 3.3577C1.31372 4.04367 1.28928 5.14067 1.92637 5.85592C1.81376 6.09104 1.71335 6.3332 1.62598 6.58157C0.711942 6.67907 0 7.4527 0 8.39261ZM9.71386 2.32143C9.71386 1.98612 9.44204 1.71429 9.10672 1.71429H7.89243C7.55711 1.71429 7.28529 1.98612 7.28529 2.32143V2.55378C7.28529 2.8425 7.08086 3.0881 6.80358 3.16865C6.37294 3.29376 5.96199 3.46529 5.57658 3.67747C5.32365 3.81671 5.00544 3.78756 4.80128 3.58341L4.57557 3.35771C4.33847 3.1206 3.95405 3.1206 3.71695 3.3577L2.85832 4.21633C2.62121 4.45343 2.62121 4.83786 2.85832 5.07496L3.08403 5.30067C3.28819 5.50483 3.31734 5.82304 3.1781 6.07597C2.9658 6.4616 2.79419 6.87275 2.66907 7.3037C2.58855 7.58105 2.34293 7.78547 2.05417 7.78547H1.82143C1.48612 7.78547 1.21429 8.05735 1.21429 8.39261V9.6069C1.21429 9.94223 1.48612 10.214 1.82143 10.214H2.05417C2.34293 10.214 2.58855 10.4185 2.66907 10.6958C2.78651 11.1004 2.9449 11.4874 3.13944 11.8523C3.27373 12.1041 3.24272 12.4178 3.04091 12.6196L2.85789 12.8027C2.62079 13.0397 2.62079 13.4241 2.85789 13.6613L3.71653 14.5199C3.95363 14.757 4.33805 14.757 4.57516 14.5199L4.72289 14.3722C4.92939 14.1656 5.25212 14.1384 5.50605 14.2826C5.91172 14.5131 6.34653 14.6982 6.80358 14.8309C7.08086 14.9114 7.28529 15.1571 7.28529 15.4458V15.6786C7.28529 16.0139 7.55711 16.2857 7.89243 16.2857H9.10672C9.44204 16.2857 9.71386 16.0139 9.71386 15.6786V15.4463C9.71386 15.1575 9.91835 14.9119 10.1957 14.8314C10.6269 14.7062 11.0384 14.5345 11.4242 14.3221C11.6772 14.1829 11.9954 14.212 12.1996 14.4162L12.3033 14.5199C12.5404 14.757 12.9248 14.757 13.1619 14.5199L14.0205 13.6613C14.2576 13.4241 14.2576 13.0397 14.0205 12.8027L13.9168 12.699C13.7126 12.4948 13.6835 12.1766 13.8228 11.9236C14.0351 11.538 14.2067 11.1268 14.3318 10.6958C14.4123 10.4185 14.6579 10.214 14.9467 10.214H15.1786C15.5139 10.214 15.7857 9.94223 15.7857 9.6069V8.39261C15.7857 8.05735 15.5139 7.78547 15.1786 7.78547H14.9467C14.6579 7.78547 14.4123 7.58105 14.3318 7.3037C14.199 6.8464 14.0139 6.41131 13.7833 6.00541C13.639 5.75148 13.6663 5.42874 13.8728 5.22224L14.0201 5.07496C14.2572 4.83786 14.2572 4.45343 14.0201 4.21633L13.1615 3.3577C12.9244 3.1206 12.5399 3.1206 12.3028 3.3577L12.1203 3.54026C11.9185 3.74207 11.6047 3.77308 11.3529 3.6388C10.9878 3.44413 10.6005 3.28566 10.1957 3.16819C9.91835 3.0877 9.71386 2.84207 9.71386 2.55328V2.32143Z" fill="#263AAD"/>
</svg>
