<svg width="40" height="60" viewBox="0 0 40 60" fill="none" xmlns="http://www.w3.org/2000/svg">
<path d="M24.6315 3.74813L20.4015 25.9781L35.7278 26.0287L14.8646 56.1637L19.0965 31.7081L3.77025 31.6537L24.6315 3.74813ZM24.6334 0C24.5321 0 24.4309 0.00375 24.3315 0.01125C23.6696 0.06375 23.2309 0.286875 22.7115 0.635625C22.4228 0.826875 22.1584 1.06313 21.9259 1.335C21.8565 1.41563 21.7928 1.5 21.7328 1.58625L0.719629 29.3963C-0.109121 30.5344 -0.232872 32.0344 0.404628 33.2887C1.04213 34.5431 2.32838 35.3381 3.74025 35.3494L14.5646 35.4281L11.1615 55.4794C10.839 57.2025 11.7578 58.92 13.374 59.6119C13.8559 59.8181 14.3621 59.9175 14.8609 59.9175C16.0403 59.9175 17.0078 59.3662 17.7353 58.3706L38.7728 28.2356C39.6015 27.0975 39.7234 25.5956 39.0878 24.3431C38.4503 23.0887 37.164 22.2938 35.7521 22.2844L24.9278 22.2656L28.2953 4.63688C28.3665 4.35375 28.4021 4.05937 28.4021 3.75563C28.4021 1.72688 26.7878 0.073125 24.7665 0.0075C24.7215 0.005625 24.6784 0.005625 24.6334 0.005625V0Z" fill="#48DBB2"/>
</svg>
