<svg id="Layer_1" data-name="Layer 1" xmlns="http://www.w3.org/2000/svg" viewBox="0 0 566.93 140.96"><defs><style>.cls-1{fill:#014269;}</style></defs><polygon class="cls-1" points="7.72 95.02 7.72 113.54 29.78 113.54 29.78 118.34 7.72 118.34 7.72 140.54 2.35 140.54 2.35 90.21 33.59 90.21 33.59 95.02 7.72 95.02"/><path class="cls-1" d="M69.21,135.73a18.44,18.44,0,0,1-25.73,0c-4.73-4.73-4.73-9.68-4.73-20.36s0-15.62,4.73-20.35a18.44,18.44,0,0,1,25.73,0C74,99.75,74,104.7,74,115.37s0,15.63-4.74,20.36M65,98.2a12.28,12.28,0,0,0-17.39,0c-3.18,3.25-3.53,6.64-3.53,17.17s.35,13.93,3.53,17.18a12.28,12.28,0,0,0,17.39,0c3.18-3.25,3.54-6.64,3.54-17.18S68.22,101.45,65,98.2"/><path class="cls-1" d="M102.15,141c-10.18,0-17.53-7-17.53-17V90.21H90V123.5c0,7.64,4.81,12.66,12.16,12.66s12.23-5,12.23-12.66V90.21h5.37v33.72c0,10-7.42,17-17.6,17"/><polygon class="cls-1" points="164.42 140.54 137.7 100.18 137.7 140.54 132.32 140.54 132.32 90.21 137.41 90.21 164.13 130.43 164.13 90.21 169.5 90.21 169.5 140.54 164.42 140.54"/><path class="cls-1" d="M212.76,135.87c-3,3-7.49,4.67-12.72,4.67H182.79V90.21H200c5.23,0,9.68,1.63,12.72,4.67,5.23,5.22,5,12.93,5,19.93s.28,15.83-5,21.06M209,98.69C206.4,96,203,95,199.12,95h-11v40.71h11c3.88,0,7.28-1,9.89-3.67,3.47-3.61,3.32-11.1,3.32-17.25s.15-12.51-3.32-16.12"/><path class="cls-1" d="M257.71,140.54l-4-11.38h-22l-4,11.38h-5.73l18.52-50.33H245l18.45,50.33ZM242.79,97.91l-9.47,26.58h18.8Z"/><polygon class="cls-1" points="280.81 95.02 280.81 140.54 275.44 140.54 275.44 95.02 260.88 95.02 260.88 90.21 295.38 90.21 295.38 95.02 280.81 95.02"/><rect class="cls-1" x="303.5" y="90.21" width="5.37" height="50.33"/><path class="cls-1" d="M350.72,135.73a18.44,18.44,0,0,1-25.73,0c-4.74-4.73-4.74-9.68-4.74-20.36s0-15.62,4.74-20.35a18.44,18.44,0,0,1,25.73,0c4.73,4.73,4.73,9.68,4.73,20.35s0,15.63-4.73,20.36M346.55,98.2a12.28,12.28,0,0,0-17.39,0c-3.18,3.25-3.54,6.64-3.54,17.17s.36,13.93,3.54,17.18a12.28,12.28,0,0,0,17.39,0c3.18-3.25,3.53-6.64,3.53-17.18s-.35-13.92-3.53-17.17"/><polygon class="cls-1" points="398.92 140.54 372.2 100.18 372.2 140.54 366.83 140.54 366.83 90.21 371.92 90.21 398.64 130.43 398.64 90.21 404.01 90.21 404.01 140.54 398.92 140.54"/><polygon class="cls-1" points="529.78 0.51 529.78 60.62 566.93 60.62 566.93 52.42 538.94 52.42 538.94 34.41 562.64 34.41 562.64 26.22 538.94 26.22 538.94 8.7 566.93 8.7 566.93 0.51 529.78 0.51"/><path class="cls-1" d="M499.32,61.12c-9.05,0-15.64-2-21.45-7.94l6.61-6.6c4.13,4.15,9.1,5.52,15,5.52,7.44,0,11.66-3.14,11.66-8.59A7.53,7.53,0,0,0,509,37.74c-1.38-1.28-2.81-1.85-6.09-2.33l-7.11-1.06c-4.95-.72-8.77-2.39-11.4-4.89-3-2.81-4.38-6.69-4.38-11.61C480,7.29,487.77,0,500.38,0c8,0,13.7,2,18.82,6.87l-6.37,6.41c-3.74-3.57-8.13-4.47-12.8-4.47-6.73,0-10.24,3.81-10.24,8.69a6.56,6.56,0,0,0,2.06,5.09,12.12,12.12,0,0,0,6.29,2.65l6.88,1c5.5.8,8.74,2.2,11.27,4.52,3.21,2.95,4.83,7.25,4.83,12.48,0,11.29-9.27,17.87-21.8,17.87"/><polygon class="cls-1" points="443.5 0.52 443.5 60.62 472.98 60.62 472.98 50.77 454.5 50.77 454.5 0.52 443.5 0.52"/><path class="cls-1" d="M409.09,61.12c-12.33,0-22-8.4-22-21.17V.51H399v39c0,6.76,3.94,10.89,10.1,10.89s10.23-4.13,10.23-10.89V.51h11.93V40c0,12.77-9.83,21.17-22.16,21.17"/><path class="cls-1" d="M358.9,38.44H348.39V60.62H335.52V.52H358.9c12.76,0,20,8.88,20,19s-7.24,19-20,19m-.63-26.35h-9.88V26.86h9.88c4.8,0,7.78-3.18,7.78-7.39s-3-7.38-7.78-7.38"/><polygon class="cls-1" points="309.59 0.51 295.52 28.82 281.39 0.51 267.84 0.51 267.84 60.62 281.62 60.62 281.62 29.94 291.02 47.18 299.99 47.18 309.36 29.94 309.36 60.62 323.14 60.62 323.14 0.51 309.59 0.51"/><rect class="cls-1" x="240.25" y="0.52" width="15.87" height="60.1"/><path class="cls-1" d="M19.92,61.13C11,61.13,5.47,58.68,0,53.19L3.2,50c5.38,5.41,9.74,7.09,17,7.09,9.43,0,15.39-4.55,15.39-12.4,0-3.55-1.08-6.51-3.28-8.44S28.5,33.77,23.63,33l-7-1.1C12.1,31.24,8.49,29.71,6,27.52c-3.2-2.69-4.71-6.4-4.71-11C1.26,6.42,8.41,0,19.83,0c7.41,0,12.11,2,17.25,6.5l-2.95,3c-3.7-3.29-7.4-5.57-14.54-5.57C10.93,3.89,5.72,8.7,5.72,16.3c0,3.46,1,6.08,3.11,7.85a19,19,0,0,0,8.91,3.71l6.48,1c5.62.83,8.15,1.85,10.68,4a14.8,14.8,0,0,1,5.21,11.64c0,10.14-7.74,16.64-20.19,16.64"/><path class="cls-1" d="M82.94,54.91a21.51,21.51,0,0,1-30.26,0c-5.53-5.57-5.59-11.17-5.59-24.35s.06-18.77,5.59-24.34a21.51,21.51,0,0,1,30.26,0c5.54,5.57,5.59,11.16,5.59,24.34s0,18.78-5.59,24.35M78.66,9.34a15.45,15.45,0,0,0-21.7,0c-4,4.08-4.41,8.49-4.41,21.22S52.93,47.7,57,51.78a15.4,15.4,0,0,0,21.7,0c4-4.08,4.4-8.47,4.4-21.22s-.38-17.14-4.4-21.22"/><polygon class="cls-1" points="98.56 0.51 98.56 60.62 126.21 60.62 126.21 54.91 104.95 54.91 104.95 0.51 98.56 0.51"/><path class="cls-1" d="M157,11.16l10.49,30.09H146.46ZM153.92.51,132,60.62h7.74l4.6-13.06h25.32l4.55,13.06h7.74L160,.51Z"/><path class="cls-1" d="M221.85,60.62,208.9,34.86H196.62V60.62h-8.25V.51h23.12c11,0,18.34,7,18.34,17.29,0,8.67-5.25,14.26-12.31,16l13.9,26.79Zm-11-52.71H196.62v19.9h14.26c6.33,0,10.71-3.55,10.71-10s-4.38-9.94-10.71-9.94"/></svg>