<svg width="19" height="19" viewBox="0 0 19 19" fill="none" xmlns="http://www.w3.org/2000/svg">
<g clip-path="url(#clip0_1918_726)">
<path fill-rule="evenodd" clip-rule="evenodd" d="M9.5 4.75C6.87665 4.75 4.75 6.87665 4.75 9.5C4.75 12.1233 6.87665 14.25 9.5 14.25C12.1233 14.25 14.25 12.1233 14.25 9.5C14.25 6.87665 12.1233 4.75 9.5 4.75ZM7.125 9.5C7.125 8.18832 8.18832 7.125 9.5 7.125C10.8117 7.125 11.875 8.18832 11.875 9.5C11.875 10.8117 10.8117 11.875 9.5 11.875C8.18832 11.875 7.125 10.8117 7.125 9.5Z" fill="#828282"/>
<path fill-rule="evenodd" clip-rule="evenodd" d="M9.5 0C4.25329 0 0 4.25329 0 9.5C0 14.7467 4.25329 19 9.5 19C14.7467 19 19 14.7467 19 9.5C19 4.25329 14.7467 0 9.5 0ZM2.375 9.5C2.375 5.56497 5.56497 2.375 9.5 2.375C13.435 2.375 16.625 5.56497 16.625 9.5C16.625 13.435 13.435 16.625 9.5 16.625C5.56497 16.625 2.375 13.435 2.375 9.5Z" fill="#828282"/>
</g>
<defs>
<clipPath id="clip0_1918_726">
<rect width="19" height="19" fill="white"/>
</clipPath>
</defs>
</svg>
