<svg width="24" height="24" viewBox="0 0 24 24" fill="none" xmlns="http://www.w3.org/2000/svg">
<path d="M5.8125 5.8125L10.1719 10.1719M5.8125 5.8125H2.90625L1.9375 2.90625L2.90625 1.9375L5.8125 2.90625V5.8125ZM18.6572 2.65535L16.1117 5.20086C15.728 5.5845 15.5361 5.77632 15.4643 5.99751C15.4011 6.19209 15.4011 6.40167 15.4643 6.59624C15.5361 6.81743 15.728 7.00925 16.1117 7.39289L16.3415 7.62274C16.7251 8.00638 16.917 8.19819 17.1382 8.27006C17.3327 8.33329 17.5423 8.33329 17.7368 8.27006C17.958 8.19819 18.1499 8.00638 18.5335 7.62274L20.9146 5.24164C21.1711 5.86567 21.3125 6.54913 21.3125 7.26563C21.3125 10.2083 18.9271 12.5938 15.9844 12.5938C15.6296 12.5938 15.2829 12.5591 14.9476 12.4929C14.4766 12.4001 14.2411 12.3536 14.0984 12.3678C13.9466 12.383 13.8718 12.4057 13.7374 12.4777C13.6108 12.5454 13.484 12.6722 13.2302 12.926L6.29688 19.8594C5.49433 20.6619 4.19317 20.6619 3.39062 19.8594C2.58808 19.0569 2.58808 17.7556 3.39062 16.9531L10.324 10.0198C10.5778 9.76597 10.7046 9.63911 10.7723 9.51263C10.8443 9.37816 10.8671 9.30336 10.8822 9.1516C10.8964 9.00884 10.8499 8.77337 10.7571 8.30242C10.6909 7.96706 10.6562 7.62039 10.6562 7.26563C10.6562 4.32298 13.0417 1.9375 15.9844 1.9375C16.9585 1.9375 17.8715 2.19889 18.6572 2.65535ZM11.6251 14.5312L16.9531 19.8593C17.7556 20.6618 19.0569 20.6618 19.8594 19.8593C20.6619 19.0568 20.6619 17.7555 19.8594 16.953L15.4761 12.5698C15.1658 12.5405 14.8632 12.4845 14.5708 12.4042C14.1938 12.3007 13.7804 12.3759 13.5041 12.6522L11.6251 14.5312Z" stroke="#828282" stroke-width="1.5" stroke-linecap="round" stroke-linejoin="round"/>
</svg>
