<svg fill="none" height="104" viewBox="0 0 55 104" width="55" xmlns="http://www.w3.org/2000/svg">
                            <path class="icon-5 path" d="M26.74.098a2.46 2.46 0 0 0-1.504.832 2.433 2.433 0 0 0-.584 1.609v11.717h-3.757a2.459 2.459 0 0 0-1.533.818 2.432 2.432 0 0 0-.603 1.623v11.644c0 .647.258 1.268.719 1.726.46.458 1.085.715 1.736.715-1.105 8.373-2.332 16.6-3.978 24.582h-2.21a2.321 2.321 0 0 0-1.62.756 2.433 2.433 0 0 0-.614 1.685 2.284 2.284 0 0 0 .761 1.635c.466.41 1.072.628 1.694.61h.958a167.426 167.426 0 0 1-3.536 12.865H9.133a2.46 2.46 0 0 0-1.62.78 2.432 2.432 0 0 0-.615 1.685c.056.609.339 1.175.793 1.586a2.464 2.464 0 0 0 1.663.636h1.743a108.016 108.016 0 0 1-10.78 22.14 2.432 2.432 0 0 0 .82 3.26c.351.222.754.352 1.17.377h15.322c.651 0 1.276-.257 1.736-.715.461-.457.72-1.078.72-1.726v-2.44a7.01 7.01 0 0 1 2.071-4.972 7.093 7.093 0 0 1 5-2.06c1.876 0 3.675.742 5.001 2.06a7.01 7.01 0 0 1 2.072 4.971v2.441c0 .648.258 1.269.719 1.726.46.458 1.085.715 1.736.715H41.4a2.46 2.46 0 0 0 1.67-.683 2.434 2.434 0 0 0 0-3.344 2.26 2.26 0 0 0-1.67-.66h-2.456c0-3.107-1.241-6.087-3.452-8.285a11.822 11.822 0 0 0-8.334-3.432 11.822 11.822 0 0 0-8.335 3.432 11.682 11.682 0 0 0-3.452 8.285H6.506a117.427 117.427 0 0 0 9.65-21.09h21.928a113.527 113.527 0 0 0 11.811 24.703 2.45 2.45 0 0 0 1.513 1.553c.356.126.735.169 1.11.126a2.472 2.472 0 0 0 1.825-1.176 2.437 2.437 0 0 0 .17-2.156 2.442 2.442 0 0 0-.64-.91 108.014 108.014 0 0 1-10.78-22.14h1.72a2.296 2.296 0 0 0 1.694-.66 2.435 2.435 0 0 0 .404-2.534 2.443 2.443 0 0 0-.836-1.043 2.465 2.465 0 0 0-1.263-.45h-3.29a163.468 163.468 0 0 1-3.536-12.865h.957a2.463 2.463 0 0 0 1.67-.683 2.294 2.294 0 0 0 .712-1.66c0-.648-.259-1.268-.719-1.726a2.463 2.463 0 0 0-1.736-.715h-1.99c-1.645-7.983-2.872-16.209-3.977-24.582.65 0 1.276-.257 1.736-.715.46-.457.72-1.078.72-1.726V16.526c0-.647-.26-1.268-.72-1.726a2.463 2.463 0 0 0-1.736-.715h-3.536V2.368a2.433 2.433 0 0 0-.688-1.684A2.463 2.463 0 0 0 26.96 0l-.22.098zm-3.267 18.771h7.072v7.03h-7.072v-7.03zm2.456 11.718h2.21c1.08 8.3 2.284 16.526 3.904 24.581H22c1.62-8.055 2.849-16.257 3.929-24.581zM21.018 59.88H33.05c.982 4.345 2.087 8.64 3.389 12.864h-18.81a185.976 185.976 0 0 0 3.34-12.889l.049.025z" fill="#81A0EC" style="opacity: 1; visibility: inherit;">
                            </path>
                            <path class="icon-5 path" d="M39.048 54.85h-23.77a2.497 2.497 0 0 0-2.505 2.49 2.497 2.497 0 0 0 2.505 2.49h23.77a2.497 2.497 0 0 0 2.505-2.49 2.497 2.497 0 0 0-2.505-2.49z" fill="#1D4BDC" style="opacity: 1; visibility: inherit;">
                            </path>
                            <path class="icon-5 path" d="M44.83 72.55H9.125a2.497 2.497 0 0 0-2.505 2.49 2.497 2.497 0 0 0 2.505 2.49h35.703a2.497 2.497 0 0 0 2.505-2.49 2.497 2.497 0 0 0-2.505-2.49z" fill="url(#mrmosp57ua)" style="opacity: 1; visibility: inherit;">
                            </path>
                            <defs>
                                <linearGradient gradientUnits="userSpaceOnUse" id="mrmosp57ua" x1="46.721" x2="6.621" y1="76.644" y2="76.644">
                                    <stop offset=".328" stop-color="#88A9FF">
                                    </stop>
                                    <stop offset="1" stop-color="#86FFDB">
                                    </stop>
                                </linearGradient>
                            </defs>
                        </svg>