<svg width="25" height="25" viewBox="0 0 25 25" fill="none" xmlns="http://www.w3.org/2000/svg">
<g clip-path="url(#clip0_2130_1030)">
<path d="M19.7813 7.31253C19.8379 7.45935 19.9376 7.58565 20.0672 7.67486C20.1969 7.76408 20.3504 7.81206 20.5078 7.81253C20.6041 7.81179 20.6995 7.79325 20.7891 7.75784C20.9814 7.68278 21.1362 7.53465 21.2196 7.3458C21.3031 7.15696 21.3084 6.94277 21.2344 6.75003C20.8729 5.82435 20.3666 4.96202 19.7344 4.19534C19.5986 4.05015 19.4126 3.96218 19.2142 3.94934C19.0159 3.9365 18.8201 3.99975 18.6667 4.12622C18.5133 4.2527 18.414 4.43287 18.3888 4.63005C18.3636 4.82723 18.4146 5.02659 18.5312 5.18753C19.0578 5.82524 19.4797 6.5425 19.7813 7.31253ZM17.1875 3.90628C17.3947 3.90628 17.5934 3.82397 17.7399 3.67746C17.8864 3.53094 17.9688 3.33223 17.9688 3.12503C17.9653 3.01998 17.9407 2.91672 17.8964 2.82141C17.8521 2.7261 17.789 2.6407 17.7109 2.57034C17.6444 2.49811 17.5634 2.44062 17.4732 2.4016C17.3831 2.36258 17.2857 2.34288 17.1875 2.34378C16.9803 2.34378 16.7816 2.42609 16.6351 2.5726C16.4886 2.71911 16.4063 2.91783 16.4063 3.12503C16.4093 3.23777 16.4367 3.34852 16.4866 3.44967C16.5365 3.55081 16.6077 3.63995 16.6953 3.71097C16.8316 3.83138 17.0057 3.90046 17.1875 3.90628ZM7.03125 10.1563C7.03125 11.2379 7.35199 12.2952 7.9529 13.1946C8.55381 14.0939 9.40792 14.7948 10.4072 15.2087C11.4065 15.6227 12.5061 15.731 13.5669 15.5199C14.6277 15.3089 15.6022 14.7881 16.367 14.0233C17.1318 13.2585 17.6527 12.284 17.8637 11.2232C18.0747 10.1623 17.9664 9.06276 17.5525 8.06348C17.1386 7.0642 16.4376 6.21009 15.5383 5.60918C14.6389 5.00827 13.5816 4.68753 12.5 4.68753C11.0496 4.68753 9.6586 5.2637 8.63301 6.28929C7.60742 7.31488 7.03125 8.70588 7.03125 10.1563ZM16.4063 10.1563C16.4063 10.9289 16.1772 11.6841 15.7479 12.3265C15.3187 12.9689 14.7086 13.4695 13.9949 13.7652C13.2811 14.0608 12.4957 14.1382 11.7379 13.9875C10.9802 13.8367 10.2842 13.4647 9.73786 12.9184C9.19157 12.3721 8.81953 11.6761 8.66881 10.9184C8.51808 10.1606 8.59544 9.3752 8.8911 8.66142C9.18675 7.94765 9.68742 7.33758 10.3298 6.90835C10.9722 6.47913 11.7274 6.25003 12.5 6.25003C13.536 6.25003 14.5296 6.66158 15.2621 7.39414C15.9947 8.12671 16.4063 9.12028 16.4063 10.1563Z" fill="#828282"/>
<path d="M23.9922 20.539L19.6563 16.2031C21.0904 14.5148 21.8769 12.3713 21.875 10.1562C21.875 9.94901 21.7927 9.75029 21.6462 9.60378C21.4997 9.45727 21.301 9.37496 21.0938 9.37496C20.8866 9.37496 20.6879 9.45727 20.5413 9.60378C20.3948 9.75029 20.3125 9.94901 20.3125 10.1562C20.3115 11.4265 20.0008 12.6774 19.4073 13.8005C18.8137 14.9236 17.9553 15.8851 16.9063 16.6015L16.125 17.0703C15.0087 17.6587 13.7658 17.9662 12.5039 17.9662C11.242 17.9662 9.99915 17.6587 8.88284 17.0703L8.10159 16.6015C6.57978 15.5531 5.4789 13.9991 4.99452 12.2157C4.51014 10.4324 4.67363 8.535 5.45594 6.86075C6.23826 5.18651 7.58874 3.84379 9.26746 3.07114C10.9462 2.29848 12.8445 2.14593 14.625 2.64058C14.726 2.67727 14.8336 2.69273 14.9408 2.68598C15.0481 2.67922 15.1528 2.65041 15.2484 2.60134C15.344 2.55228 15.4285 2.484 15.4965 2.4008C15.5646 2.3176 15.6147 2.22125 15.6438 2.11779C15.6729 2.01433 15.6803 1.90597 15.6657 1.7995C15.651 1.69303 15.6145 1.59074 15.5584 1.49902C15.5024 1.4073 15.4281 1.32813 15.3401 1.26645C15.252 1.20478 15.1522 1.16193 15.0469 1.14058C13.1179 0.602545 11.0673 0.696356 9.19546 1.40827C7.32363 2.12019 5.72897 3.4128 4.64505 5.09675C3.56114 6.7807 3.04495 8.7675 3.17209 10.7661C3.29923 12.7647 4.06303 14.6701 5.35159 16.2031L1.00784 20.539C0.89766 20.6483 0.822519 20.7879 0.791996 20.9401C0.761473 21.0922 0.776951 21.25 0.836456 21.3933C0.895961 21.5366 0.996798 21.659 1.12611 21.7447C1.25542 21.8305 1.40735 21.8759 1.56253 21.875H4.12503L4.72659 23.6875C4.76844 23.8143 4.84213 23.9283 4.9406 24.0186C5.03908 24.1089 5.15907 24.1724 5.28909 24.2031L5.46878 24.2187C5.57159 24.2193 5.67352 24.1996 5.7687 24.1607C5.86389 24.1218 5.95046 24.0646 6.02346 23.9921L10.6641 19.3515C11.8759 19.5954 13.1242 19.5954 14.336 19.3515L18.9766 23.9921C19.0496 24.0646 19.1362 24.1218 19.2313 24.1607C19.3265 24.1996 19.4285 24.2193 19.5313 24.2187H19.711C19.841 24.188 19.961 24.1245 20.0594 24.0342C20.1579 23.944 20.2316 23.83 20.2735 23.7031L20.875 21.875H23.4375C23.5927 21.8759 23.7446 21.8305 23.8739 21.7447C24.0033 21.659 24.1041 21.5366 24.1636 21.3933C24.2231 21.25 24.2386 21.0922 24.2081 20.9401C24.1775 20.7879 24.1024 20.6483 23.9922 20.539ZM8.89846 18.9062L5.77346 22.0312L5.39065 20.8906C5.34856 20.7328 5.2581 20.5922 5.13199 20.4885C5.00587 20.3848 4.85044 20.3233 4.68753 20.3125H3.44534L6.36721 17.3906L7.2344 17.9062C7.52125 18.0996 7.81858 18.2769 8.12503 18.4375L8.89846 18.9062ZM20.3125 20.3125C20.1487 20.312 19.989 20.3631 19.8558 20.4584C19.7226 20.5538 19.6227 20.6885 19.5703 20.8437L19.1875 21.9843L16.0625 18.8593L16.8438 18.3984C17.1502 18.2379 17.4476 18.0605 17.7344 17.8671L18.6016 17.3515L21.5547 20.3125H20.3125Z" fill="#828282"/>
</g>
<defs>
<clipPath id="clip0_2130_1030">
<rect width="25" height="25" fill="white"/>
</clipPath>
</defs>
</svg>
