<svg width="28" height="28" viewBox="0 0 28 28" fill="none" xmlns="http://www.w3.org/2000/svg">
<path d="M8.67505 27.2073H18.9083" stroke="#828282" stroke-width="1.49756" stroke-linecap="round" stroke-linejoin="round"/>
<path d="M4.8374 23.2762H22.7457" stroke="#828282" stroke-width="1.49756" stroke-linecap="round" stroke-linejoin="round"/>
<path d="M1 19.3451H26.5833" stroke="#828282" stroke-width="1.49756" stroke-linecap="round" stroke-linejoin="round"/>
<path d="M11.2333 6.68883C12.0336 6.3991 12.8946 6.24146 13.7917 6.24146C18.0304 6.24146 21.4666 9.76147 21.4666 14.1036C21.4666 16.0976 20.742 17.9181 19.5479 19.3041H8.03544C6.84128 17.9181 6.1167 16.0976 6.1167 14.1036C6.1167 13.1847 6.2706 12.3027 6.55342 11.4829" stroke="#828282" stroke-width="1.49756" stroke-linecap="round"/>
<path d="M13.7915 1V2.31036" stroke="#828282" stroke-width="1.49756" stroke-linecap="round"/>
<path d="M26.5831 14.1036H25.304" stroke="#828282" stroke-width="1.49756" stroke-linecap="round"/>
<path d="M2.27916 14.1036H1" stroke="#828282" stroke-width="1.49756" stroke-linecap="round"/>
<path d="M22.8362 4.83899L22.3337 5.35374" stroke="#828282" stroke-width="1.49756" stroke-linecap="round"/>
<path d="M5.24884 5.35339L4.74634 4.83862" stroke="#828282" stroke-width="1.49756" stroke-linecap="round"/>
</svg>
