<svg width="16" height="14" viewBox="0 0 16 14" fill="none" xmlns="http://www.w3.org/2000/svg">
<path d="M11.8889 11.0625H11.8967M10.8 8.625H12.6667C13.3915 8.625 13.7538 8.625 14.0398 8.74866C14.4209 8.9136 14.7237 9.22999 14.8816 9.62811C15 9.92679 15 10.3053 15 11.0625C15 11.8197 15 12.1982 14.8816 12.4969C14.7237 12.895 14.4209 13.2114 14.0398 13.3763C13.7538 13.5 13.3915 13.5 12.6667 13.5H3.33333C2.60854 13.5 2.24614 13.5 1.96027 13.3763C1.57912 13.2114 1.27629 12.895 1.11841 12.4969C1 12.1982 1 11.8197 1 11.0625C1 10.3053 1 9.92679 1.11841 9.62811C1.27629 9.22999 1.57912 8.9136 1.96027 8.74866C2.24614 8.625 2.60854 8.625 3.33333 8.625H5.2M8 9.4375V0.5M8 0.5L10.3333 2.9375M8 0.5L5.66667 2.9375" stroke="#263AAD" stroke-linecap="round" stroke-linejoin="round"/>
</svg>
